<?xml version="1.0" standalone="no"?>
<!DOCTYPE svg PUBLIC "-//W3C//DTD SVG 1.1//EN" "http://www.w3.org/Graphics/SVG/1.1/DTD/svg11.dtd" >
<svg xmlns="http://www.w3.org/2000/svg" xmlns:xlink="http://www.w3.org/1999/xlink" version="1.1">
<metadata>
Created by FontForge 20170731 at Thu Sep 22 18:56:57 2016
 By Aleksey,,,
(c) 2014 The Monotype Corporation. All Rights Reserved.
</metadata>
<defs>
<font id="ArialNova-BoldItalic" horiz-adv-x="682" >
  <font-face 
    font-family="Arial Nova"
    font-weight="700"
    font-style="italic"
    font-stretch="normal"
    units-per-em="2048"
    panose-1="2 11 8 4 2 2 2 9 2 4"
    ascent="1638"
    descent="-410"
    x-height="1061"
    cap-height="1466"
    bbox="-988 -445 3204 1923"
    underline-thickness="102"
    underline-position="-358"
    slope="-12"
    unicode-range="U+0020-FEFF"
  />
<missing-glyph horiz-adv-x="1024" 
d="M129 0v1536h768v-1536h-768zM256 1409v-1280h512v1280h-512z" />
    <glyph glyph-name="f_i.liga" unicode="fi" horiz-adv-x="1241" 
d="M678 1276q-56 0 -87 -37.5t-48 -120.5l-12 -57h205l-48 -223h-205l-178 -838h-281l178 838h-155l48 223h154l20 99q25 124 66 194.5t114.5 103.5t198.5 33q58 0 120.5 -12t102.5 -27l-66 -201q-31 12 -65.5 18.5t-61.5 6.5zM921 1206l56 260h281l-56 -260h-281zM665 0
l226 1061h281l-226 -1061h-281z" />
    <glyph glyph-name="f_l.liga" unicode="fl" horiz-adv-x="1241" 
d="M678 1276q-56 0 -87 -37.5t-48 -120.5l-12 -57h205l-48 -223h-205l-178 -838h-281l178 838h-155l48 223h154l20 99q25 124 66 194.5t114.5 103.5t198.5 33q58 0 120.5 -12t102.5 -27l-66 -201q-31 12 -65.5 18.5t-61.5 6.5zM665 0l312 1466h281l-312 -1466h-281z" />
    <glyph glyph-name="uniFDFC" unicode="&#xfdfc;" horiz-adv-x="2237" arabic-form="isolated" 
d="M1847 849h279q0 -311 -110.5 -467t-385.5 -156q-226 0 -331 116t-105 374v753h281v-755q0 -142 39.5 -199t140.5 -57q107 0 148.5 91t43.5 300zM672 578v891h284v-884q0 -242 -123.5 -376t-316.5 -134q-259 0 -363 130t-104 474h281q0 -204 33.5 -288.5t146.5 -84.5
q80 0 121 69t41 203zM1202 17l166 168l164 -168l-164 -162zM838 17l159 168l166 -168l-166 -162zM2175 111q6 -25 11 -58.5t5 -82.5q0 -181 -101.5 -259.5t-299 -110t-524.5 -31.5v231q312 0 433 20t166.5 60t45.5 119q0 34 -4 62.5t-9 49.5h277z" />
    <glyph glyph-name=".notdef" horiz-adv-x="1024" 
d="M129 0v1536h768v-1536h-768zM256 1409v-1280h512v1280h-512z" />
    <glyph glyph-name=".null" horiz-adv-x="0" 
 />
    <glyph glyph-name="glyph2" horiz-adv-x="512" 
 />
    <glyph glyph-name="uniFEFF" unicode="&#xfeff;" horiz-adv-x="0" 
 />
    <glyph glyph-name="uniFEFF" horiz-adv-x="0" 
 />
    <glyph glyph-name="space" unicode=" " horiz-adv-x="512" 
 />
    <glyph glyph-name="exclam" unicode="!" 
d="M347 379h-162l85 742l74 345h306l-74 -345zM41 0l61 288h288l-61 -288h-288z" />
    <glyph glyph-name="quotedbl" unicode="&#x22;" horiz-adv-x="971" 
d="M394 944h-201v275l53 247h307l-53 -247zM878 944h-201v275l53 247h307l-53 -247z" />
    <glyph glyph-name="numbersign" unicode="#" horiz-adv-x="1139" 
d="M385 1491h225l-78 -387h224l78 387h225l-78 -387h136v-224h-181l-59 -294h240v-224h-285l-78 -387h-225l78 387h-224l-78 -387h-225l78 387h-136v224h181l59 294h-240v224h285zM711 880h-224l-59 -294h224z" />
    <glyph glyph-name="dollar" unicode="$" horiz-adv-x="1163" 
d="M2 412l267 28q0 -84 32 -138.5t106 -75.5l85 400l-4 2q-167 66 -242 159t-75 235q0 126 54.5 228t166.5 162.5t278 60.5h2l27 127h136l-29 -138q157 -26 229 -114t80 -224l-261 -33q-4 52 -26 86.5t-72 51.5l-79 -371q123 -47 198.5 -106.5t111.5 -140t36 -193.5
q0 -127 -61 -224.5t-181 -153.5t-290 -59l-39 -186h-136l41 193q-176 26 -265.5 135.5t-89.5 288.5zM553 910l70 333q-71 -5 -113.5 -35.5t-59.5 -71.5t-17 -80q0 -40 22.5 -74t97.5 -72zM617 572l-76 -355q106 10 158 64.5t52 126.5q0 36 -9.5 61t-38 49.5t-86.5 53.5z" />
    <glyph glyph-name="percent" unicode="%" horiz-adv-x="1782" 
d="M106 990q0 152 50 265.5t144.5 174.5t223.5 61q95 0 163.5 -37.5t105 -107.5t36.5 -165q0 -147 -48 -259.5t-142 -176t-230 -63.5q-96 0 -164.5 38.5t-103.5 108t-35 161.5zM241 -25l1114 1516h191l-1106 -1516h-199zM501 1309q-38 0 -74.5 -32t-60 -100.5t-23.5 -170.5
q0 -75 20.5 -108t71.5 -33q38 0 74 29.5t60 98t24 178.5q0 72 -21 105t-71 33zM955 282q0 152 50 265.5t144.5 174.5t223.5 61q95 0 163.5 -37.5t105 -107.5t36.5 -165q0 -147 -48 -259.5t-142 -176t-230 -63.5q-96 0 -164.5 38.5t-103.5 108t-35 161.5zM1350 601
q-38 0 -74.5 -32t-60 -100.5t-23.5 -170.5q0 -75 20.5 -108t71.5 -33q38 0 74 29.5t60 98t24 178.5q0 72 -21 105t-71 33z" />
    <glyph glyph-name="ampersand" unicode="&#x26;" horiz-adv-x="1468" 
d="M1066 703l242 -58q-31 -73 -95.5 -171.5t-115.5 -147.5q30 -37 94.5 -91t101.5 -75l-191 -199q-104 57 -204 170q-105 -82 -212 -120t-224 -38q-154 0 -257.5 48.5t-154 135t-50.5 202.5q0 135 109.5 263.5t328.5 226.5q-47 79 -70 148.5t-23 137.5q0 93 51 175
t148.5 131.5t228.5 49.5q195 0 295.5 -76t100.5 -218q0 -113 -86.5 -215.5t-284.5 -212.5l151 -254q30 32 64.5 86t52.5 102zM906 1184q0 47 -33.5 77.5t-94.5 30.5q-44 0 -79.5 -17t-56 -45.5t-20.5 -63.5q0 -93 65 -210q117 59 168 114t51 114zM295 373q0 -73 47.5 -119.5
t133.5 -46.5q69 0 135.5 25.5t147.5 84.5l-208 342q-124 -59 -190 -130.5t-66 -155.5z" />
    <glyph glyph-name="quotesingle" unicode="'" horiz-adv-x="487" 
d="M394 944h-201v275l53 247h307l-53 -247z" />
    <glyph glyph-name="parenleft" unicode="(" 
d="M290 245q0 -190 19.5 -367t55.5 -308h-192q-68 152 -105 339t-37 347q0 335 138.5 655.5t411.5 579.5h192q-180 -243 -284.5 -442.5t-151.5 -391.5t-47 -412z" />
    <glyph glyph-name="parenright" unicode=")" 
d="M309 816q0 190 -19.5 367t-55.5 308h192q68 -152 105 -339t37 -347q0 -335 -138.5 -655.5t-411.5 -579.5h-192q180 243 284.5 442.5t151.5 391.5t47 412z" />
    <glyph glyph-name="asterisk" unicode="*" horiz-adv-x="797" 
d="M457 1223q109 51 251 110l55 -182q-182 -37 -259 -49q109 -114 176 -201l-152 -102q-77 112 -135 223q-64 -114 -139 -229l-152 116q41 49 82.5 90.5t105.5 102.5q-25 2 -125.5 26t-130.5 37l57 176q65 -27 137 -62t102 -54q-25 149 -25 266h178q0 -46 -5 -103t-21 -165z
" />
    <glyph glyph-name="plus" unicode="+" horiz-adv-x="1196" 
d="M1110 852v-258h-383v-383h-258v383h-383v258h383v383h258v-383h383z" />
    <glyph glyph-name="comma" unicode="," horiz-adv-x="568" 
d="M-51 -328l-31 122q91 27 138 76t67 130h-139l61 288h288l-47 -219q-24 -112 -61 -184t-102 -123t-174 -90z" />
    <glyph glyph-name="hyphen" unicode="-" horiz-adv-x="741" 
d="M22 391l60 281h551l-60 -281h-551z" />
    <glyph glyph-name="period" unicode="." horiz-adv-x="568" 
d="M-16 0l61 288h288l-61 -288h-288z" />
    <glyph glyph-name="slash" unicode="/" horiz-adv-x="569" 
d="M-168 -49l675 1515h216l-679 -1515h-212z" />
    <glyph glyph-name="zero" unicode="0" horiz-adv-x="1163" 
d="M43 526q0 268 70.5 482.5t205.5 339t320 124.5q147 0 254 -66t165 -194.5t58 -311.5q0 -275 -69 -483.5t-204.5 -325t-328.5 -116.5q-234 0 -352.5 143t-118.5 408zM332 509q0 -113 21 -179t62 -93.5t104 -27.5q85 0 155 76t111.5 236t41.5 399q0 179 -52.5 249
t-141.5 70q-92 0 -160 -91t-104.5 -256t-36.5 -383z" />
    <glyph glyph-name="one" unicode="1" horiz-adv-x="1163" 
d="M382 0l225 1059q-90 -72 -203.5 -128t-223.5 -85l54 254q171 61 304 149t214 224h229l-313 -1473h-286z" />
    <glyph glyph-name="two" unicode="2" horiz-adv-x="1163" 
d="M-93 0q58 186 184 321q83 88 180.5 171.5t237.5 195.5q119 95 157 127q89 74 124.5 143t35.5 136q0 69 -37 107t-106 38q-62 0 -106.5 -26t-76.5 -74.5t-64 -126.5l-1 -2l-283 28q44 147 128 244.5t191 144t224 46.5q218 0 325 -99.5t107 -276.5q0 -97 -40.5 -183.5
t-139 -184t-276.5 -231.5q-121 -91 -188 -146.5t-94 -89.5h559l-56 -262h-985z" />
    <glyph glyph-name="three" unicode="3" horiz-adv-x="1163" 
d="M1002 489q0 -146 -69 -263.5t-192.5 -184t-279.5 -66.5q-221 0 -335.5 109.5t-123.5 304.5l289 33q0 -213 174 -213q72 0 127 40.5t85 104t30 139.5q0 78 -47.5 126t-133.5 48h-133l77 215q171 0 244 59t73 164q0 58 -39.5 92.5t-106.5 34.5q-79 0 -140 -52.5t-91 -142.5
l-260 46q70 203 195.5 293t310.5 90q141 0 236.5 -45t142 -123t46.5 -177q0 -75 -33 -143.5t-100 -120.5t-165 -78q65 -11 114.5 -51t77 -102t27.5 -137z" />
    <glyph glyph-name="four" unicode="4" horiz-adv-x="1163" 
d="M1065 543l-53 -248h-182l-63 -295h-281l63 295h-602l52 246l845 929h236l-197 -927h182zM602 543l94 455l-412 -455h318z" />
    <glyph glyph-name="five" unicode="5" horiz-adv-x="1163" 
d="M559 1184l-86 -250q43 21 91 34t85 13q192 0 288 -108.5t96 -302.5q0 -170 -76.5 -305.5t-208.5 -212.5t-292 -77q-230 0 -343 105t-113 301l294 28q0 -96 41.5 -148t123.5 -52q75 0 138 47t100 130t37 186q0 90 -42.5 137.5t-124.5 47.5q-133 0 -240 -107l-1 -1l-211 33
l273 764h768l-56 -262h-541z" />
    <glyph glyph-name="six" unicode="6" horiz-adv-x="1163" 
d="M731 1239q-208 0 -308 -410q57 60 127.5 90.5t137.5 30.5q114 0 195.5 -47.5t123.5 -132.5t42 -196q0 -174 -74 -311.5t-200.5 -212.5t-278.5 -75q-220 0 -324.5 122t-104.5 367q0 286 83.5 516t238 361.5t353.5 131.5q204 0 301.5 -96t97.5 -269l-284 -29
q0 80 -29.5 120t-96.5 40zM606 735q-70 0 -128 -36t-93 -109.5t-35 -180.5q0 -96 39.5 -148t109.5 -52q71 0 130.5 42t94.5 120.5t35 184.5q0 86 -37.5 132.5t-115.5 46.5z" />
    <glyph glyph-name="seven" unicode="7" horiz-adv-x="1163" 
d="M421 0h-297q73 314 252 622t434 562h-631l55 262h973l-43 -203q-157 -133 -307.5 -336t-266 -440.5t-169.5 -466.5z" />
    <glyph glyph-name="eight" unicode="8" horiz-adv-x="1163" 
d="M1019 482q0 -139 -66 -254.5t-189.5 -184t-288.5 -68.5q-142 0 -246 45.5t-159.5 132.5t-55.5 207q0 139 85 254t244 177q-155 72 -155 272q0 111 61.5 205t173 149.5t248.5 55.5q140 0 236.5 -46.5t144.5 -125t48 -174.5q0 -121 -65 -207.5t-205 -128.5q91 -41 140 -119
t49 -190zM666 1247q-61 0 -108.5 -25.5t-74 -70t-26.5 -98.5q0 -79 38.5 -118.5t106.5 -39.5q56 0 107 26t82 75t31 115q0 62 -43 99t-113 37zM560 670q-75 0 -133 -39t-89.5 -106t-31.5 -149q0 -52 22.5 -91.5t62 -61.5t89.5 -22q81 0 136.5 38t83 101.5t27.5 141.5
q0 83 -44 135.5t-123 52.5z" />
    <glyph glyph-name="nine" unicode="9" horiz-adv-x="1163" 
d="M427 209q209 0 308 410q-49 -58 -120 -89.5t-136 -31.5q-119 0 -202 47.5t-125 132.5t-42 196q0 174 73 310.5t200.5 212.5t283.5 76q208 0 316 -131t108 -374q0 -263 -81.5 -490.5t-234.5 -365t-357 -137.5q-201 0 -301 97.5t-100 267.5l284 29q0 -80 29.5 -120
t96.5 -40zM552 713q69 0 127.5 34.5t93.5 103t35 164.5q0 224 -162 224q-65 0 -121.5 -42.5t-91 -121t-34.5 -183.5q0 -86 37.5 -132.5t115.5 -46.5z" />
    <glyph glyph-name="colon" unicode=":" horiz-adv-x="606" 
d="M163 773l62 288h288l-62 -288h-288zM-1 0l61 288h288l-61 -288h-288z" />
    <glyph glyph-name="semicolon" unicode=";" horiz-adv-x="606" 
d="M163 773l61 288h288l-61 -288h-288zM-36 -328l-31 122q91 27 138 76t67 130h-139l61 288h288l-47 -219q-24 -112 -61 -184t-102 -123t-174 -90z" />
    <glyph glyph-name="less" unicode="&#x3c;" horiz-adv-x="1196" 
d="M1100 449v-283l-1004 436v244l1004 436v-287l-701 -268z" />
    <glyph glyph-name="equal" unicode="=" horiz-adv-x="1196" 
d="M86 817v258h1024v-258h-1024zM86 373v258h1024v-258h-1024z" />
    <glyph glyph-name="greater" unicode="&#x3e;" horiz-adv-x="1196" 
d="M1100 600l-1004 -434v285l701 270l-701 276v285l1004 -438v-244z" />
    <glyph glyph-name="question" unicode="?" horiz-adv-x="1115" 
d="M326 409q21 105 54 181.5t88 139t142 121.5q79 54 123 94t64.5 78t20.5 83q0 71 -45 110.5t-123 39.5q-89 0 -150 -58t-105 -178l-255 32q60 204 195 319t339 115q139 0 235.5 -47.5t145 -130t48.5 -187.5q0 -97 -32.5 -164.5t-96.5 -126t-193 -150.5
q-74 -52 -110.5 -88.5t-55 -76.5t-33.5 -109l-6 -27h-256zM223 0l62 288h288l-62 -288h-288z" />
    <glyph glyph-name="at" unicode="@" horiz-adv-x="1997" 
d="M1015 -430q-278 0 -494.5 107.5t-338.5 314t-122 492.5q0 289 127.5 518.5t357.5 359t528 129.5q239 0 436 -93.5t312.5 -268t115.5 -407.5q0 -189 -82.5 -355.5t-221.5 -266.5t-300 -100q-97 0 -148 42.5t-56 118.5q-52 -78 -131.5 -119.5t-158.5 -41.5
q-106 0 -188 54.5t-127.5 150.5t-45.5 215q0 187 69 338.5t186.5 238t257.5 86.5q84 0 149.5 -35.5t102.5 -99.5l25 111h250l-145 -694q-19 -90 -19 -108q0 -26 16.5 -39.5t35.5 -13.5q72 0 154.5 65.5t138.5 181.5t56 259q0 190 -86 327.5t-241 209.5t-359 72
q-271 0 -457 -109.5t-278 -298t-92 -424.5q0 -216 89 -384.5t267 -264.5t435 -96q203 0 364.5 49t265.5 126l109 -145q-133 -99 -315 -150.5t-442 -51.5zM1015 879q-91 0 -154 -71.5t-94 -175t-31 -195.5q0 -108 42.5 -170.5t121.5 -62.5q84 0 149.5 67t102.5 184
q36 117 36 206q0 111 -43 164.5t-130 53.5z" />
    <glyph glyph-name="A" unicode="A" horiz-adv-x="1460" 
d="M992 0l-56 332h-566l-192 -332h-330l883 1466h293l276 -1466h-308zM704 911l-191 -331h381l-53 331q-16 102 -16 240h-8q-44 -122 -113 -240z" />
    <glyph glyph-name="B" unicode="B" horiz-adv-x="1410" 
d="M1335 1117q0 -132 -71 -212t-212 -125q96 -29 154 -109t58 -203q0 -154 -73 -258.5t-208 -157t-321 -52.5h-664l312 1466h576q225 0 337 -90.5t112 -258.5zM1033 1088q0 76 -52.5 103t-135.5 27h-293l-71 -335h297q124 0 189.5 52.5t65.5 152.5zM957 480q0 74 -55 114.5
t-181 40.5h-293l-82 -387h296q86 0 153.5 15.5t114.5 67t47 149.5z" />
    <glyph glyph-name="C" unicode="C" horiz-adv-x="1485" 
d="M857 1237q-142 0 -252.5 -89.5t-171 -237.5t-60.5 -318q0 -179 71 -271t214 -92t242 70.5t165 226.5l289 -69q-92 -236 -265.5 -359t-437.5 -123q-289 0 -438.5 159.5t-149.5 462.5q0 251 108 455.5t290.5 321.5t391.5 117q252 0 403.5 -110t188.5 -320l-297 -70
q-18 116 -86.5 181t-204.5 65z" />
    <glyph glyph-name="D" unicode="D" horiz-adv-x="1471" 
d="M1411 865q0 -237 -85 -432.5t-268 -314t-461 -118.5h-599l312 1466h499q309 0 455.5 -145.5t146.5 -455.5zM1103 903q0 168 -77 241.5t-241 73.5h-233l-206 -970h237q250 0 385 161t135 494z" />
    <glyph glyph-name="E" unicode="E" horiz-adv-x="1253" 
d="M552 1218l-71 -335h616l-53 -248h-616l-82 -387h706l-53 -248h-1001l312 1466h966l-53 -248h-671z" />
    <glyph glyph-name="F" unicode="F" horiz-adv-x="1221" 
d="M549 1218l-77 -363h615l-53 -247h-615l-129 -608h-294l312 1466h985l-53 -248h-691z" />
    <glyph glyph-name="G" unicode="G" horiz-adv-x="1557" 
d="M893 1237q-157 0 -274.5 -86t-180 -231t-62.5 -319q0 -181 78.5 -276.5t224.5 -95.5q102 0 199.5 28t174.5 81l43 201h-342l53 248h637l-124 -584q-126 -111 -281.5 -169.5t-359.5 -58.5q-308 0 -461.5 162.5t-153.5 457.5q0 249 109 454t301 323.5t426 118.5
q264 0 401.5 -108t172.5 -322l-297 -55q-10 110 -79.5 170.5t-204.5 60.5z" />
    <glyph glyph-name="H" unicode="H" horiz-adv-x="1477" 
d="M1064 901l120 565h295l-312 -1466h-295l139 653h-579l-139 -653h-295l312 1466h295l-120 -565h579z" />
    <glyph glyph-name="I" unicode="I" horiz-adv-x="603" 
d="M-2 0l312 1466h295l-312 -1466h-295z" />
    <glyph glyph-name="J" unicode="J" horiz-adv-x="1117" 
d="M384 -25q-145 0 -240.5 46t-141 125t-45.5 182q0 46 16 127l287 37q-12 -64 -12 -111q0 -80 35 -116t106 -36q179 0 238 277l204 960h296l-204 -959q-42 -198 -109 -313.5t-170 -167t-260 -51.5z" />
    <glyph glyph-name="K" unicode="K" horiz-adv-x="1452" 
d="M1179 1466h383l-660 -587l389 -879h-338l-283 689l-283 -247l-94 -442h-295l312 1466h295l-134 -635z" />
    <glyph glyph-name="L" unicode="L" horiz-adv-x="1158" 
d="M1001 248l-53 -248h-950l312 1466h295l-259 -1218h655z" />
    <glyph glyph-name="M" unicode="M" horiz-adv-x="1784" 
d="M1332 1466h454l-312 -1466h-275l246 1155l-565 -1155h-284l-77 1155l-246 -1155h-275l312 1466h434l77 -1038z" />
    <glyph glyph-name="N" unicode="N" horiz-adv-x="1469" 
d="M1196 1466h275l-312 -1466h-277l-400 996l-209 -996h-275l312 1466h267l405 -1019z" />
    <glyph glyph-name="O" unicode="O" horiz-adv-x="1608" 
d="M64 596q0 252 110.5 456.5t304 321.5t430.5 117q184 0 328.5 -79t225 -220.5t80.5 -322.5q0 -260 -112.5 -463.5t-305.5 -317t-424 -113.5q-203 0 -346.5 77t-217 217t-73.5 327zM885 1237q-152 0 -267.5 -80t-178.5 -224t-63 -328q0 -111 37.5 -196.5t111 -132.5
t178.5 -47q154 0 274.5 81.5t187.5 225.5t67 325q0 111 -42 196.5t-120.5 132.5t-184.5 47z" />
    <glyph glyph-name="P" unicode="P" horiz-adv-x="1287" 
d="M1294 1076q0 -161 -68 -278.5t-207 -181.5t-347 -64h-262l-117 -552h-295l312 1466h467q271 0 394 -99.5t123 -290.5zM978 1057q0 76 -52.5 118.5t-155.5 42.5h-218l-89 -418h218q164 0 230.5 67.5t66.5 189.5z" />
    <glyph glyph-name="Q" unicode="Q" horiz-adv-x="1608" 
d="M64 596q0 252 110.5 456.5t304 321.5t430.5 117q184 0 328.5 -79t225 -220.5t80.5 -322.5q0 -218 -81 -395.5t-227 -308.5q46 -38 93.5 -66.5t104.5 -47.5l-137 -198q-72 23 -146 72.5t-135 109.5q-153 -60 -314 -60q-203 0 -346.5 77t-217 217t-73.5 327zM885 1237
q-152 0 -267.5 -80t-178.5 -224t-63 -328q0 -111 37.5 -196t111 -132.5t178.5 -47.5q64 0 119 15q-30 23 -74.5 47.5t-85.5 42.5l124 185q72 -27 137.5 -68.5t119.5 -87.5q90 86 139.5 214.5t49.5 283.5q0 111 -42 196.5t-120.5 132.5t-184.5 47z" />
    <glyph glyph-name="R" unicode="R" horiz-adv-x="1380" 
d="M1356 1086q0 -96 -43 -185.5t-136.5 -156.5t-237.5 -91l-1 -4q50 -20 88 -81.5t69 -173.5l109 -394h-309l-78 293q-23 86 -40 137.5t-33 79.5q-24 41 -49.5 62.5t-63.5 30.5t-100 9h-108l-130 -612h-295l312 1466h546q258 0 379 -91.5t121 -288.5zM1042 1080
q0 72 -50.5 105.5t-153.5 33.5h-286l-79 -373h251q160 0 239 54t79 180z" />
    <glyph glyph-name="S" unicode="S" horiz-adv-x="1323" 
d="M712 1247q-64 0 -114.5 -21.5t-79 -59.5t-28.5 -87q0 -38 26.5 -68t87.5 -55t170 -54q151 -40 240 -96t130 -141.5t41 -214.5q0 -135 -72.5 -243t-207 -170t-311.5 -62q-263 0 -414.5 124t-166.5 368l303 36q8 -135 79 -207.5t204 -72.5q130 0 201.5 56t71.5 152
q0 55 -25 90t-88 62.5t-184 58.5q-145 37 -230 91t-123 130.5t-38 185.5q0 120 68 221t191 161t281 60q174 0 293 -53t180 -148.5t68 -222.5l-302 -33q-11 112 -70 162.5t-181 50.5z" />
    <glyph glyph-name="T" unicode="T" horiz-adv-x="1243" 
d="M872 1218l-259 -1218h-295l259 1218h-424l53 248h1143l-53 -248h-424z" />
    <glyph glyph-name="U" unicode="U" horiz-adv-x="1462" 
d="M390 426q0 -101 59 -149t182 -48q110 0 182 46t115 134t73 227l176 830h294l-183 -862q-51 -240 -133 -376t-210.5 -194.5t-328.5 -58.5q-270 0 -396.5 110.5t-126.5 311.5q0 82 30 224l179 845h295l-186 -873q-11 -52 -16 -90t-5 -77z" />
    <glyph glyph-name="V" unicode="V" horiz-adv-x="1352" 
d="M588 366h4q64 143 121 247l460 853h331l-831 -1466h-308l-205 1466h304l107 -851q15 -118 17 -249z" />
    <glyph glyph-name="W" unicode="W" horiz-adv-x="1921" 
d="M450 425h4q35 98 86 205l395 836h352l30 -841q1 -23 1 -84.5t-3 -132.5h4q45 123 84 218l351 840h315l-663 -1466h-315l-46 951q-2 48 -2 92.5t4 93.5h-4q-39 -106 -74 -180l-450 -957h-322l-33 1466h296l-2 -835q0 -100 -8 -206z" />
    <glyph glyph-name="X" unicode="X" horiz-adv-x="1374" 
d="M726 965h4q33 53 104 143l284 358h362l-607 -722l340 -744h-341l-168 386q-28 65 -48 148h-4q-43 -63 -113 -149l-319 -385h-371l661 774l-302 692h328l143 -351q29 -69 47 -150z" />
    <glyph glyph-name="Y" unicode="Y" horiz-adv-x="1340" 
d="M684 862h4q65 97 150 208l301 396h362l-709 -852l-131 -614h-295l131 616l-346 850h324l143 -395q46 -127 66 -209z" />
    <glyph glyph-name="Z" unicode="Z" horiz-adv-x="1251" 
d="M287 248h823l-53 -248h-1189l57 266l962 952h-674l53 248h1073l-49 -231z" />
    <glyph glyph-name="bracketleft" unicode="[" 
d="M523 1245l-306 -1438h229l-47 -221h-498l400 1880h498l-47 -221h-229z" />
    <glyph glyph-name="backslash" unicode="\" horiz-adv-x="569" 
d="M211 -49l-61 1515h206l57 -1515h-202z" />
    <glyph glyph-name="bracketright" unicode="]" 
d="M-205 -414l47 221h229l306 1438h-229l47 221h498l-400 -1880h-498z" />
    <glyph glyph-name="asciicircum" unicode="^" horiz-adv-x="1196" 
d="M794 668l-96 489l-304 -489h-294l538 798h222l208 -798h-274z" />
    <glyph glyph-name="underscore" unicode="_" horiz-adv-x="1024" 
d="M-12 -256v102h1048v-102h-1048z" />
    <glyph glyph-name="grave" unicode="`" 
d="M415 1196l-211 295h313l77 -295h-179z" />
    <glyph glyph-name="a" unicode="a" horiz-adv-x="1126" 
d="M881 141q0 -58 22 -141h-271q-2 9 -9 35.5t-7 53.5l1 28q-85 -70 -170.5 -106t-155.5 -36q-160 0 -241.5 73t-81.5 205q0 149 112 245.5t344 131.5q198 30 282 58q10 47 10 74q0 61 -38 84.5t-113 23.5q-71 0 -125 -31.5t-91 -101.5l-248 39q51 107 112.5 174t149 101
t211.5 34q223 0 323 -75t100 -220q0 -56 -15 -127l-85 -401q-16 -75 -16 -121zM442 455q-186 -34 -186 -177q0 -50 30.5 -77t88.5 -27q69 0 134 35q45 24 70.5 50.5t43 71.5t34.5 126l11 51q-70 -23 -226 -53z" />
    <glyph glyph-name="b" unicode="b" horiz-adv-x="1253" 
d="M468 942q128 143 303 143q189 0 289 -114t100 -332q0 -177 -70 -329.5t-191.5 -243.5t-269.5 -91q-141 0 -222 44t-122 130h-4l-36 -149h-262l312 1466h281l-112 -524h4zM683 861q-88 0 -160.5 -50.5t-115.5 -145.5t-43 -223q0 -119 49.5 -181t139.5 -62q88 0 159.5 54.5
t112.5 153.5t41 226q0 109 -46 168.5t-137 59.5z" />
    <glyph glyph-name="c" unicode="c" horiz-adv-x="1127" 
d="M583 861q-83 0 -147.5 -59.5t-99.5 -158t-35 -211.5q0 -103 43.5 -165t131.5 -62q79 0 142 52.5t99 150.5l276 -48q-70 -200 -202.5 -292.5t-327.5 -92.5q-216 0 -335 111t-119 346q0 181 73.5 330t207.5 236t309 87q381 0 450 -342l-276 -50q-8 80 -56 124t-134 44z" />
    <glyph glyph-name="d" unicode="d" horiz-adv-x="1253" 
d="M958 0h-262l28 129h-4q-75 -78 -158.5 -116t-165.5 -38q-123 0 -209.5 53t-131.5 153.5t-45 242.5q0 177 75.5 329t203.5 242t276 90q205 0 303 -161h3l118 542h281zM625 861q-96 0 -170 -57.5t-114.5 -156.5t-40.5 -218q0 -109 47 -169.5t130 -60.5q104 0 178 56.5
t111.5 152.5t37.5 213q0 109 -47.5 174.5t-131.5 65.5z" />
    <glyph glyph-name="e" unicode="e" horiz-adv-x="1171" 
d="M289 380q0 -92 46 -141t130 -49q89 0 155.5 40.5t102.5 107.5l270 -44q-172 -319 -528 -319q-152 0 -254.5 51.5t-153 145t-50.5 220.5q0 180 77.5 339.5t218.5 256.5t321 97q140 0 241.5 -51t155 -143t53.5 -213q0 -87 -17 -166l-18 -76h-746q-4 -27 -4 -56zM337 641
h465q3 24 3 45q0 90 -47.5 137t-135.5 47q-94 0 -172 -60.5t-113 -168.5z" />
    <glyph glyph-name="f" unicode="f" 
d="M678 1276q-56 0 -87 -37.5t-48 -120.5l-12 -57h205l-48 -223h-205l-178 -838h-281l178 838h-155l48 223h154l20 99q25 124 66 194.5t114.5 103.5t198.5 33q58 0 120.5 -12t102.5 -27l-66 -201q-31 12 -65.5 18.5t-61.5 6.5z" />
    <glyph glyph-name="g" unicode="g" horiz-adv-x="1253" 
d="M1184 1061l-205 -964q-40 -190 -107.5 -304t-179 -168.5t-283.5 -54.5q-256 0 -375 92t-119 268l281 -47q1 -98 201 -98q116 0 190.5 63.5t106.5 211.5l18 84h-4q-61 -70 -140.5 -107t-155.5 -37q-198 0 -299 116.5t-101 325.5q0 176 74 323.5t202 233.5t284 86
q101 0 183 -49.5t127 -130.5h4l36 156h262zM612 861q-79 0 -149.5 -52t-113.5 -144.5t-43 -208.5q0 -109 45 -175t129 -66q88 0 163 56t119 150t44 204q0 105 -51 170.5t-143 65.5z" />
    <glyph glyph-name="h" unicode="h" horiz-adv-x="1219" 
d="M784 1085q100 0 167.5 -39t100 -100.5t32.5 -128.5q0 -79 -21 -175l-134 -642h-281l141 663q10 50 10 83q0 61 -31.5 92.5t-99.5 31.5q-72 0 -130.5 -39t-95.5 -104t-53 -139l-125 -588h-281l312 1466h281l-111 -522q69 68 151 104.5t168 36.5z" />
    <glyph glyph-name="i" unicode="i" horiz-adv-x="559" 
d="M239 1206l56 260h281l-56 -260h-281zM-17 0l226 1061h281l-226 -1061h-281z" />
    <glyph glyph-name="j" unicode="j" horiz-adv-x="562" 
d="M242 1206l55 260h281l-55 -260h-281zM-136 -430q-50 0 -102.5 9t-95.5 22l93 225q40 -8 72 -8q68 0 99.5 34.5t49.5 119.5l231 1089h281l-231 -1087q-33 -158 -83 -244t-125 -123t-189 -37z" />
    <glyph glyph-name="k" unicode="k" horiz-adv-x="1142" 
d="M812 1061h354l-446 -387l244 -674h-300l-161 493l-165 -143l-74 -350h-281l312 1466h281l-164 -765z" />
    <glyph glyph-name="l" unicode="l" horiz-adv-x="559" 
d="M-17 0l312 1466h281l-312 -1466h-281z" />
    <glyph glyph-name="m" unicode="m" horiz-adv-x="1800" 
d="M1382 1085q138 0 213 -74t75 -200q0 -59 -13 -120l-147 -691h-281l146 686q8 40 8 69q0 55 -27.5 85t-83.5 30q-60 0 -112.5 -34.5t-91.5 -99.5t-58 -156l-123 -580h-281l143 671q11 49 11 86q0 113 -107 113q-204 0 -266 -290l-123 -580h-281l226 1061h262l-29 -135h2
q79 81 159.5 120t182.5 39q200 0 255 -167q168 167 341 167z" />
    <glyph glyph-name="n" unicode="n" horiz-adv-x="1219" 
d="M789 663q10 50 10 83q0 61 -31 92.5t-100 31.5q-92 0 -168.5 -66.5t-110.5 -215.5l-125 -588h-281l226 1061h262l-30 -139q79 84 159.5 123.5t180.5 39.5q154 0 230 -76.5t76 -204.5q0 -60 -16 -136l-142 -668h-281z" />
    <glyph glyph-name="o" unicode="o" horiz-adv-x="1212" 
d="M11 422q0 184 79 335.5t222 239.5t322 88q160 0 268 -62t160.5 -164.5t52.5 -226.5q0 -194 -82 -343.5t-225.5 -231.5t-322.5 -82q-154 0 -260.5 55.5t-160 156t-53.5 235.5zM624 856q-85 0 -159 -52.5t-118.5 -147t-44.5 -215.5q0 -109 52 -172.5t142 -63.5
q92 0 167 53.5t117.5 147.5t42.5 213q0 108 -52.5 172.5t-146.5 64.5z" />
    <glyph glyph-name="p" unicode="p" horiz-adv-x="1253" 
d="M294 114h-5l-111 -520h-281l312 1467h262l-30 -138h5q62 81 138 121.5t185 40.5q114 0 202 -54t137 -154.5t49 -233.5q0 -194 -71 -346t-198.5 -237t-290.5 -85q-108 0 -180.5 31t-122.5 108zM695 861q-88 0 -165 -48.5t-124.5 -147.5t-47.5 -242q0 -105 49 -164.5
t138 -59.5q103 0 175.5 57.5t109.5 156t37 220.5q0 108 -45 168t-127 60z" />
    <glyph glyph-name="q" unicode="q" horiz-adv-x="1253" 
d="M1184 1061l-312 -1467h-281l109 509h-4q-137 -128 -314 -128q-181 0 -278.5 113.5t-97.5 330.5q0 181 70 333.5t197 242.5t290 90q113 0 196 -46.5t125 -133.5h5l33 156h262zM610 862q-86 0 -157 -55.5t-112 -155.5t-41 -227q0 -111 45.5 -172.5t133.5 -61.5
q91 0 165 53.5t116.5 150.5t42.5 223q0 124 -52.5 184.5t-140.5 60.5z" />
    <glyph glyph-name="r" unicode="r" horiz-adv-x="856" 
d="M660 831q-107 0 -182 -86t-108 -244l-106 -501h-281l226 1061h260l-32 -150h4q76 93 147.5 133.5t160.5 40.5q53 0 89 -12t77 -35l-124 -250q-17 14 -59 28.5t-72 14.5z" />
    <glyph glyph-name="s" unicode="s" horiz-adv-x="1049" 
d="M531 885q-73 0 -115.5 -28.5t-42.5 -74.5q0 -29 16.5 -50t59 -38t122.5 -31q126 -22 199.5 -64t104.5 -105t31 -153q0 -103 -59.5 -186.5t-169.5 -131.5t-256 -48q-232 0 -336 86.5t-111 241.5l272 42q0 -85 42 -127t148 -42q88 0 135.5 36t47.5 93q0 40 -37 66t-139 42
q-189 30 -271 111t-82 206q0 99 52 180t153.5 128t244.5 47q190 0 297 -72.5t131 -211.5l-276 -39q-6 56 -46 89.5t-115 33.5z" />
    <glyph glyph-name="t" unicode="t" horiz-adv-x="713" 
d="M719 1061l-47 -223h-198l-110 -517q-9 -39 -9 -62q0 -28 14.5 -39t49.5 -11q53 0 114 16l-11 -217q-49 -15 -102.5 -24t-101.5 -9q-136 0 -194.5 52.5t-58.5 155.5q0 56 25 174l103 481h-150l47 223h150l41 194l324 199l-84 -393h198z" />
    <glyph glyph-name="u" unicode="u" horiz-adv-x="1219" 
d="M344 398q-10 -50 -10 -83q0 -61 31 -92.5t100 -31.5q88 0 166.5 62.5t112.5 219.5l125 588h281l-226 -1061h-262l30 139q-79 -84 -159.5 -123.5t-180.5 -39.5q-154 0 -230 76.5t-76 204.5q0 60 16 136l142 668h281z" />
    <glyph glyph-name="v" unicode="v" horiz-adv-x="1124" 
d="M468 341l4 -1q55 109 96 180l303 541h303l-638 -1061h-254l-192 1061h285l76 -542q13 -90 17 -178z" />
    <glyph glyph-name="w" unicode="w" horiz-adv-x="1611" 
d="M1657 1061l-556 -1061h-270l-27 539q-3 57 -3 175h-4q-46 -119 -73 -175l-255 -539h-273l-102 1061h272l27 -518q3 -57 5 -196h4q54 130 86 198l243 516h272l20 -524q2 -63 2 -190h4q52 123 83 189l255 525h290z" />
    <glyph glyph-name="x" unicode="x" horiz-adv-x="1126" 
d="M548 753h4q54 70 79 103.5t46 57.5l124 147h338l-452 -502l259 -559h-319l-85 210q-33 78 -47 139h-4q-40 -62 -110 -144l-170 -205h-343l484 547l-241 514h327l57 -146q26 -66 53 -162z" />
    <glyph glyph-name="y" unicode="y" horiz-adv-x="1139" 
d="M468 307h4q54 110 72 143l334 611h301l-640 -1092q-101 -173 -174 -257.5t-143 -113t-174 -28.5q-54 0 -101 6t-111 21l93 215q57 -19 95 -19q51 0 87 16t72 59.5t84 129.5l-180 1063h289l79 -604q8 -57 10.5 -100t2.5 -50z" />
    <glyph glyph-name="z" unicode="z" horiz-adv-x="1030" 
d="M326 248h557l-53 -248h-948l47 219l654 608h-486l50 234h876l-43 -199z" />
    <glyph glyph-name="braceleft" unicode="{" horiz-adv-x="797" 
d="M428 310q0 -63 -23 -176l-20 -99q-20 -100 -20 -138q0 -52 28.5 -71.5t101.5 -19.5h49l-50 -236h-61q-176 0 -255.5 67t-79.5 204q0 71 21 168l24 114q16 71 16 128q0 83 -41 120.5t-131 37.5l52 244q78 0 132 29t89 91.5t57 165.5l29 140q33 157 82 244t138.5 127.5
t243.5 40.5h92l-50 -236h-49q-72 0 -108.5 -18.5t-57.5 -64.5t-42 -146l-21 -98q-24 -113 -54.5 -184t-85.5 -122.5t-148 -90.5q77 -40 109.5 -92t32.5 -129z" />
    <glyph glyph-name="bar" unicode="|" horiz-adv-x="575" 
d="M176 -403v1869h223v-1869h-223z" />
    <glyph glyph-name="braceright" unicode="}" horiz-adv-x="797" 
d="M283 751q0 63 23 176l20 99q20 100 20 138q0 52 -28.5 71.5t-101.5 19.5h-49l50 236h61q176 0 255.5 -67t79.5 -204q0 -70 -21 -168l-24 -114q-16 -71 -16 -128q0 -83 41 -120.5t131 -37.5l-52 -244q-78 0 -132 -29t-89 -91.5t-57 -165.5l-29 -140q-33 -157 -82 -244
t-138.5 -127.5t-243.5 -40.5h-92l50 236h49q72 0 108.5 18t57.5 63t42 148l21 98q24 113 54.5 184t85.5 122.5t148 90.5q-77 40 -109.5 92t-32.5 129z" />
    <glyph glyph-name="asciitilde" unicode="~" horiz-adv-x="1196" 
d="M793 526q-103 0 -227 68q-69 38 -118 53t-108 15q-144 0 -299 -140l53 279q70 65 144.5 92t160.5 27q109 0 247 -68q76 -38 121.5 -53t88.5 -15q50 0 125.5 32.5t169.5 111.5l-59 -289q-19 -20 -67.5 -47t-110.5 -46.5t-121 -19.5z" />
    <glyph glyph-name="uni007F" horiz-adv-x="0" 
 />
    <glyph glyph-name="uni00A0" unicode="&#xa0;" horiz-adv-x="512" 
 />
    <glyph glyph-name="exclamdown" unicode="&#xa1;" 
d="M555 1061l-61 -288h-288l61 288h288zM249 682h162l-86 -743l-73 -345h-306l73 345z" />
    <glyph glyph-name="cent" unicode="&#xa2;" horiz-adv-x="1163" 
d="M741 789l-300 -581q17 -3 35 -3q79 0 142 52.5t99 150.5l276 -48q-70 -200 -202.5 -292.5t-327.5 -92.5q-75 0 -136 13l-201 -391l-108 49l196 380q-205 103 -205 406q0 181 73.5 330t207.5 236t309 87q82 0 152 -17l200 388l108 -49l-197 -382q146 -84 187 -282
l-276 -50q-6 56 -32 96zM341 272l300 583q-26 6 -58 6q-83 0 -147.5 -59.5t-99.5 -158t-35 -211.5q0 -103 40 -160z" />
    <glyph glyph-name="sterling" unicode="&#xa3;" horiz-adv-x="1163" 
d="M707 1239q-68 0 -116.5 -35t-74 -97t-25.5 -140q0 -90 8 -147h311l-43 -204h-265q-5 -112 -60 -201.5t-169 -156.5l3 -4q53 29 143 29q25 0 60.5 -7t99.5 -22q52 -12 84.5 -18.5t52.5 -6.5q80 0 215 56l60 -237q-75 -35 -152 -54t-141 -19q-92 0 -228 43t-216 43
q-63 0 -127.5 -20.5t-138.5 -65.5l-56 242l2 1q119 65 199.5 169t84.5 229h-201l43 204h153q-3 24 -5 58.5t-2 57.5q0 162 59.5 283t173.5 187.5t272 66.5q204 0 317.5 -101.5t127.5 -285.5l-275 -39q-10 192 -174 192z" />
    <glyph glyph-name="currency" unicode="&#xa4;" horiz-adv-x="1163" 
d="M581 1171q62 0 117.5 -14t99.5 -43l136 135l167 -170l-133 -133q58 -109 58 -217q0 -113 -58 -219l133 -133l-165 -170l-138 135q-46 -27 -101 -42t-116 -15q-113 0 -215 55l-131 -131l-170 170l131 131q-57 104 -57 218q0 116 52 213l1 1l-131 129l166 178l135 -135
q97 57 219 57zM580 930q-52 0 -98 -27.5t-73.5 -74t-27.5 -99.5t27 -100t73 -75t100 -28t100.5 28t74.5 74.5t28 100.5t-28.5 100.5t-75.5 73.5t-100 27z" />
    <glyph glyph-name="yen" unicode="&#xa5;" horiz-adv-x="1163" 
d="M55 622l33 155h300l-218 669h293l116 -404q11 -41 16.5 -74t5.5 -69h4q28 65 84 143l286 404h321l-507 -669h305l-33 -155h-366l-29 -135h366l-33 -155h-366l-71 -332h-280l71 332h-360l33 155h360l29 135h-360z" />
    <glyph glyph-name="brokenbar" unicode="&#xa6;" horiz-adv-x="575" 
d="M176 700v766h223v-766h-223zM176 -403v765h223v-765h-223z" />
    <glyph glyph-name="section" unicode="&#xa7;" horiz-adv-x="1139" 
d="M666 1276q-62 0 -96.5 -34.5t-34.5 -88.5q0 -31 18 -58.5t55 -54.5q69 -50 217 -166q71 -56 114 -107.5t64 -112.5t21 -140q0 -105 -63 -188t-195 -154q29 -35 47 -91t18 -122q0 -123 -59.5 -211t-166 -133t-245.5 -45q-141 0 -237 45.5t-143.5 127t-47.5 189.5l273 34
q0 -87 44.5 -134t123.5 -47q45 0 83 17.5t60.5 49t22.5 71.5q0 45 -39 88q-21 24 -62 56t-126 94q-107 78 -168 141t-85.5 117.5t-24.5 112.5q0 135 71.5 236t195.5 165q-30 37 -43 88t-13 120q0 91 51 171t148.5 129.5t228.5 49.5q203 0 305 -87t107 -249l-273 -34
q0 155 -146 155zM754 473q0 30 -16.5 60t-56.5 63l-247 206q-56 -31 -90.5 -74.5t-34.5 -96.5q0 -41 25 -83t87 -89l210 -158q59 37 91 81.5t32 90.5z" />
    <glyph glyph-name="dieresis" unicode="&#xa8;" 
d="M108 1225l51 241h242l-51 -241h-242zM540 1225l51 241h242l-51 -241h-242z" />
    <glyph glyph-name="copyright" unicode="&#xa9;" horiz-adv-x="1614" 
d="M807 1492q209 0 385 -103.5t279 -279.5t103 -385t-103 -384.5t-279 -278.5t-385 -103t-385 103t-279 278.5t-103 384.5t103 385t279 279.5t385 103.5zM807 108q168 0 309.5 83t224.5 224.5t83 309.5t-83 309.5t-224.5 224.5t-309.5 83t-309.5 -83t-224.5 -224.5
t-83 -309.5t83 -309.5t224.5 -224.5t309.5 -83zM813 1023q-100 0 -153.5 -76t-53.5 -208q0 -136 55 -209.5t152 -73.5q64 0 107 38.5t71 128.5l162 -51q-36 -124 -123.5 -192t-212.5 -68q-110 0 -198 49.5t-138.5 145t-50.5 227.5q0 129 46.5 227t132.5 151.5t200 53.5
q130 0 217.5 -60t126.5 -181l-162 -45q-22 69 -67.5 106t-110.5 37z" />
    <glyph glyph-name="ordfeminine" unicode="&#xaa;" horiz-adv-x="794" 
d="M731 837q0 -44 14 -79h-202q-6 23 -6 79q-59 -46 -118.5 -72t-112.5 -26q-102 0 -155 50.5t-53 136.5q0 110 68.5 168t211.5 81t219 52q4 17 4 37q0 71 -87 71q-55 0 -87.5 -20t-51.5 -59l-181 34q45 103 120.5 152t205.5 49q147 0 215.5 -55.5t68.5 -161.5
q0 -39 -11 -96l-45 -213q-17 -76 -17 -128zM437 1064q-60 -11 -93 -41t-33 -70q0 -32 18 -50.5t46 -18.5q74 0 121 44.5t63 116.5l12 56q-32 -19 -134 -37z" />
    <glyph glyph-name="guillemotleft" unicode="&#xab;" horiz-adv-x="1104" 
d="M481 70h-201l-237 465l401 448h231l-359 -451zM903 70h-201l-237 465l401 448h231l-359 -451z" />
    <glyph glyph-name="logicalnot" unicode="&#xac;" horiz-adv-x="1196" 
d="M836 373v438h-750v264h1014v-702h-264z" />
    <glyph glyph-name="uni00AD" unicode="&#xad;" horiz-adv-x="741" 
d="M22 391l60 281h551l-60 -281h-551z" />
    <glyph glyph-name="registered" unicode="&#xae;" horiz-adv-x="1614" 
d="M807 1492q209 0 385 -103.5t279 -279.5t103 -385t-103 -384.5t-279 -278.5t-385 -103t-385 103t-279 278.5t-103 384.5t103 385t279 279.5t385 103.5zM807 108q168 0 309.5 83t224.5 224.5t83 309.5t-83 309.5t-224.5 224.5t-309.5 83t-309.5 -83t-224.5 -224.5
t-83 -309.5t83 -309.5t224.5 -224.5t309.5 -83zM1128 911q0 -87 -58.5 -151t-160.5 -80q43 -17 70.5 -42.5t55.5 -71.5l143 -241h-198l-97 182q-31 58 -57 90t-59.5 47t-83.5 15h-46v-334h-168v813h368q147 0 219 -56t72 -171zM952 901q0 54 -37 81t-117 27h-161v-221h163
q152 0 152 113z" />
    <glyph glyph-name="macron" unicode="&#xaf;" horiz-adv-x="1024" 
d="M-12 1621v102h1048v-102h-1048z" />
    <glyph glyph-name="degree" unicode="&#xb0;" horiz-adv-x="820" 
d="M410 1473q86 0 159 -43t116 -116t43 -159t-43 -159.5t-116 -116t-159 -42.5t-159 42.5t-116 116t-43 159.5t43 159t116 116t159 43zM410 1001q42 0 77.5 20.5t56 56t20.5 77.5t-20.5 77.5t-56 56t-77.5 20.5t-77.5 -20.5t-56 -56t-20.5 -77.5t20.5 -77.5t56 -56
t77.5 -20.5z" />
    <glyph glyph-name="plusminus" unicode="&#xb1;" horiz-adv-x="1196" 
d="M1110 999v-262h-381v-383h-262v383h-381v262h381v381h262v-381h381zM86 0v262h1024v-262h-1024z" />
    <glyph glyph-name="uni00B2" unicode="&#xb2;" 
d="M19 705q35 108 109 191t225 174q80 48 119.5 78t54 55t14.5 54q0 31 -21 48.5t-57 17.5q-47 0 -79.5 -29t-49.5 -85v-1l-185 16q30 121 112 181.5t209 60.5q132 0 200.5 -56t68.5 -157q0 -74 -50 -136t-175 -131q-128 -71 -177 -123h322l-34 -158h-606z" />
    <glyph glyph-name="uni00B3" unicode="&#xb3;" 
d="M683 959q0 -87 -44 -149t-119.5 -93.5t-169.5 -31.5q-144 0 -206 60.5t-62 170.5l178 19q0 -50 23.5 -78.5t72.5 -28.5q60 0 95.5 33.5t35.5 86.5q0 91 -98 91q-36 0 -66 -6l48 137q88 0 123 26t35 73q0 24 -20 39t-54 15q-82 0 -117 -100l-168 25q38 112 108.5 165
t191.5 53q114 0 182.5 -48t68.5 -134q0 -56 -30 -96t-102 -75q43 -17 68.5 -55t25.5 -99z" />
    <glyph glyph-name="acute" unicode="&#xb4;" 
d="M284 1196l200 295h316l-334 -295h-182z" />
    <glyph glyph-name="mu" unicode="&#xb5;" horiz-adv-x="1247" 
d="M350 364q0 -81 39.5 -123t115.5 -42q95 0 165.5 65t96.5 187l130 610h280l-225 -1061h-262l27 129q-119 -154 -248 -154q-71 0 -113.5 34t-64.5 120l-113 -532h-281l311 1464h281l-128 -601q-11 -55 -11 -96z" />
    <glyph glyph-name="paragraph" unicode="&#xb6;" horiz-adv-x="1139" 
d="M1120 1236l-349 -1639h-238l349 1639h-149l-349 -1639h-238l223 1046q-139 12 -212 102.5t-73 259.5q0 136 60 239.5t189 162.5t329 59h619l-49 -230h-112z" />
    <glyph glyph-name="periodcentered" unicode="&#xb7;" horiz-adv-x="568" 
d="M106 575l61 288h288l-61 -288h-288z" />
    <glyph glyph-name="cedilla" unicode="&#xb8;" 
d="M-18 -292q79 0 120 15.5t41 51.5q0 22 -19 33.5t-48 11.5q-32 0 -63 -7l96 210h140l-49 -108q92 -8 136 -42.5t44 -106.5q0 -90 -91.5 -143t-279.5 -53q-97 0 -179 11l43 135q56 -8 109 -8z" />
    <glyph glyph-name="uni00B9" unicode="&#xb9;" 
d="M299 705l111 522q-59 -40 -120 -66t-117 -37l33 153q95 24 174 75.5t118 113.5h154l-162 -761h-191z" />
    <glyph glyph-name="ordmasculine" unicode="&#xba;" horiz-adv-x="851" 
d="M127 1042q0 124 54.5 226.5t153 162t221.5 59.5q111 0 185 -41.5t109.5 -111t35.5 -153.5q0 -132 -56 -232.5t-154.5 -156t-222.5 -55.5q-159 0 -242.5 81.5t-83.5 220.5zM545 1324q-53 0 -100 -33.5t-75 -94.5t-28 -138q0 -70 32.5 -111t89.5 -41q59 0 106 34t74 94.5
t27 136.5q0 70 -33 111.5t-93 41.5z" />
    <glyph glyph-name="guillemotright" unicode="&#xbb;" horiz-adv-x="1103" 
d="M115 983h201l237 -465l-401 -448h-231l359 451zM537 983h201l237 -465l-401 -448h-231l359 451z" />
    <glyph glyph-name="onequarter" unicode="&#xbc;" horiz-adv-x="1622" 
d="M299 705l111 522q-59 -40 -120 -66t-117 -37l33 153q95 24 174 75.5t118 113.5h154l-162 -761h-191zM157 -25l1179 1498h165l-1179 -1498h-165zM1499 281l-31 -146h-105l-29 -135h-184l29 135h-346l30 141l474 485h159l-102 -480h105zM1258 508l-226 -227h178z" />
    <glyph glyph-name="onehalf" unicode="&#xbd;" horiz-adv-x="1622" 
d="M299 705l111 522q-59 -40 -120 -66t-117 -37l33 153q95 24 174 75.5t118 113.5h154l-162 -761h-191zM127 -25l1179 1498h165l-1179 -1498h-165zM809 0q35 108 109 191t225 174q80 48 119.5 78t54 55t14.5 54q0 31 -21 48.5t-57 17.5q-47 0 -79.5 -29t-49.5 -85v-1
l-185 16q30 121 112 181.5t209 60.5q132 0 200.5 -56t68.5 -157q0 -74 -50 -136t-175 -131q-128 -71 -177 -123h322l-34 -158h-606z" />
    <glyph glyph-name="threequarters" unicode="&#xbe;" horiz-adv-x="1622" 
d="M683 959q0 -87 -44 -149t-119.5 -93.5t-169.5 -31.5q-144 0 -206 60.5t-62 170.5l178 19q0 -50 23.5 -78.5t72.5 -28.5q60 0 95.5 33.5t35.5 86.5q0 91 -98 91q-36 0 -66 -6l48 137q88 0 123 26t35 73q0 24 -20 39t-54 15q-82 0 -117 -100l-168 25q38 112 108.5 165
t191.5 53q114 0 182.5 -48t68.5 -134q0 -56 -30 -96t-102 -75q43 -17 68.5 -55t25.5 -99zM187 -25l1179 1498h165l-1179 -1498h-165zM1499 281l-31 -146h-105l-29 -135h-184l29 135h-346l30 141l474 485h159l-102 -480h105zM1258 508l-226 -227h178z" />
    <glyph glyph-name="questiondown" unicode="&#xbf;" horiz-adv-x="1115" 
d="M805 1061l-62 -288h-288l62 288h288zM702 652q-21 -105 -54 -181.5t-88 -139t-142 -121.5q-79 -54 -123 -94t-64.5 -78t-20.5 -83q0 -71 45 -110.5t123 -39.5q89 0 150 58t105 178l255 -32q-60 -204 -195 -319t-339 -115q-139 0 -235.5 47.5t-145 130t-48.5 187.5
q0 97 32.5 164.5t96.5 126t193 150.5q74 52 110.5 88.5t55 76.5t33.5 109l6 27h256z" />
    <glyph glyph-name="Agrave" unicode="&#xc0;" horiz-adv-x="1460" 
d="M992 0l-56 332h-566l-192 -332h-330l883 1466h293l276 -1466h-308zM704 911l-191 -331h381l-53 331q-16 102 -16 240h-8q-44 -122 -113 -240zM876 1567l-196 295h320l62 -295h-186z" />
    <glyph glyph-name="Aacute" unicode="&#xc1;" horiz-adv-x="1460" 
d="M992 0l-56 332h-566l-192 -332h-330l883 1466h293l276 -1466h-308zM704 911l-191 -331h381l-53 331q-16 102 -16 240h-8q-44 -122 -113 -240zM738 1567l185 295h331l-319 -295h-197z" />
    <glyph glyph-name="Acircumflex" unicode="&#xc2;" horiz-adv-x="1460" 
d="M992 0l-56 332h-566l-192 -332h-330l883 1466h293l276 -1466h-308zM704 911l-191 -331h381l-53 331q-16 102 -16 240h-8q-44 -122 -113 -240zM1023 1567l-84 140l-144 -140h-247l283 295h258l157 -295h-223z" />
    <glyph glyph-name="Atilde" unicode="&#xc3;" horiz-adv-x="1460" 
d="M992 0l-56 332h-566l-192 -332h-330l883 1466h293l276 -1466h-308zM704 911l-191 -331h381l-53 331q-16 102 -16 240h-8q-44 -122 -113 -240zM1067 1588q-47 0 -87 11t-89 35q-32 16 -56.5 23.5t-43.5 7.5q-33 0 -54.5 -21t-25.5 -65v-2h-154l1 5q28 138 91 206.5
t154 68.5q44 0 80 -10.5t77 -32.5q36 -18 60.5 -26t55.5 -8q28 0 51 22t32 65h154q-25 -139 -89.5 -209t-156.5 -70z" />
    <glyph glyph-name="Adieresis" unicode="&#xc4;" horiz-adv-x="1460" 
d="M992 0l-56 332h-566l-192 -332h-330l883 1466h293l276 -1466h-308zM704 911l-191 -331h381l-53 331q-16 102 -16 240h-8q-44 -122 -113 -240zM559 1596l53 251h252l-53 -251h-252zM989 1596l53 251h252l-53 -251h-252z" />
    <glyph glyph-name="Aring" unicode="&#xc5;" horiz-adv-x="1460" 
d="M687 1595q0 57 26.5 101.5t71.5 69.5t99 25q53 0 97.5 -25t71 -69.5t26.5 -101.5q0 -39 -14.5 -74t-39.5 -61l275 -1460h-308l-56 332h-566l-192 -332h-330l884 1470q-45 53 -45 125zM883 1685q-40 0 -64.5 -25.5t-24.5 -64.5t24.5 -63.5t65.5 -24.5q39 0 63.5 24
t24.5 64q0 38 -24.5 64t-64.5 26zM704 911l-191 -331h381l-53 331q-16 102 -16 240h-8q-44 -122 -113 -240z" />
    <glyph glyph-name="AE" unicode="&#xc6;" horiz-adv-x="2069" 
d="M1368 1218l-71 -335h616l-53 -248h-616l-82 -387h706l-53 -248h-996l71 332h-494l-217 -332h-347l996 1466h1264l-53 -248h-671zM944 580l138 648h-110l-422 -648h394z" />
    <glyph glyph-name="Ccedilla" unicode="&#xc7;" horiz-adv-x="1485" 
d="M382 -292q79 0 120 15.5t41 51.5q0 22 -19 33.5t-48 11.5q-31 0 -63 -7l80 176q-212 40 -321 195t-109 413q0 251 108 455.5t289.5 321.5t392.5 117q252 0 403.5 -110t188.5 -320l-297 -70q-18 116 -86.5 181t-204.5 65q-142 0 -252.5 -89.5t-171 -237.5t-60.5 -318
q0 -179 71 -271t214 -92t242 70.5t165 226.5l289 -69q-92 -236 -265.5 -359t-437.5 -123l-24 1l-27 -61q92 -8 136 -42.5t44 -106.5q0 -90 -91.5 -143t-279.5 -53q-96 0 -179 11l43 135q56 -8 109 -8z" />
    <glyph glyph-name="Egrave" unicode="&#xc8;" horiz-adv-x="1253" 
d="M552 1218l-71 -335h616l-53 -248h-616l-82 -387h706l-53 -248h-1001l312 1466h966l-53 -248h-671zM777 1567l-196 295h320l62 -295h-186z" />
    <glyph glyph-name="Eacute" unicode="&#xc9;" horiz-adv-x="1253" 
d="M552 1218l-71 -335h616l-53 -248h-616l-82 -387h706l-53 -248h-1001l312 1466h966l-53 -248h-671zM663 1567l185 295h331l-319 -295h-197z" />
    <glyph glyph-name="Ecircumflex" unicode="&#xca;" horiz-adv-x="1253" 
d="M552 1218l-71 -335h616l-53 -248h-616l-82 -387h706l-53 -248h-1001l312 1466h966l-53 -248h-671zM942 1567l-84 140l-144 -140h-247l283 295h258l157 -295h-223z" />
    <glyph glyph-name="Edieresis" unicode="&#xcb;" horiz-adv-x="1253" 
d="M552 1218l-71 -335h616l-53 -248h-616l-82 -387h706l-53 -248h-1001l312 1466h966l-53 -248h-671zM493 1596l53 251h252l-53 -251h-252zM923 1596l53 251h252l-53 -251h-252z" />
    <glyph glyph-name="Igrave" unicode="&#xcc;" horiz-adv-x="603" 
d="M-2 0l312 1466h295l-312 -1466h-295zM441 1567l-196 295h320l62 -295h-186z" />
    <glyph glyph-name="Iacute" unicode="&#xcd;" horiz-adv-x="603" 
d="M-2 0l312 1466h295l-312 -1466h-295zM326 1567l185 295h331l-319 -295h-197z" />
    <glyph glyph-name="Icircumflex" unicode="&#xce;" horiz-adv-x="603" 
d="M-2 0l312 1466h295l-312 -1466h-295zM606 1567l-84 140l-144 -140h-247l283 295h258l157 -295h-223z" />
    <glyph glyph-name="Idieresis" unicode="&#xcf;" horiz-adv-x="603" 
d="M-2 0l312 1466h295l-312 -1466h-295zM144 1596l53 251h252l-53 -251h-252zM574 1596l53 251h252l-53 -251h-252z" />
    <glyph glyph-name="Eth" unicode="&#xd0;" horiz-adv-x="1471" 
d="M1411 865q0 -237 -85 -432.5t-268 -314t-461 -118.5h-599l134 629h-152l44 205h151l135 632h499q309 0 455.5 -145.5t146.5 -455.5zM1103 903q0 168 -77 241.5t-241 73.5h-233l-82 -384h314l-44 -205h-313l-81 -381h237q250 0 385 161t135 494z" />
    <glyph glyph-name="Ntilde" unicode="&#xd1;" horiz-adv-x="1469" 
d="M1196 1466h275l-312 -1466h-277l-400 996l-209 -996h-275l312 1466h267l405 -1019zM1080 1588q-47 0 -87 11t-89 35q-32 16 -56.5 23.5t-43.5 7.5q-33 0 -54.5 -21t-25.5 -65v-2h-154l1 5q28 138 91 206.5t154 68.5q44 0 80 -10.5t77 -32.5q36 -18 60.5 -26t55.5 -8
q28 0 51 22t32 65h154q-25 -139 -89.5 -209t-156.5 -70z" />
    <glyph glyph-name="Ograve" unicode="&#xd2;" horiz-adv-x="1608" 
d="M64 596q0 252 110.5 456.5t304 321.5t430.5 117q184 0 328.5 -79t225 -220.5t80.5 -322.5q0 -260 -112.5 -463.5t-305.5 -317t-424 -113.5q-203 0 -346.5 77t-217 217t-73.5 327zM885 1237q-152 0 -267.5 -80t-178.5 -224t-63 -328q0 -111 37.5 -196.5t111 -132.5
t178.5 -47q154 0 274.5 81.5t187.5 225.5t67 325q0 111 -42 196.5t-120.5 132.5t-184.5 47zM936 1567l-196 295h320l62 -295h-186z" />
    <glyph glyph-name="Oacute" unicode="&#xd3;" horiz-adv-x="1608" 
d="M64 596q0 252 110.5 456.5t304 321.5t430.5 117q184 0 328.5 -79t225 -220.5t80.5 -322.5q0 -260 -112.5 -463.5t-305.5 -317t-424 -113.5q-203 0 -346.5 77t-217 217t-73.5 327zM885 1237q-152 0 -267.5 -80t-178.5 -224t-63 -328q0 -111 37.5 -196.5t111 -132.5
t178.5 -47q154 0 274.5 81.5t187.5 225.5t67 325q0 111 -42 196.5t-120.5 132.5t-184.5 47zM822 1567l185 295h331l-319 -295h-197z" />
    <glyph glyph-name="Ocircumflex" unicode="&#xd4;" horiz-adv-x="1608" 
d="M64 596q0 252 110.5 456.5t304 321.5t430.5 117q184 0 328.5 -79t225 -220.5t80.5 -322.5q0 -260 -112.5 -463.5t-305.5 -317t-424 -113.5q-203 0 -346.5 77t-217 217t-73.5 327zM885 1237q-152 0 -267.5 -80t-178.5 -224t-63 -328q0 -111 37.5 -196.5t111 -132.5
t178.5 -47q154 0 274.5 81.5t187.5 225.5t67 325q0 111 -42 196.5t-120.5 132.5t-184.5 47zM1101 1567l-84 140l-144 -140h-247l283 295h258l157 -295h-223z" />
    <glyph glyph-name="Otilde" unicode="&#xd5;" horiz-adv-x="1608" 
d="M64 596q0 252 110.5 456.5t304 321.5t430.5 117q184 0 328.5 -79t225 -220.5t80.5 -322.5q0 -260 -112.5 -463.5t-305.5 -317t-424 -113.5q-203 0 -346.5 77t-217 217t-73.5 327zM885 1237q-152 0 -267.5 -80t-178.5 -224t-63 -328q0 -111 37.5 -196.5t111 -132.5
t178.5 -47q154 0 274.5 81.5t187.5 225.5t67 325q0 111 -42 196.5t-120.5 132.5t-184.5 47zM1148 1588q-47 0 -87 11t-89 35q-32 16 -56.5 23.5t-43.5 7.5q-33 0 -54.5 -21t-25.5 -65v-2h-154l1 5q28 138 91 206.5t154 68.5q44 0 80 -10.5t77 -32.5q36 -18 60.5 -26t55.5 -8
q28 0 51 22t32 65h154q-25 -139 -89.5 -209t-156.5 -70z" />
    <glyph glyph-name="Odieresis" unicode="&#xd6;" horiz-adv-x="1608" 
d="M64 596q0 252 110.5 456.5t304 321.5t430.5 117q184 0 328.5 -79t225 -220.5t80.5 -322.5q0 -260 -112.5 -463.5t-305.5 -317t-424 -113.5q-203 0 -346.5 77t-217 217t-73.5 327zM885 1237q-152 0 -267.5 -80t-178.5 -224t-63 -328q0 -111 37.5 -196.5t111 -132.5
t178.5 -47q154 0 274.5 81.5t187.5 225.5t67 325q0 111 -42 196.5t-120.5 132.5t-184.5 47zM638 1596l53 251h252l-53 -251h-252zM1068 1596l53 251h252l-53 -251h-252z" />
    <glyph glyph-name="multiply" unicode="&#xd7;" horiz-adv-x="1196" 
d="M902 1210l180 -182l-301 -303l305 -303l-186 -186l-305 305l-301 -303l-182 182l303 301l-305 305l186 184l303 -303z" />
    <glyph glyph-name="Oslash" unicode="&#xd8;" horiz-adv-x="1608" 
d="M64 596q0 252 110.5 456.5t304 321.5t430.5 117q121 0 226.5 -35t187.5 -101l184 181l117 -118l-188 -185q52 -76 79.5 -168.5t27.5 -195.5q0 -260 -112.5 -463.5t-305.5 -317t-424 -113.5q-257 0 -418 122l-187 -185l-117 119l189 186q-104 154 -104 379zM399 445
l719 708q-44 40 -103.5 62t-129.5 22q-152 0 -267.5 -80t-178.5 -224t-63 -328q0 -86 23 -160zM1209 1009l-718 -707q84 -73 212 -73q154 0 274.5 81.5t187.5 225.5t67 325q0 81 -23 148z" />
    <glyph glyph-name="Ugrave" unicode="&#xd9;" horiz-adv-x="1462" 
d="M390 426q0 -101 59 -149t182 -48q110 0 182 46t115 134t73 227l176 830h294l-183 -862q-51 -240 -133 -376t-210.5 -194.5t-328.5 -58.5q-270 0 -396.5 110.5t-126.5 311.5q0 82 30 224l179 845h295l-186 -873q-11 -52 -16 -90t-5 -77zM871 1567l-196 295h320l62 -295
h-186z" />
    <glyph glyph-name="Uacute" unicode="&#xda;" horiz-adv-x="1462" 
d="M390 426q0 -101 59 -149t182 -48q110 0 182 46t115 134t73 227l176 830h294l-183 -862q-51 -240 -133 -376t-210.5 -194.5t-328.5 -58.5q-270 0 -396.5 110.5t-126.5 311.5q0 82 30 224l179 845h295l-186 -873q-11 -52 -16 -90t-5 -77zM758 1567l185 295h331l-319 -295
h-197z" />
    <glyph glyph-name="Ucircumflex" unicode="&#xdb;" horiz-adv-x="1462" 
d="M390 426q0 -101 59 -149t182 -48q110 0 182 46t115 134t73 227l176 830h294l-183 -862q-51 -240 -133 -376t-210.5 -194.5t-328.5 -58.5q-270 0 -396.5 110.5t-126.5 311.5q0 82 30 224l179 845h295l-186 -873q-11 -52 -16 -90t-5 -77zM1036 1567l-84 140l-144 -140h-247
l283 295h258l157 -295h-223z" />
    <glyph glyph-name="Udieresis" unicode="&#xdc;" horiz-adv-x="1462" 
d="M390 426q0 -101 59 -149t182 -48q110 0 182 46t115 134t73 227l176 830h294l-183 -862q-51 -240 -133 -376t-210.5 -194.5t-328.5 -58.5q-270 0 -396.5 110.5t-126.5 311.5q0 82 30 224l179 845h295l-186 -873q-11 -52 -16 -90t-5 -77zM576 1596l53 251h252l-53 -251
h-252zM1006 1596l53 251h252l-53 -251h-252z" />
    <glyph glyph-name="Yacute" unicode="&#xdd;" horiz-adv-x="1340" 
d="M684 862h4q65 97 150 208l301 396h362l-709 -852l-131 -614h-295l131 616l-346 850h324l143 -395q46 -127 66 -209zM694 1567l185 295h331l-319 -295h-197z" />
    <glyph glyph-name="Thorn" unicode="&#xde;" horiz-adv-x="1287" 
d="M718 1189q275 0 396 -101t121 -289q0 -161 -68 -278.5t-207 -181.5t-347 -64h-262l-58 -275h-295l312 1466h295l-60 -277h173zM919 780q0 76 -52.5 118.5t-155.5 42.5h-218l-89 -418h218q163 0 230 67t67 190z" />
    <glyph glyph-name="germandbls" unicode="&#xdf;" horiz-adv-x="1246" 
d="M935 687q72 -87 117 -169.5t45 -172.5q0 -115 -48.5 -198.5t-139.5 -127.5t-216 -44q-104 0 -169.5 20t-103.5 59t-62 102l241 123q12 -40 34 -60t58 -20q46 0 78 32t32 85q0 44 -25 86.5t-83 116.5q-41 52 -60 78q-32 43 -48.5 85t-16.5 76q0 44 27.5 91.5t108.5 135.5
q43 46 63.5 71.5t32 53.5t11.5 63q0 45 -30 69.5t-82 24.5q-65 0 -106.5 -26t-67 -79t-44.5 -141l-217 -1021h-281l223 1049q33 158 92 253.5t157.5 142t252.5 46.5q129 0 219 -35t135.5 -96.5t45.5 -140.5q0 -145 -128 -260q-109 -98 -109 -138q0 -32 15.5 -63t48.5 -71z
" />
    <glyph glyph-name="agrave" unicode="&#xe0;" horiz-adv-x="1126" 
d="M881 141q0 -58 22 -141h-271q-2 9 -9 35.5t-7 53.5l1 28q-85 -70 -170.5 -106t-155.5 -36q-160 0 -241.5 73t-81.5 205q0 149 112 245.5t344 131.5q198 30 282 58q10 47 10 74q0 61 -38 84.5t-113 23.5q-71 0 -125 -31.5t-91 -101.5l-248 39q51 107 112.5 174t149 101
t211.5 34q223 0 323 -75t100 -220q0 -56 -15 -127l-85 -401q-16 -75 -16 -121zM442 455q-186 -34 -186 -177q0 -50 30.5 -77t88.5 -27q69 0 134 35q45 24 70.5 50.5t43 71.5t34.5 126l11 51q-70 -23 -226 -53zM638 1196l-211 295h313l77 -295h-179z" />
    <glyph glyph-name="aacute" unicode="&#xe1;" horiz-adv-x="1126" 
d="M881 141q0 -58 22 -141h-271q-2 9 -9 35.5t-7 53.5l1 28q-85 -70 -170.5 -106t-155.5 -36q-160 0 -241.5 73t-81.5 205q0 149 112 245.5t344 131.5q198 30 282 58q10 47 10 74q0 61 -38 84.5t-113 23.5q-71 0 -125 -31.5t-91 -101.5l-248 39q51 107 112.5 174t149 101
t211.5 34q223 0 323 -75t100 -220q0 -56 -15 -127l-85 -401q-16 -75 -16 -121zM442 455q-186 -34 -186 -177q0 -50 30.5 -77t88.5 -27q69 0 134 35q45 24 70.5 50.5t43 71.5t34.5 126l11 51q-70 -23 -226 -53zM512 1196l200 295h316l-334 -295h-182z" />
    <glyph glyph-name="acircumflex" unicode="&#xe2;" horiz-adv-x="1126" 
d="M881 141q0 -58 22 -141h-271q-2 9 -9 35.5t-7 53.5l1 28q-85 -70 -170.5 -106t-155.5 -36q-160 0 -241.5 73t-81.5 205q0 149 112 245.5t344 131.5q198 30 282 58q10 47 10 74q0 61 -38 84.5t-113 23.5q-71 0 -125 -31.5t-91 -101.5l-248 39q51 107 112.5 174t149 101
t211.5 34q223 0 323 -75t100 -220q0 -56 -15 -127l-85 -401q-16 -75 -16 -121zM442 455q-186 -34 -186 -177q0 -50 30.5 -77t88.5 -27q69 0 134 35q45 24 70.5 50.5t43 71.5t34.5 126l11 51q-70 -23 -226 -53zM788 1196l-82 150l-146 -150h-235l273 295h258l147 -295h-215z
" />
    <glyph glyph-name="atilde" unicode="&#xe3;" horiz-adv-x="1126" 
d="M881 141q0 -58 22 -141h-271q-2 9 -9 35.5t-7 53.5l1 28q-85 -70 -170.5 -106t-155.5 -36q-160 0 -241.5 73t-81.5 205q0 149 112 245.5t344 131.5q198 30 282 58q10 47 10 74q0 61 -38 84.5t-113 23.5q-71 0 -125 -31.5t-91 -101.5l-248 39q51 107 112.5 174t149 101
t211.5 34q223 0 323 -75t100 -220q0 -56 -15 -127l-85 -401q-16 -75 -16 -121zM442 455q-186 -34 -186 -177q0 -50 30.5 -77t88.5 -27q69 0 134 35q45 24 70.5 50.5t43 71.5t34.5 126l11 51q-70 -23 -226 -53zM861 1217q-46 0 -86 11.5t-87 34.5q-38 17 -60.5 24t-43.5 7
q-33 0 -54.5 -22t-25.5 -64v-2h-144q10 138 69.5 206.5t160.5 68.5q36 0 70.5 -10.5t78.5 -30.5q44 -19 72.5 -27.5t56.5 -8.5t51 22t32 65h144q-36 -274 -234 -274z" />
    <glyph glyph-name="adieresis" unicode="&#xe4;" horiz-adv-x="1126" 
d="M881 141q0 -58 22 -141h-271q-2 9 -9 35.5t-7 53.5l1 28q-85 -70 -170.5 -106t-155.5 -36q-160 0 -241.5 73t-81.5 205q0 149 112 245.5t344 131.5q198 30 282 58q10 47 10 74q0 61 -38 84.5t-113 23.5q-71 0 -125 -31.5t-91 -101.5l-248 39q51 107 112.5 174t149 101
t211.5 34q223 0 323 -75t100 -220q0 -56 -15 -127l-85 -401q-16 -75 -16 -121zM442 455q-186 -34 -186 -177q0 -50 30.5 -77t88.5 -27q69 0 134 35q45 24 70.5 50.5t43 71.5t34.5 126l11 51q-70 -23 -226 -53zM333 1225l51 241h242l-51 -241h-242zM765 1225l51 241h242
l-51 -241h-242z" />
    <glyph glyph-name="aring" unicode="&#xe5;" horiz-adv-x="1126" 
d="M881 141q0 -58 22 -141h-271q-2 9 -9 35.5t-7 53.5l1 28q-85 -70 -170.5 -106t-155.5 -36q-160 0 -241.5 73t-81.5 205q0 149 112 245.5t344 131.5q198 30 282 58q10 47 10 74q0 61 -38 84.5t-113 23.5q-71 0 -125 -31.5t-91 -101.5l-248 39q51 107 112.5 174t149 101
t211.5 34q223 0 323 -75t100 -220q0 -56 -15 -127l-85 -401q-16 -75 -16 -121zM442 455q-186 -34 -186 -177q0 -50 30.5 -77t88.5 -27q69 0 134 35q45 24 70.5 50.5t43 71.5t34.5 126l11 51q-70 -23 -226 -53zM504 1356q0 54 26.5 99t72 71t98.5 26q52 0 97 -26.5
t71.5 -71.5t26.5 -98q0 -51 -26.5 -96t-71.5 -72t-97 -27t-97.5 27t-72.5 71.5t-27 96.5zM700 1446q-36 0 -62.5 -27t-26.5 -63q0 -37 26.5 -62.5t63.5 -25.5q36 0 62 26t26 62q0 37 -26 63.5t-63 26.5z" />
    <glyph glyph-name="ae" unicode="&#xe6;" horiz-adv-x="1741" 
d="M894 380q0 -92 43.5 -141t123.5 -49q85 0 148 40.5t97 107.5l257 -44q-166 -319 -509 -319q-142 0 -235.5 49t-139.5 140q-85 -87 -185 -138t-203 -51q-160 0 -241.5 73t-81.5 205q0 149 106.5 245.5t327.5 131.5q188 30 268 58q10 45 10 74q0 61 -34.5 84.5t-101.5 23.5
q-64 0 -113 -31.5t-82 -101.5l-248 39q49 107 109 174t147.5 101t216.5 34q121 0 196.5 -28t114.5 -83q142 111 324 111q135 0 233.5 -51t150 -143t51.5 -213q0 -85 -16 -166l-17 -76h-713q-4 -27 -4 -56zM942 641h427q3 24 3 45q0 90 -44 137t-124 47q-87 0 -158.5 -60.5
t-103.5 -168.5zM426 455q-170 -34 -170 -177q0 -51 27.5 -77.5t81.5 -26.5q63 0 122 35q41 24 64 50.5t39 71.5t32 126l10 51q-64 -23 -206 -53z" />
    <glyph glyph-name="ccedilla" unicode="&#xe7;" horiz-adv-x="1127" 
d="M222 -292q79 0 120 15.5t41 51.5q0 22 -19 33.5t-48 11.5q-31 0 -63 -7l79 174q-155 30 -239 139t-84 306q0 181 73.5 330t207.5 236t309 87q381 0 450 -342l-276 -50q-8 80 -56 124t-134 44q-83 0 -147.5 -59.5t-99.5 -158t-35 -211.5q0 -103 43.5 -165t131.5 -62
q79 0 142 52.5t99 150.5l276 -48q-70 -200 -201 -292t-325 -93l-27 -60q92 -8 136 -42.5t44 -106.5q0 -90 -91.5 -143t-279.5 -53q-97 0 -179 11l43 135q56 -8 109 -8z" />
    <glyph glyph-name="egrave" unicode="&#xe8;" horiz-adv-x="1171" 
d="M289 380q0 -92 46 -141t130 -49q89 0 155.5 40.5t102.5 107.5l270 -44q-172 -319 -528 -319q-152 0 -254.5 51.5t-153 145t-50.5 220.5q0 180 77.5 339.5t218.5 256.5t321 97q140 0 241.5 -51t155 -143t53.5 -213q0 -87 -17 -166l-18 -76h-746q-4 -27 -4 -56zM337 641
h465q3 24 3 45q0 90 -47.5 137t-135.5 47q-94 0 -172 -60.5t-113 -168.5zM638 1196l-211 295h313l77 -295h-179z" />
    <glyph glyph-name="eacute" unicode="&#xe9;" horiz-adv-x="1171" 
d="M289 380q0 -92 46 -141t130 -49q89 0 155.5 40.5t102.5 107.5l270 -44q-172 -319 -528 -319q-152 0 -254.5 51.5t-153 145t-50.5 220.5q0 180 77.5 339.5t218.5 256.5t321 97q140 0 241.5 -51t155 -143t53.5 -213q0 -87 -17 -166l-18 -76h-746q-4 -27 -4 -56zM337 641
h465q3 24 3 45q0 90 -47.5 137t-135.5 47q-94 0 -172 -60.5t-113 -168.5zM512 1196l200 295h316l-334 -295h-182z" />
    <glyph glyph-name="ecircumflex" unicode="&#xea;" horiz-adv-x="1171" 
d="M289 380q0 -92 46 -141t130 -49q89 0 155.5 40.5t102.5 107.5l270 -44q-172 -319 -528 -319q-152 0 -254.5 51.5t-153 145t-50.5 220.5q0 180 77.5 339.5t218.5 256.5t321 97q140 0 241.5 -51t155 -143t53.5 -213q0 -87 -17 -166l-18 -76h-746q-4 -27 -4 -56zM337 641
h465q3 24 3 45q0 90 -47.5 137t-135.5 47q-94 0 -172 -60.5t-113 -168.5zM788 1196l-82 150l-146 -150h-235l273 295h258l147 -295h-215z" />
    <glyph glyph-name="edieresis" unicode="&#xeb;" horiz-adv-x="1171" 
d="M289 380q0 -92 46 -141t130 -49q89 0 155.5 40.5t102.5 107.5l270 -44q-172 -319 -528 -319q-152 0 -254.5 51.5t-153 145t-50.5 220.5q0 180 77.5 339.5t218.5 256.5t321 97q140 0 241.5 -51t155 -143t53.5 -213q0 -87 -17 -166l-18 -76h-746q-4 -27 -4 -56zM337 641
h465q3 24 3 45q0 90 -47.5 137t-135.5 47q-94 0 -172 -60.5t-113 -168.5zM333 1225l51 241h242l-51 -241h-242zM765 1225l51 241h242l-51 -241h-242z" />
    <glyph glyph-name="igrave" unicode="&#xec;" horiz-adv-x="559" 
d="M-17 0l226 1061h281l-226 -1061h-281zM351 1196l-211 295h313l77 -295h-179z" />
    <glyph glyph-name="iacute" unicode="&#xed;" horiz-adv-x="559" 
d="M-17 0l226 1061h281l-226 -1061h-281zM225 1196l200 295h316l-334 -295h-182z" />
    <glyph glyph-name="icircumflex" unicode="&#xee;" horiz-adv-x="559" 
d="M-17 0l226 1061h281l-226 -1061h-281zM502 1196l-82 150l-146 -150h-235l273 295h258l147 -295h-215z" />
    <glyph glyph-name="idieresis" unicode="&#xef;" horiz-adv-x="559" 
d="M-17 0l226 1061h281l-226 -1061h-281zM47 1225l51 241h242l-51 -241h-242zM479 1225l51 241h242l-51 -241h-242z" />
    <glyph glyph-name="eth" unicode="&#xf0;" horiz-adv-x="1212" 
d="M11 406q0 178 79 324t221 231t323 85q57 0 122 -20q-17 40 -43.5 88t-49.5 83l-226 -94l-39 92l213 89q-102 128 -158 182h295q22 -23 44.5 -44t43.5 -42l201 86l38 -92l-172 -74q64 -83 112.5 -197.5t74 -231t25.5 -209.5q0 -221 -81.5 -375.5t-224 -233t-324.5 -78.5
q-154 0 -260.5 53.5t-160 150.5t-53.5 227zM623 831q-84 0 -158 -50.5t-118.5 -141.5t-44.5 -207q0 -105 52 -166t142 -61q92 0 166.5 51t117 142t42.5 205q0 104 -52.5 166t-146.5 62z" />
    <glyph glyph-name="ntilde" unicode="&#xf1;" horiz-adv-x="1219" 
d="M789 663q10 50 10 83q0 61 -31 92.5t-100 31.5q-92 0 -168.5 -66.5t-110.5 -215.5l-125 -588h-281l226 1061h262l-30 -139q79 84 159.5 123.5t180.5 39.5q154 0 230 -76.5t76 -204.5q0 -60 -16 -136l-142 -668h-281zM883 1217q-46 0 -86 11.5t-87 34.5q-38 17 -60.5 24
t-43.5 7q-33 0 -54.5 -22t-25.5 -64v-2h-144q10 138 69.5 206.5t160.5 68.5q36 0 70.5 -10.5t78.5 -30.5q44 -19 72.5 -27.5t56.5 -8.5t51 22t32 65h144q-36 -274 -234 -274z" />
    <glyph glyph-name="ograve" unicode="&#xf2;" horiz-adv-x="1212" 
d="M11 422q0 184 79 335.5t222 239.5t322 88q160 0 268 -62t160.5 -164.5t52.5 -226.5q0 -194 -82 -343.5t-225.5 -231.5t-322.5 -82q-154 0 -260.5 55.5t-160 156t-53.5 235.5zM624 856q-85 0 -159 -52.5t-118.5 -147t-44.5 -215.5q0 -109 52 -172.5t142 -63.5
q92 0 167 53.5t117.5 147.5t42.5 213q0 108 -52.5 172.5t-146.5 64.5zM702 1196l-211 295h313l77 -295h-179z" />
    <glyph glyph-name="oacute" unicode="&#xf3;" horiz-adv-x="1212" 
d="M11 422q0 184 79 335.5t222 239.5t322 88q160 0 268 -62t160.5 -164.5t52.5 -226.5q0 -194 -82 -343.5t-225.5 -231.5t-322.5 -82q-154 0 -260.5 55.5t-160 156t-53.5 235.5zM624 856q-85 0 -159 -52.5t-118.5 -147t-44.5 -215.5q0 -109 52 -172.5t142 -63.5
q92 0 167 53.5t117.5 147.5t42.5 213q0 108 -52.5 172.5t-146.5 64.5zM575 1196l200 295h316l-334 -295h-182z" />
    <glyph glyph-name="ocircumflex" unicode="&#xf4;" horiz-adv-x="1212" 
d="M11 422q0 184 79 335.5t222 239.5t322 88q160 0 268 -62t160.5 -164.5t52.5 -226.5q0 -194 -82 -343.5t-225.5 -231.5t-322.5 -82q-154 0 -260.5 55.5t-160 156t-53.5 235.5zM624 856q-85 0 -159 -52.5t-118.5 -147t-44.5 -215.5q0 -109 52 -172.5t142 -63.5
q92 0 167 53.5t117.5 147.5t42.5 213q0 108 -52.5 172.5t-146.5 64.5zM852 1196l-82 150l-146 -150h-235l273 295h258l147 -295h-215z" />
    <glyph glyph-name="otilde" unicode="&#xf5;" horiz-adv-x="1212" 
d="M11 422q0 184 79 335.5t222 239.5t322 88q160 0 268 -62t160.5 -164.5t52.5 -226.5q0 -194 -82 -343.5t-225.5 -231.5t-322.5 -82q-154 0 -260.5 55.5t-160 156t-53.5 235.5zM624 856q-85 0 -159 -52.5t-118.5 -147t-44.5 -215.5q0 -109 52 -172.5t142 -63.5
q92 0 167 53.5t117.5 147.5t42.5 213q0 108 -52.5 172.5t-146.5 64.5zM904 1217q-46 0 -86 11.5t-87 34.5q-38 17 -60.5 24t-43.5 7q-33 0 -54.5 -22t-25.5 -64v-2h-144q10 138 69.5 206.5t160.5 68.5q36 0 70.5 -10.5t78.5 -30.5q44 -19 72.5 -27.5t56.5 -8.5t51 22t32 65
h144q-36 -274 -234 -274z" />
    <glyph glyph-name="odieresis" unicode="&#xf6;" horiz-adv-x="1212" 
d="M11 422q0 184 79 335.5t222 239.5t322 88q160 0 268 -62t160.5 -164.5t52.5 -226.5q0 -194 -82 -343.5t-225.5 -231.5t-322.5 -82q-154 0 -260.5 55.5t-160 156t-53.5 235.5zM624 856q-85 0 -159 -52.5t-118.5 -147t-44.5 -215.5q0 -109 52 -172.5t142 -63.5
q92 0 167 53.5t117.5 147.5t42.5 213q0 108 -52.5 172.5t-146.5 64.5zM397 1225l51 241h242l-51 -241h-242zM829 1225l51 241h242l-51 -241h-242z" />
    <glyph glyph-name="divide" unicode="&#xf7;" horiz-adv-x="1196" 
d="M459 981v281h278v-281h-278zM86 592v262h1024v-262h-1024zM459 184v281h278v-281h-278z" />
    <glyph glyph-name="oslash" unicode="&#xf8;" horiz-adv-x="1212" 
d="M11 422q0 184 79 335.5t221 239.5t323 88q184 0 306 -86l121 121l94 -94l-121 -121q81 -115 81 -273q0 -194 -82 -343.5t-225.5 -231.5t-322.5 -82q-184 0 -300 78l-126 -127l-93 94l124 125q-79 110 -79 277zM309 365l443 445q-51 46 -128 46q-85 0 -159 -52.5
t-118.5 -147t-44.5 -215.5q0 -44 7 -76zM817 686l-440 -441q48 -40 119 -40q92 0 167 53.5t117.5 147.5t42.5 213q0 36 -6 67z" />
    <glyph glyph-name="ugrave" unicode="&#xf9;" horiz-adv-x="1219" 
d="M344 398q-10 -50 -10 -83q0 -61 31 -92.5t100 -31.5q88 0 166.5 62.5t112.5 219.5l125 588h281l-226 -1061h-262l30 139q-79 -84 -159.5 -123.5t-180.5 -39.5q-154 0 -230 76.5t-76 204.5q0 60 16 136l142 668h281zM677 1196l-211 295h313l77 -295h-179z" />
    <glyph glyph-name="uacute" unicode="&#xfa;" horiz-adv-x="1219" 
d="M344 398q-10 -50 -10 -83q0 -61 31 -92.5t100 -31.5q88 0 166.5 62.5t112.5 219.5l125 588h281l-226 -1061h-262l30 139q-79 -84 -159.5 -123.5t-180.5 -39.5q-154 0 -230 76.5t-76 204.5q0 60 16 136l142 668h281zM570 1196l200 295h316l-334 -295h-182z" />
    <glyph glyph-name="ucircumflex" unicode="&#xfb;" horiz-adv-x="1219" 
d="M344 398q-10 -50 -10 -83q0 -61 31 -92.5t100 -31.5q88 0 166.5 62.5t112.5 219.5l125 588h281l-226 -1061h-262l30 139q-79 -84 -159.5 -123.5t-180.5 -39.5q-154 0 -230 76.5t-76 204.5q0 60 16 136l142 668h281zM847 1196l-82 150l-146 -150h-235l273 295h258
l147 -295h-215z" />
    <glyph glyph-name="udieresis" unicode="&#xfc;" horiz-adv-x="1219" 
d="M344 398q-10 -50 -10 -83q0 -61 31 -92.5t100 -31.5q88 0 166.5 62.5t112.5 219.5l125 588h281l-226 -1061h-262l30 139q-79 -84 -159.5 -123.5t-180.5 -39.5q-154 0 -230 76.5t-76 204.5q0 60 16 136l142 668h281zM381 1225l51 241h242l-51 -241h-242zM813 1225l51 241
h242l-51 -241h-242z" />
    <glyph glyph-name="yacute" unicode="&#xfd;" horiz-adv-x="1139" 
d="M468 307h4q54 110 72 143l334 611h301l-640 -1092q-101 -173 -174 -257.5t-143 -113t-174 -28.5q-54 0 -101 6t-111 21l93 215q57 -19 95 -19q51 0 87 16t72 59.5t84 129.5l-180 1063h289l79 -604q8 -57 10.5 -100t2.5 -50zM512 1196l200 295h316l-334 -295h-182z" />
    <glyph glyph-name="thorn" unicode="&#xfe;" horiz-adv-x="1253" 
d="M294 114h-5l-111 -520h-281l398 1872h281l-111 -519q59 69 131 103.5t173 34.5q114 0 202 -54t137 -154.5t49 -233.5q0 -194 -71 -346t-198.5 -237t-290.5 -85q-108 0 -180.5 31t-122.5 108zM695 861q-88 0 -165 -48.5t-124.5 -147t-47.5 -242.5q0 -105 49 -164.5
t138 -59.5q103 0 175.5 57.5t109.5 156t37 220.5q0 108 -45 168t-127 60z" />
    <glyph glyph-name="ydieresis" unicode="&#xff;" horiz-adv-x="1139" 
d="M468 307h4q54 110 72 143l334 611h301l-640 -1092q-101 -173 -174 -257.5t-143 -113t-174 -28.5q-54 0 -101 6t-111 21l93 215q57 -19 95 -19q51 0 87 16t72 59.5t84 129.5l-180 1063h289l79 -604q8 -57 10.5 -100t2.5 -50zM333 1225l51 241h242l-51 -241h-242zM765 1225
l51 241h242l-51 -241h-242z" />
    <glyph glyph-name="Amacron" unicode="&#x100;" horiz-adv-x="1460" 
d="M992 0l-56 332h-566l-192 -332h-330l883 1466h293l276 -1466h-308zM704 911l-191 -331h381l-53 331q-16 102 -16 240h-8q-44 -122 -113 -240zM583 1616l42 197h646l-42 -197h-646z" />
    <glyph glyph-name="amacron" unicode="&#x101;" horiz-adv-x="1126" 
d="M881 141q0 -58 22 -141h-271q-2 9 -9 35.5t-7 53.5l1 28q-85 -70 -170.5 -106t-155.5 -36q-160 0 -241.5 73t-81.5 205q0 149 112 245.5t344 131.5q198 30 282 58q10 47 10 74q0 61 -38 84.5t-113 23.5q-71 0 -125 -31.5t-91 -101.5l-248 39q51 107 112.5 174t149 101
t211.5 34q223 0 323 -75t100 -220q0 -56 -15 -127l-85 -401q-16 -75 -16 -121zM442 455q-186 -34 -186 -177q0 -50 30.5 -77t88.5 -27q69 0 134 35q45 24 70.5 50.5t43 71.5t34.5 126l11 51q-70 -23 -226 -53zM377 1249l40 187h606l-40 -187h-606z" />
    <glyph glyph-name="Abreve" unicode="&#x102;" horiz-adv-x="1460" 
d="M992 0l-56 332h-566l-192 -332h-330l883 1466h293l276 -1466h-308zM704 911l-191 -331h381l-53 331q-16 102 -16 240h-8q-44 -122 -113 -240zM921 1731q72 0 113 31t65 100h176q-78 -303 -373 -303q-141 0 -208.5 73.5t-67.5 229.5h176q0 -69 28.5 -100t90.5 -31z" />
    <glyph glyph-name="abreve" unicode="&#x103;" horiz-adv-x="1126" 
d="M881 141q0 -58 22 -141h-271q-2 9 -9 35.5t-7 53.5l1 28q-85 -70 -170.5 -106t-155.5 -36q-160 0 -241.5 73t-81.5 205q0 149 112 245.5t344 131.5q198 30 282 58q10 47 10 74q0 61 -38 84.5t-113 23.5q-71 0 -125 -31.5t-91 -101.5l-248 39q51 107 112.5 174t149 101
t211.5 34q223 0 323 -75t100 -220q0 -56 -15 -127l-85 -401q-16 -75 -16 -121zM442 455q-186 -34 -186 -177q0 -50 30.5 -77t88.5 -27q69 0 134 35q45 24 70.5 50.5t43 71.5t34.5 126l11 51q-70 -23 -226 -53zM692 1350q71 0 113 35.5t67 105.5h166q-42 -159 -131.5 -231
t-231.5 -72q-140 0 -206 72.5t-66 230.5h166q0 -73 30.5 -107t92.5 -34z" />
    <glyph glyph-name="Aogonek" unicode="&#x104;" horiz-adv-x="1460" 
d="M1133 -276q29 0 69 6t72 18l-29 -137q-41 -19 -90.5 -30t-87.5 -11q-115 0 -164.5 41.5t-49.5 127.5q0 135 139 261l-56 332h-566l-192 -332h-330l883 1466h293l276 -1466h-151q-102 -118 -102 -205q0 -37 21 -54t65 -17zM841 911q-16 102 -16 240h-8q-44 -122 -113 -240
l-191 -331h381z" />
    <glyph glyph-name="aogonek" unicode="&#x105;" horiz-adv-x="1126" 
d="M881 141q0 -59 22 -141h-115q-102 -118 -102 -205q0 -37 21 -54t65 -17q29 0 69 6t72 18l-29 -137q-41 -19 -90.5 -30t-87.5 -11q-115 0 -164.5 41.5t-49.5 127.5q0 135 140 262q-20 64 -15 116q-85 -70 -170.5 -106t-155.5 -36q-160 0 -241.5 73t-81.5 205
q0 149 112 245.5t344 131.5q198 30 282 58q10 40 10 74q0 61 -38 84.5t-113 23.5q-71 0 -125 -31.5t-91 -101.5l-248 39q51 107 112.5 174t149 101t211.5 34q223 0 323 -75t100 -220q0 -56 -15 -127l-85 -401q-16 -75 -16 -121zM657 457l11 51q-70 -23 -226 -53
q-186 -34 -186 -177q0 -50 30.5 -77t88.5 -27q69 0 134 35q45 24 70.5 50.5t43 71.5t34.5 126z" />
    <glyph glyph-name="Cacute" unicode="&#x106;" horiz-adv-x="1485" 
d="M857 1237q-142 0 -252.5 -89.5t-171 -237.5t-60.5 -318q0 -179 71 -271t214 -92t242 70.5t165 226.5l289 -69q-92 -236 -265.5 -359t-437.5 -123q-289 0 -438.5 159.5t-149.5 462.5q0 251 108 455.5t290.5 321.5t391.5 117q252 0 403.5 -110t188.5 -320l-297 -70
q-18 116 -86.5 181t-204.5 65zM779 1567l185 295h331l-319 -295h-197z" />
    <glyph glyph-name="cacute" unicode="&#x107;" horiz-adv-x="1127" 
d="M583 861q-83 0 -147.5 -59.5t-99.5 -158t-35 -211.5q0 -103 43.5 -165t131.5 -62q79 0 142 52.5t99 150.5l276 -48q-70 -200 -202.5 -292.5t-327.5 -92.5q-216 0 -335 111t-119 346q0 181 73.5 330t207.5 236t309 87q381 0 450 -342l-276 -50q-8 80 -56 124t-134 44z
M524 1196l200 295h316l-334 -295h-182z" />
    <glyph glyph-name="Cdotaccent" unicode="&#x10a;" horiz-adv-x="1485" 
d="M857 1237q-142 0 -252.5 -89.5t-171 -237.5t-60.5 -318q0 -179 71 -271t214 -92t242 70.5t165 226.5l289 -69q-92 -236 -265.5 -359t-437.5 -123q-289 0 -438.5 159.5t-149.5 462.5q0 251 108 455.5t290.5 321.5t391.5 117q252 0 403.5 -110t188.5 -320l-297 -70
q-18 116 -86.5 181t-204.5 65zM749 1596l58 271h291l-58 -271h-291z" />
    <glyph glyph-name="cdotaccent" unicode="&#x10b;" horiz-adv-x="1127" 
d="M583 861q-83 0 -147.5 -59.5t-99.5 -158t-35 -211.5q0 -103 43.5 -165t131.5 -62q79 0 142 52.5t99 150.5l276 -48q-70 -200 -202.5 -292.5t-327.5 -92.5q-216 0 -335 111t-119 346q0 181 73.5 330t207.5 236t309 87q381 0 450 -342l-276 -50q-8 80 -56 124t-134 44z
M481 1225l55 261h281l-55 -261h-281z" />
    <glyph glyph-name="Ccaron" unicode="&#x10c;" horiz-adv-x="1485" 
d="M857 1237q-142 0 -252.5 -89.5t-171 -237.5t-60.5 -318q0 -179 71 -271t214 -92t242 70.5t165 226.5l289 -69q-92 -236 -265.5 -359t-437.5 -123q-289 0 -438.5 159.5t-149.5 462.5q0 251 108 455.5t290.5 321.5t391.5 117q252 0 403.5 -110t188.5 -320l-297 -70
q-18 116 -86.5 181t-204.5 65zM885 1862l84 -140l144 140h247l-283 -295h-258l-157 295h223z" />
    <glyph glyph-name="ccaron" unicode="&#x10d;" horiz-adv-x="1127" 
d="M583 861q-83 0 -147.5 -59.5t-99.5 -158t-35 -211.5q0 -103 43.5 -165t131.5 -62q79 0 142 52.5t99 150.5l276 -48q-70 -200 -202.5 -292.5t-327.5 -92.5q-216 0 -335 111t-119 346q0 181 73.5 330t207.5 236t309 87q381 0 450 -342l-276 -50q-8 80 -56 124t-134 44z
M606 1491l82 -150l146 150h237l-273 -295h-258l-147 295h213z" />
    <glyph glyph-name="Dcaron" unicode="&#x10e;" horiz-adv-x="1471" 
d="M1411 865q0 -237 -85 -432.5t-268 -314t-461 -118.5h-599l312 1466h499q309 0 455.5 -145.5t146.5 -455.5zM1103 903q0 168 -77 241.5t-241 73.5h-233l-206 -970h237q250 0 385 161t135 494zM815 1862l84 -140l144 140h247l-283 -295h-258l-157 295h223z" />
    <glyph glyph-name="dcaron" unicode="&#x10f;" horiz-adv-x="1521" 
d="M958 0h-262l28 129h-4q-75 -78 -158.5 -116t-165.5 -38q-123 0 -209.5 53t-131.5 153.5t-45 242.5q0 177 75.5 329t203.5 242t276 90q205 0 303 -161h3l118 542h281zM625 861q-96 0 -170 -57.5t-114.5 -156.5t-40.5 -218q0 -109 47 -169.5t130 -60.5q104 0 178 56.5
t111.5 152.5t37.5 213q0 109 -47.5 174.5t-131.5 65.5zM1329 934l-29 114q84 21 126 59t58 102h-130l55 257h268l-41 -193q-20 -96 -53.5 -157.5t-93 -104.5t-160.5 -77z" />
    <glyph glyph-name="Dcroat" unicode="&#x110;" horiz-adv-x="1471" 
d="M1411 865q0 -237 -85 -432.5t-268 -314t-461 -118.5h-599l134 629h-152l44 205h151l135 632h499q309 0 455.5 -145.5t146.5 -455.5zM1103 903q0 168 -77 241.5t-241 73.5h-233l-82 -384h314l-44 -205h-313l-81 -381h237q250 0 385 161t135 494z" />
    <glyph glyph-name="dcroat" unicode="&#x111;" horiz-adv-x="1253" 
d="M673 1362h293l23 104h281l-22 -104h139l-40 -186h-139l-250 -1176h-262l28 129h-4q-75 -78 -158.5 -116t-165.5 -38q-123 0 -209.5 53t-131.5 153.5t-45 242.5q0 177 75.5 329t203.5 242t276 90q205 0 303 -161h3l55 252h-293zM625 861q-96 0 -170 -57.5t-114.5 -156.5
t-40.5 -218q0 -109 47 -169.5t130 -60.5q104 0 178 56.5t111.5 152.5t37.5 213q0 109 -47.5 174.5t-131.5 65.5z" />
    <glyph glyph-name="Emacron" unicode="&#x112;" horiz-adv-x="1253" 
d="M552 1218l-71 -335h616l-53 -248h-616l-82 -387h706l-53 -248h-1001l312 1466h966l-53 -248h-671zM502 1616l42 197h646l-42 -197h-646z" />
    <glyph glyph-name="emacron" unicode="&#x113;" horiz-adv-x="1171" 
d="M289 380q0 -92 46 -141t130 -49q89 0 155.5 40.5t102.5 107.5l270 -44q-172 -319 -528 -319q-152 0 -254.5 51.5t-153 145t-50.5 220.5q0 180 77.5 339.5t218.5 256.5t321 97q140 0 241.5 -51t155 -143t53.5 -213q0 -87 -17 -166l-18 -76h-746q-4 -27 -4 -56zM337 641
h465q3 24 3 45q0 90 -47.5 137t-135.5 47q-94 0 -172 -60.5t-113 -168.5zM367 1249l40 187h606l-40 -187h-606z" />
    <glyph glyph-name="Edotaccent" unicode="&#x116;" horiz-adv-x="1253" 
d="M552 1218l-71 -335h616l-53 -248h-616l-82 -387h706l-53 -248h-1001l312 1466h966l-53 -248h-671zM698 1596l58 271h291l-58 -271h-291z" />
    <glyph glyph-name="edotaccent" unicode="&#x117;" horiz-adv-x="1171" 
d="M289 380q0 -92 46 -141t130 -49q89 0 155.5 40.5t102.5 107.5l270 -44q-172 -319 -528 -319q-152 0 -254.5 51.5t-153 145t-50.5 220.5q0 180 77.5 339.5t218.5 256.5t321 97q140 0 241.5 -51t155 -143t53.5 -213q0 -87 -17 -166l-18 -76h-746q-4 -27 -4 -56zM337 641
h465q3 24 3 45q0 90 -47.5 137t-135.5 47q-94 0 -172 -60.5t-113 -168.5zM549 1225l55 261h281l-55 -261h-281z" />
    <glyph glyph-name="Eogonek" unicode="&#x118;" horiz-adv-x="1253" 
d="M481 883h616l-53 -248h-616l-82 -387h706l-53 -248h-179q-102 -118 -102 -205q0 -37 21 -54t65 -17q29 0 69 6t72 18l-29 -137q-41 -19 -90.5 -30t-87.5 -11q-115 0 -164.5 41.5t-49.5 127.5q0 135 139 261h-665l312 1466h966l-53 -248h-671z" />
    <glyph glyph-name="eogonek" unicode="&#x119;" horiz-adv-x="1171" 
d="M1074 678q0 -87 -17 -166l-18 -76h-746q-4 -27 -4 -56q0 -92 46 -141t130 -49q89 0 155.5 40.5t102.5 107.5l270 -44q-152 -283 -451 -315q-84 -104 -84 -184q0 -37 21 -54t65 -17q29 0 69 6t72 18l-29 -137q-41 -19 -90.5 -30t-87.5 -11q-115 0 -164.5 41.5t-49.5 127.5
q0 124 117 240q-185 21 -279.5 130t-94.5 283q0 180 77.5 339.5t218.5 256.5t321 97q140 0 241.5 -51t155 -143t53.5 -213zM805 686q0 90 -47.5 137t-135.5 47q-94 0 -172 -60.5t-113 -168.5h465q3 24 3 45z" />
    <glyph glyph-name="Ecaron" unicode="&#x11a;" horiz-adv-x="1253" 
d="M552 1218l-71 -335h616l-53 -248h-616l-82 -387h706l-53 -248h-1001l312 1466h966l-53 -248h-671zM762 1862l84 -140l144 140h247l-283 -295h-258l-157 295h223z" />
    <glyph glyph-name="ecaron" unicode="&#x11b;" horiz-adv-x="1171" 
d="M289 380q0 -92 46 -141t130 -49q89 0 155.5 40.5t102.5 107.5l270 -44q-172 -319 -528 -319q-152 0 -254.5 51.5t-153 145t-50.5 220.5q0 180 77.5 339.5t218.5 256.5t321 97q140 0 241.5 -51t155 -143t53.5 -213q0 -87 -17 -166l-18 -76h-746q-4 -27 -4 -56zM337 641
h465q3 24 3 45q0 90 -47.5 137t-135.5 47q-94 0 -172 -60.5t-113 -168.5zM597 1491l82 -150l146 150h237l-273 -295h-258l-147 295h213z" />
    <glyph glyph-name="Gbreve" unicode="&#x11e;" horiz-adv-x="1557" 
d="M893 1237q-157 0 -274.5 -86t-180 -231t-62.5 -319q0 -181 78.5 -276.5t224.5 -95.5q102 0 199.5 28t174.5 81l43 201h-342l53 248h637l-124 -584q-126 -111 -281.5 -169.5t-359.5 -58.5q-308 0 -461.5 162.5t-153.5 457.5q0 249 109 454t301 323.5t426 118.5
q264 0 401.5 -108t172.5 -322l-297 -55q-10 110 -79.5 170.5t-204.5 60.5zM1021 1731q72 0 113 31t65 100h176q-78 -303 -373 -303q-141 0 -208.5 73.5t-67.5 229.5h176q0 -69 28.5 -100t90.5 -31z" />
    <glyph glyph-name="gbreve" unicode="&#x11f;" horiz-adv-x="1253" 
d="M1184 1061l-205 -964q-40 -190 -107.5 -304t-179 -168.5t-283.5 -54.5q-256 0 -375 92t-119 268l281 -47q1 -98 201 -98q116 0 190.5 63.5t106.5 211.5l18 84h-4q-61 -70 -140.5 -107t-155.5 -37q-198 0 -299 116.5t-101 325.5q0 176 74 323.5t202 233.5t284 86
q101 0 183 -49.5t127 -130.5h4l36 156h262zM612 861q-79 0 -149.5 -52t-113.5 -144.5t-43 -208.5q0 -109 45 -175t129 -66q88 0 163 56t119 150t44 204q0 105 -51 170.5t-143 65.5zM722 1350q71 0 113 35.5t67 105.5h166q-42 -159 -131.5 -231t-231.5 -72q-140 0 -206 72.5
t-66 230.5h166q0 -73 30.5 -107t92.5 -34z" />
    <glyph glyph-name="Gdotaccent" unicode="&#x120;" horiz-adv-x="1557" 
d="M893 1237q-157 0 -274.5 -86t-180 -231t-62.5 -319q0 -181 78.5 -276.5t224.5 -95.5q102 0 199.5 28t174.5 81l43 201h-342l53 248h637l-124 -584q-126 -111 -281.5 -169.5t-359.5 -58.5q-308 0 -461.5 162.5t-153.5 457.5q0 249 109 454t301 323.5t426 118.5
q264 0 401.5 -108t172.5 -322l-297 -55q-10 110 -79.5 170.5t-204.5 60.5zM762 1596l58 271h291l-58 -271h-291z" />
    <glyph glyph-name="gdotaccent" unicode="&#x121;" horiz-adv-x="1253" 
d="M1184 1061l-205 -964q-40 -190 -107.5 -304t-179 -168.5t-283.5 -54.5q-256 0 -375 92t-119 268l281 -47q1 -98 201 -98q116 0 190.5 63.5t106.5 211.5l18 84h-4q-61 -70 -140.5 -107t-155.5 -37q-198 0 -299 116.5t-101 325.5q0 176 74 323.5t202 233.5t284 86
q101 0 183 -49.5t127 -130.5h4l36 156h262zM612 861q-79 0 -149.5 -52t-113.5 -144.5t-43 -208.5q0 -109 45 -175t129 -66q88 0 163 56t119 150t44 204q0 105 -51 170.5t-143 65.5zM502 1225l55 261h281l-55 -261h-281z" />
    <glyph glyph-name="uni0122" unicode="&#x122;" horiz-adv-x="1557" 
d="M893 1237q-157 0 -274.5 -86t-180 -231t-62.5 -319q0 -181 78.5 -276.5t224.5 -95.5q102 0 199.5 28t174.5 81l43 201h-342l53 248h637l-124 -584q-126 -111 -281.5 -169.5t-359.5 -58.5q-308 0 -461.5 162.5t-153.5 457.5q0 249 109 454t301 323.5t426 118.5
q264 0 401.5 -108t172.5 -322l-297 -55q-10 110 -79.5 170.5t-204.5 60.5zM596 -253h-139l38 178h288l-28 -132q-19 -89 -59 -139.5t-103.5 -72.5t-161.5 -26l9 111q79 1 114 23t42 58z" />
    <glyph glyph-name="uni0123" unicode="&#x123;" horiz-adv-x="1253" 
d="M1184 1061l-205 -964q-40 -190 -107.5 -304t-179 -168.5t-283.5 -54.5q-256 0 -375 92t-119 268l281 -47q1 -98 201 -98q116 0 190.5 63.5t106.5 211.5l18 84h-4q-61 -70 -140.5 -107t-155.5 -37q-198 0 -299 116.5t-101 325.5q0 176 74 323.5t202 233.5t284 86
q101 0 183 -49.5t127 -130.5h4l36 156h262zM612 861q-79 0 -149.5 -52t-113.5 -144.5t-43 -208.5q0 -109 45 -175t129 -66q88 0 163 56t119 150t44 204q0 105 -51 170.5t-143 65.5zM702 1354h139l-40 -188h-288l31 147q19 88 58.5 137t103 71.5t162.5 29.5l-9 -111
q-56 -4 -89.5 -15t-48 -28t-19.5 -43z" />
    <glyph glyph-name="Hbar" unicode="&#x126;" horiz-adv-x="1477" 
d="M271 1284l39 182h295l-39 -182h579l39 182h295l-39 -182h115l-53 -248h-115l-220 -1036h-295l139 653h-579l-139 -653h-295l220 1036h-115l53 248h115zM1064 901l28 135h-579l-28 -135h579z" />
    <glyph glyph-name="hbar" unicode="&#x127;" horiz-adv-x="1219" 
d="M273 1362l22 104h281l-22 -104h242l-39 -186h-243l-49 -232q69 68 150 104.5t169 36.5q140 0 220 -77.5t80 -190.5q0 -38 -5 -82.5t-16 -92.5l-134 -642h-281l141 663q5 23 7.5 44t2.5 39q0 60 -30 92t-101 32q-101 0 -175.5 -75.5t-103.5 -206.5l-125 -588h-281
l250 1176h-138l39 186h139z" />
    <glyph glyph-name="Imacron" unicode="&#x12a;" horiz-adv-x="603" 
d="M-2 0l312 1466h295l-312 -1466h-295zM167 1616l42 197h646l-42 -197h-646z" />
    <glyph glyph-name="imacron" unicode="&#x12b;" horiz-adv-x="559" 
d="M-17 0l226 1061h281l-226 -1061h-281zM84 1249l40 187h606l-40 -187h-606z" />
    <glyph glyph-name="Iogonek" unicode="&#x12e;" horiz-adv-x="603" 
d="M52 -205q0 -37 21 -54t65 -17q29 0 69 6t72 18l-29 -137q-41 -19 -90.5 -30t-87.5 -11q-115 0 -164.5 41.5t-49.5 127.5q0 136 140 262l312 1465h295l-312 -1466h-139q-102 -118 -102 -205z" />
    <glyph glyph-name="iogonek" unicode="&#x12f;" horiz-adv-x="559" 
d="M520 1206h-281l56 260h281zM38 -205q0 -37 21 -54t65 -17q29 0 69 6t72 18l-29 -137q-41 -19 -90.5 -30t-87.5 -11q-115 0 -164.5 41.5t-49.5 127.5q0 135 139 261l226 1061h281l-226 -1061h-124q-102 -118 -102 -205z" />
    <glyph glyph-name="Idotaccent" unicode="&#x130;" horiz-adv-x="603" 
d="M-2 0l312 1466h295l-312 -1466h-295zM338 1596l58 271h291l-58 -271h-291z" />
    <glyph glyph-name="dotlessi" unicode="&#x131;" horiz-adv-x="559" 
d="M-17 0l226 1061h281l-226 -1061h-281z" />
    <glyph glyph-name="uni0136" unicode="&#x136;" horiz-adv-x="1452" 
d="M1179 1466h383l-660 -587l389 -879h-338l-283 689l-283 -247l-94 -442h-295l312 1466h295l-134 -635zM523 -253h-139l38 178h288l-28 -132q-19 -89 -59 -139.5t-103.5 -72.5t-161.5 -26l9 111q79 1 114 23t42 58z" />
    <glyph glyph-name="uni0137" unicode="&#x137;" horiz-adv-x="1142" 
d="M812 1061h354l-446 -387l244 -674h-300l-161 493l-165 -143l-74 -350h-281l312 1466h281l-164 -765zM383 -253h-139l38 178h288l-28 -132q-19 -89 -59 -139.5t-103.5 -72.5t-161.5 -26l9 111q79 1 114 23t42 58z" />
    <glyph glyph-name="Lacute" unicode="&#x139;" horiz-adv-x="1158" 
d="M1001 248l-53 -248h-950l312 1466h295l-259 -1218h655zM323 1567l185 295h331l-319 -295h-197z" />
    <glyph glyph-name="lacute" unicode="&#x13a;" horiz-adv-x="559" 
d="M-17 0l312 1466h281l-312 -1466h-281zM290 1544l200 295h316l-334 -295h-182z" />
    <glyph glyph-name="uni013B" unicode="&#x13b;" horiz-adv-x="1158" 
d="M1001 248l-53 -248h-950l312 1466h295l-259 -1218h655zM433 -253h-139l38 178h288l-28 -132q-19 -89 -59 -139.5t-103.5 -72.5t-161.5 -26l9 111q79 1 114 23t42 58z" />
    <glyph glyph-name="uni013C" unicode="&#x13c;" horiz-adv-x="559" 
d="M-17 0l312 1466h281l-312 -1466h-281zM67 -253h-139l38 178h288l-28 -132q-19 -89 -59 -139.5t-103.5 -72.5t-161.5 -26l9 111q79 1 114 23t42 58z" />
    <glyph glyph-name="Lcaron" unicode="&#x13d;" horiz-adv-x="1158" 
d="M1001 248l-53 -248h-950l312 1466h295l-259 -1218h655zM748 850l-31 122q91 27 138 75t67 131h-139l61 288h288l-47 -219q-24 -115 -61 -186t-102 -121.5t-174 -89.5z" />
    <glyph glyph-name="lcaron" unicode="&#x13e;" horiz-adv-x="824" 
d="M-17 0l312 1466h281l-312 -1466h-281zM632 934l-29 114q84 21 126 59t58 102h-130l55 257h268l-41 -193q-20 -96 -53.5 -157.5t-93 -104.5t-160.5 -77z" />
    <glyph glyph-name="Lslash" unicode="&#x141;" horiz-adv-x="1158" 
d="M902 1257l-51 -243l-403 -285l-102 -481h655l-53 -248h-950l106 499l-169 -119l50 237l170 121l155 728h295l-105 -495z" />
    <glyph glyph-name="lslash" unicode="&#x142;" horiz-adv-x="559" 
d="M629 1075l-40 -190l-162 -117l-163 -768h-281l115 540l-162 -116l40 190l162 116l156 736h281l-107 -508z" />
    <glyph glyph-name="Nacute" unicode="&#x143;" horiz-adv-x="1469" 
d="M1196 1466h275l-312 -1466h-277l-400 996l-209 -996h-275l312 1466h267l405 -1019zM754 1567l185 295h331l-319 -295h-197z" />
    <glyph glyph-name="nacute" unicode="&#x144;" horiz-adv-x="1219" 
d="M789 663q10 50 10 83q0 61 -31 92.5t-100 31.5q-92 0 -168.5 -66.5t-110.5 -215.5l-125 -588h-281l226 1061h262l-30 -139q79 84 159.5 123.5t180.5 39.5q154 0 230 -76.5t76 -204.5q0 -60 -16 -136l-142 -668h-281zM573 1196l200 295h316l-334 -295h-182z" />
    <glyph glyph-name="uni0145" unicode="&#x145;" horiz-adv-x="1469" 
d="M1196 1466h275l-312 -1466h-277l-400 996l-209 -996h-275l312 1466h267l405 -1019zM508 -253h-139l38 178h288l-28 -132q-19 -89 -59 -139.5t-103.5 -72.5t-161.5 -26l9 111q79 1 114 23t42 58z" />
    <glyph glyph-name="uni0146" unicode="&#x146;" horiz-adv-x="1219" 
d="M789 663q10 50 10 83q0 61 -31 92.5t-100 31.5q-92 0 -168.5 -66.5t-110.5 -215.5l-125 -588h-281l226 1061h262l-30 -139q79 84 159.5 123.5t180.5 39.5q154 0 230 -76.5t76 -204.5q0 -60 -16 -136l-142 -668h-281zM387 -253h-139l38 178h288l-28 -132
q-19 -89 -59 -139.5t-103.5 -72.5t-161.5 -26l9 111q79 1 114 23t42 58z" />
    <glyph glyph-name="Ncaron" unicode="&#x147;" horiz-adv-x="1469" 
d="M1196 1466h275l-312 -1466h-277l-400 996l-209 -996h-275l312 1466h267l405 -1019zM850 1862l84 -140l144 140h247l-283 -295h-258l-157 295h223z" />
    <glyph glyph-name="ncaron" unicode="&#x148;" horiz-adv-x="1219" 
d="M789 663q10 50 10 83q0 61 -31 92.5t-100 31.5q-92 0 -168.5 -66.5t-110.5 -215.5l-125 -588h-281l226 1061h262l-30 -139q79 84 159.5 123.5t180.5 39.5q154 0 230 -76.5t76 -204.5q0 -60 -16 -136l-142 -668h-281zM665 1491l82 -150l146 150h237l-273 -295h-258
l-147 295h213z" />
    <glyph glyph-name="Eng" unicode="&#x14a;" horiz-adv-x="1469" 
d="M577 1466l405 -1019l214 1019h275l-318 -1492q-48 -223 -135.5 -313.5t-261.5 -90.5q-54 0 -106.5 9.5t-91.5 21.5l93 225q15 -3 33 -5.5t39 -2.5q63 0 97 33.5t52 120.5l7 34l-397 990l-209 -996h-275l312 1466h267z" />
    <glyph glyph-name="eng" unicode="&#x14b;" horiz-adv-x="1219" 
d="M789 663q5 23 7.5 44t2.5 39q0 60 -30 92t-101 32q-101 0 -175 -72t-104 -210l-125 -588h-281l226 1061h262l-30 -139q77 82 158 122.5t182 40.5q146 0 226 -73.5t80 -207.5q0 -24 -3.5 -58.5t-12.5 -77.5l-148 -694q-48 -223 -135.5 -313.5t-261.5 -90.5
q-54 0 -106.5 9.5t-91.5 21.5l93 225q15 -3 33 -5.5t39 -2.5q63 0 97 33.5t52 120.5z" />
    <glyph glyph-name="Omacron" unicode="&#x14c;" horiz-adv-x="1608" 
d="M64 596q0 252 110.5 456.5t304 321.5t430.5 117q184 0 328.5 -79t225 -220.5t80.5 -322.5q0 -260 -112.5 -463.5t-305.5 -317t-424 -113.5q-203 0 -346.5 77t-217 217t-73.5 327zM885 1237q-152 0 -267.5 -80t-178.5 -224t-63 -328q0 -111 37.5 -196.5t111 -132.5
t178.5 -47q154 0 274.5 81.5t187.5 225.5t67 325q0 111 -42 196.5t-120.5 132.5t-184.5 47zM660 1616l42 197h646l-42 -197h-646z" />
    <glyph glyph-name="omacron" unicode="&#x14d;" horiz-adv-x="1212" 
d="M11 422q0 184 79 335.5t222 239.5t322 88q160 0 268 -62t160.5 -164.5t52.5 -226.5q0 -194 -82 -343.5t-225.5 -231.5t-322.5 -82q-154 0 -260.5 55.5t-160 156t-53.5 235.5zM624 856q-85 0 -159 -52.5t-118.5 -147t-44.5 -215.5q0 -109 52 -172.5t142 -63.5
q92 0 167 53.5t117.5 147.5t42.5 213q0 108 -52.5 172.5t-146.5 64.5zM434 1249l40 187h606l-40 -187h-606z" />
    <glyph glyph-name="Ohungarumlaut" unicode="&#x150;" horiz-adv-x="1608" 
d="M64 596q0 252 110.5 456.5t304 321.5t430.5 117q184 0 328.5 -79t225 -220.5t80.5 -322.5q0 -260 -112.5 -463.5t-305.5 -317t-424 -113.5q-203 0 -346.5 77t-217 217t-73.5 327zM885 1237q-152 0 -267.5 -80t-178.5 -224t-63 -328q0 -111 37.5 -196.5t111 -132.5
t178.5 -47q154 0 274.5 81.5t187.5 225.5t67 325q0 111 -42 196.5t-120.5 132.5t-184.5 47zM668 1567l193 295h313l-328 -295h-178zM1049 1567l193 295h313l-327 -295h-179z" />
    <glyph glyph-name="ohungarumlaut" unicode="&#x151;" horiz-adv-x="1212" 
d="M11 422q0 184 79 335.5t222 239.5t322 88q160 0 268 -62t160.5 -164.5t52.5 -226.5q0 -194 -82 -343.5t-225.5 -231.5t-322.5 -82q-154 0 -260.5 55.5t-160 156t-53.5 235.5zM624 856q-85 0 -159 -52.5t-118.5 -147t-44.5 -215.5q0 -109 52 -172.5t142 -63.5
q92 0 167 53.5t117.5 147.5t42.5 213q0 108 -52.5 172.5t-146.5 64.5zM414 1196l203 295h303l-338 -295h-168zM795 1196l203 295h303l-337 -295h-169z" />
    <glyph glyph-name="OE" unicode="&#x152;" horiz-adv-x="2248" 
d="M64 596q0 252 101.5 456t279 321.5t395.5 117.5q145 0 257 -58t178 -168l43 201h953l-53 -248h-671l-71 -335h616l-53 -248h-616l-82 -387h706l-53 -248h-988l27 127q-163 -152 -384 -152q-186 0 -318 77t-199.5 217t-67.5 327zM845 1237q-140 0 -246.5 -80t-164.5 -224
t-58 -328q0 -111 34.5 -196t102 -132.5t164.5 -47.5q142 0 253 81.5t173 225.5t62 325q0 111 -39 196.5t-111.5 132.5t-169.5 47z" />
    <glyph glyph-name="oe" unicode="&#x153;" horiz-adv-x="1870" 
d="M1025 380q0 -92 42 -141t119 -49q82 0 142.5 40.5t93.5 107.5l270 -44q-162 -319 -495 -319q-239 0 -349 148q-76 -72 -174.5 -110t-212.5 -38q-146 0 -247 55.5t-152 156t-51 235.5q0 184 75 335.5t210 239.5t306 88q129 0 219 -45.5t143 -126.5q77 82 174 127t211 45
q132 0 227.5 -51t146 -143t50.5 -213q0 -87 -17 -166l-18 -76h-709q-4 -27 -4 -56zM1073 641h428q3 24 3 45q0 90 -44 137t-125 47q-87 0 -158.5 -60.5t-103.5 -168.5zM600 856q-78 0 -146.5 -52.5t-110 -147t-41.5 -215.5q0 -109 48 -172.5t131 -63.5q86 0 155 53.5
t108.5 147.5t39.5 213q0 108 -48.5 172.5t-135.5 64.5z" />
    <glyph glyph-name="Racute" unicode="&#x154;" horiz-adv-x="1380" 
d="M1356 1086q0 -96 -43 -185.5t-136.5 -156.5t-237.5 -91l-1 -4q50 -20 88 -81.5t69 -173.5l109 -394h-309l-78 293q-23 86 -40 137.5t-33 79.5q-24 41 -49.5 62.5t-63.5 30.5t-100 9h-108l-130 -612h-295l312 1466h546q258 0 379 -91.5t121 -288.5zM1042 1080
q0 72 -50.5 105.5t-153.5 33.5h-286l-79 -373h251q160 0 239 54t79 180zM703 1567l185 295h331l-319 -295h-197z" />
    <glyph glyph-name="racute" unicode="&#x155;" horiz-adv-x="856" 
d="M660 831q-107 0 -182 -86t-108 -244l-106 -501h-281l226 1061h260l-32 -150h4q76 93 147.5 133.5t160.5 40.5q53 0 89 -12t77 -35l-124 -250q-17 14 -59 28.5t-72 14.5zM424 1196l200 295h316l-334 -295h-182z" />
    <glyph glyph-name="uni0156" unicode="&#x156;" horiz-adv-x="1380" 
d="M1356 1086q0 -96 -43 -185.5t-136.5 -156.5t-237.5 -91l-1 -4q50 -20 88 -81.5t69 -173.5l109 -394h-309l-78 293q-23 86 -40 137.5t-33 79.5q-24 41 -49.5 62.5t-63.5 30.5t-100 9h-108l-130 -612h-295l312 1466h546q258 0 379 -91.5t121 -288.5zM1042 1080
q0 72 -50.5 105.5t-153.5 33.5h-286l-79 -373h251q160 0 239 54t79 180zM493 -253h-139l38 178h288l-28 -132q-19 -89 -59 -139.5t-103.5 -72.5t-161.5 -26l9 111q79 1 114 23t42 58z" />
    <glyph glyph-name="uni0157" unicode="&#x157;" horiz-adv-x="856" 
d="M660 831q-107 0 -182 -86t-108 -244l-106 -501h-281l226 1061h260l-32 -150h4q76 93 147.5 133.5t160.5 40.5q53 0 89 -12t77 -35l-124 -250q-17 14 -59 28.5t-72 14.5zM66 -253h-139l38 178h288l-28 -132q-19 -89 -59 -139.5t-103.5 -72.5t-161.5 -26l9 111q79 1 114 23
t42 58z" />
    <glyph glyph-name="Rcaron" unicode="&#x158;" horiz-adv-x="1380" 
d="M1356 1086q0 -96 -43 -185.5t-136.5 -156.5t-237.5 -91l-1 -4q50 -20 88 -81.5t69 -173.5l109 -394h-309l-78 293q-23 86 -40 137.5t-33 79.5q-24 41 -49.5 62.5t-63.5 30.5t-100 9h-108l-130 -612h-295l312 1466h546q258 0 379 -91.5t121 -288.5zM1042 1080
q0 72 -50.5 105.5t-153.5 33.5h-286l-79 -373h251q160 0 239 54t79 180zM795 1862l84 -140l144 140h247l-283 -295h-258l-157 295h223z" />
    <glyph glyph-name="rcaron" unicode="&#x159;" horiz-adv-x="856" 
d="M660 831q-107 0 -182 -86t-108 -244l-106 -501h-281l226 1061h260l-32 -150h4q76 93 147.5 133.5t160.5 40.5q53 0 89 -12t77 -35l-124 -250q-17 14 -59 28.5t-72 14.5zM497 1491l82 -150l146 150h237l-273 -295h-258l-147 295h213z" />
    <glyph glyph-name="Sacute" unicode="&#x15a;" horiz-adv-x="1323" 
d="M712 1247q-64 0 -114.5 -21.5t-79 -59.5t-28.5 -87q0 -38 26.5 -68t87.5 -55t170 -54q151 -40 240 -96t130 -141.5t41 -214.5q0 -135 -72.5 -243t-207 -170t-311.5 -62q-263 0 -414.5 124t-166.5 368l303 36q8 -135 79 -207.5t204 -72.5q130 0 201.5 56t71.5 152
q0 55 -25 90t-88 62.5t-184 58.5q-145 37 -230 91t-123 130.5t-38 185.5q0 120 68 221t191 161t281 60q174 0 293 -53t180 -148.5t68 -222.5l-302 -33q-11 112 -70 162.5t-181 50.5zM688 1567l185 295h331l-319 -295h-197z" />
    <glyph glyph-name="sacute" unicode="&#x15b;" horiz-adv-x="1049" 
d="M531 885q-73 0 -115.5 -28.5t-42.5 -74.5q0 -29 16.5 -50t59 -38t122.5 -31q126 -22 199.5 -64t104.5 -105t31 -153q0 -103 -59.5 -186.5t-169.5 -131.5t-256 -48q-232 0 -336 86.5t-111 241.5l272 42q0 -85 42 -127t148 -42q88 0 135.5 36t47.5 93q0 40 -37 66t-139 42
q-189 30 -271 111t-82 206q0 99 52 180t153.5 128t244.5 47q190 0 297 -72.5t131 -211.5l-276 -39q-6 56 -46 89.5t-115 33.5zM508 1196l200 295h316l-334 -295h-182z" />
    <glyph glyph-name="Scedilla" unicode="&#x15e;" horiz-adv-x="1323" 
d="M322 -292q79 0 120 15.5t41 51.5q0 22 -19 33.5t-48 11.5q-31 0 -63 -7l78 171q-220 29 -319 149t-99 334l303 36q0 -98 25 -159t81 -91t150 -30q83 0 151.5 26t108.5 73.5t40 108.5q0 55 -25 90t-88 62.5t-184 58.5q-145 37 -230 91t-123 130.5t-38 185.5q0 120 68 221
t191 161t281 60q280 0 408 -117.5t133 -306.5l-302 -33q-11 112 -70 162.5t-181 50.5q-64 0 -114.5 -21.5t-79 -59.5t-28.5 -87q0 -38 26.5 -67t87.5 -55t170 -55q151 -40 240 -96t130 -141.5t41 -214.5q0 -134 -76 -242.5t-214 -170.5t-316 -62h-12l-27 -60
q92 -8 136 -42.5t44 -106.5q0 -90 -91.5 -143t-279.5 -53q-96 0 -179 11l43 135q56 -8 109 -8z" />
    <glyph glyph-name="scedilla" unicode="&#x15f;" horiz-adv-x="1049" 
d="M182 -292q79 0 120 15.5t41 51.5q0 22 -19 33.5t-48 11.5q-32 0 -63 -7l77 170q-172 22 -246.5 105t-74.5 215l272 42q0 -85 44 -127t151 -42q88 0 135.5 36t47.5 93q0 36 -39.5 61.5t-136.5 41.5q-188 30 -270.5 113t-82.5 209q0 99 55 180t161.5 128t254.5 47
q184 0 286.5 -71.5t120.5 -212.5l-276 -39q0 59 -39.5 91t-109.5 32q-75 0 -122.5 -27.5t-47.5 -75.5q0 -39 46 -67t157 -47q125 -21 197.5 -64.5t102.5 -107.5t30 -155q0 -102 -58.5 -185t-167.5 -131.5t-253 -49.5l-27 -60q92 -8 136 -42.5t44 -106.5q0 -90 -91.5 -143
t-279.5 -53q-96 0 -179 11l43 135q56 -8 109 -8z" />
    <glyph glyph-name="Scaron" unicode="&#x160;" horiz-adv-x="1323" 
d="M712 1247q-64 0 -114.5 -21.5t-79 -59.5t-28.5 -87q0 -38 26.5 -68t87.5 -55t170 -54q151 -40 240 -96t130 -141.5t41 -214.5q0 -135 -72.5 -243t-207 -170t-311.5 -62q-263 0 -414.5 124t-166.5 368l303 36q8 -135 79 -207.5t204 -72.5q130 0 201.5 56t71.5 152
q0 55 -25 90t-88 62.5t-184 58.5q-145 37 -230 91t-123 130.5t-38 185.5q0 120 68 221t191 161t281 60q174 0 293 -53t180 -148.5t68 -222.5l-302 -33q-11 112 -70 162.5t-181 50.5zM778 1862l84 -140l144 140h247l-283 -295h-258l-157 295h223z" />
    <glyph glyph-name="scaron" unicode="&#x161;" horiz-adv-x="1049" 
d="M531 885q-73 0 -115.5 -28.5t-42.5 -74.5q0 -29 16.5 -50t59 -38t122.5 -31q126 -22 199.5 -64t104.5 -105t31 -153q0 -103 -59.5 -186.5t-169.5 -131.5t-256 -48q-232 0 -336 86.5t-111 241.5l272 42q0 -85 42 -127t148 -42q88 0 135.5 36t47.5 93q0 40 -37 66t-139 42
q-189 30 -271 111t-82 206q0 99 52 180t153.5 128t244.5 47q190 0 297 -72.5t131 -211.5l-276 -39q-6 56 -46 89.5t-115 33.5zM549 1491l82 -150l146 150h237l-273 -295h-258l-147 295h213z" />
    <glyph glyph-name="uni0162" unicode="&#x162;" horiz-adv-x="1243" 
d="M1296 1218h-424l-259 -1218h-104l-39 -85q92 -8 136 -42.5t44 -106.5q0 -90 -91.5 -143t-279.5 -53q-97 0 -179 11l43 135q56 -8 109 -8q79 0 120 15.5t41 51.5q0 22 -19 33.5t-48 11.5q-31 0 -63 -7l85 187h-50l259 1218h-424l53 248h1143z" />
    <glyph glyph-name="uni0163" unicode="&#x163;" horiz-adv-x="713" 
d="M355 259q0 -28 14.5 -39t49.5 -11q53 0 114 16l-11 -217q-49 -15 -102.5 -24t-101.5 -9h-14l-27 -60q92 -8 136 -42.5t44 -106.5q0 -90 -91.5 -143t-279.5 -53q-97 0 -179 11l43 135q56 -8 109 -8q79 0 120 15.5t41 51.5q0 22 -19 33.5t-48 11.5q-32 0 -63 -7l84 184
q-57 23 -83 69.5t-26 116.5q0 56 25 174l103 481h-150l47 223h150l41 194l324 199l-84 -393h198l-47 -223h-198l-110 -517q-9 -39 -9 -62z" />
    <glyph glyph-name="Tcaron" unicode="&#x164;" horiz-adv-x="1243" 
d="M872 1218l-259 -1218h-295l259 1218h-424l53 248h1143l-53 -248h-424zM736 1862l84 -140l144 140h247l-283 -295h-258l-157 295h223z" />
    <glyph glyph-name="tcaron" unicode="&#x165;" horiz-adv-x="841" 
d="M719 1061l-47 -223h-198l-110 -517q-9 -39 -9 -62q0 -28 14.5 -39t49.5 -11q53 0 114 16l-11 -217q-49 -15 -102.5 -24t-101.5 -9q-136 0 -194.5 52.5t-58.5 155.5q0 56 25 174l103 481h-150l47 223h150l41 194l324 199l-84 -393h198zM685 1104l-29 114q84 21 126 59
t58 102h-130l55 257h268l-41 -193q-20 -96 -53.5 -157.5t-93 -104.5t-160.5 -77z" />
    <glyph glyph-name="Umacron" unicode="&#x16a;" horiz-adv-x="1462" 
d="M390 426q0 -101 59 -149t182 -48q110 0 182 46t115 134t73 227l176 830h294l-183 -862q-51 -240 -133 -376t-210.5 -194.5t-328.5 -58.5q-270 0 -396.5 110.5t-126.5 311.5q0 82 30 224l179 845h295l-186 -873q-11 -52 -16 -90t-5 -77zM596 1616l42 197h646l-42 -197
h-646z" />
    <glyph glyph-name="umacron" unicode="&#x16b;" horiz-adv-x="1219" 
d="M344 398q-10 -50 -10 -83q0 -61 31 -92.5t100 -31.5q88 0 166.5 62.5t112.5 219.5l125 588h281l-226 -1061h-262l30 139q-79 -84 -159.5 -123.5t-180.5 -39.5q-154 0 -230 76.5t-76 204.5q0 60 16 136l142 668h281zM418 1249l40 187h606l-40 -187h-606z" />
    <glyph glyph-name="Ubreve" unicode="&#x16c;" horiz-adv-x="1462" 
d="M390 426q0 -101 59 -149t182 -48q110 0 182 46t115 134t73 227l176 830h294l-183 -862q-51 -240 -133 -376t-210.5 -194.5t-328.5 -58.5q-270 0 -396.5 110.5t-126.5 311.5q0 82 30 224l179 845h295l-186 -873q-11 -52 -16 -90t-5 -77zM896 1731q72 0 113 31t65 100h176
q-78 -303 -373 -303q-141 0 -208.5 73.5t-67.5 229.5h176q0 -69 28.5 -100t90.5 -31z" />
    <glyph glyph-name="ubreve" unicode="&#x16d;" horiz-adv-x="1219" 
d="M344 398q-10 -50 -10 -83q0 -61 31 -92.5t100 -31.5q88 0 166.5 62.5t112.5 219.5l125 588h281l-226 -1061h-262l30 139q-79 -84 -159.5 -123.5t-180.5 -39.5q-154 0 -230 76.5t-76 204.5q0 60 16 136l142 668h281zM678 1350q71 0 113 35.5t67 105.5h166
q-42 -159 -131.5 -231t-231.5 -72q-140 0 -206 72.5t-66 230.5h166q0 -73 30.5 -107t92.5 -34z" />
    <glyph glyph-name="Uring" unicode="&#x16e;" horiz-adv-x="1462" 
d="M390 426q0 -101 59 -149t182 -48q110 0 182 46t115 134t73 227l176 830h294l-183 -862q-51 -240 -133 -376t-210.5 -194.5t-328.5 -58.5q-270 0 -396.5 110.5t-126.5 311.5q0 82 30 224l179 845h295l-186 -873q-11 -52 -16 -90t-5 -77zM725 1727q0 57 26.5 101.5
t71.5 69.5t99 25q53 0 97.5 -25t71 -69.5t26.5 -101.5q0 -54 -26.5 -98.5t-70.5 -70.5t-98 -26q-53 0 -98 25.5t-72 70.5t-27 99zM921 1817q-40 0 -64.5 -25.5t-24.5 -64.5t24.5 -63.5t65.5 -24.5q39 0 63.5 24t24.5 64q0 38 -24.5 64t-64.5 26z" />
    <glyph glyph-name="uring" unicode="&#x16f;" horiz-adv-x="1219" 
d="M344 398q-10 -50 -10 -83q0 -61 31 -92.5t100 -31.5q88 0 166.5 62.5t112.5 219.5l125 588h281l-226 -1061h-262l30 139q-79 -84 -159.5 -123.5t-180.5 -39.5q-154 0 -230 76.5t-76 204.5q0 60 16 136l142 668h281zM512 1356q0 54 26.5 99t72 71t98.5 26q52 0 97 -26.5
t71.5 -71.5t26.5 -98q0 -51 -26.5 -96t-71.5 -72t-97 -27t-97.5 27t-72.5 71.5t-27 96.5zM708 1446q-36 0 -62.5 -27t-26.5 -63q0 -37 26.5 -62.5t63.5 -25.5q36 0 62 26t26 62q0 37 -26 63.5t-63 26.5z" />
    <glyph glyph-name="Uhungarumlaut" unicode="&#x170;" horiz-adv-x="1462" 
d="M390 426q0 -101 59 -149t182 -48q110 0 182 46t115 134t73 227l176 830h294l-183 -862q-51 -240 -133 -376t-210.5 -194.5t-328.5 -58.5q-270 0 -396.5 110.5t-126.5 311.5q0 82 30 224l179 845h295l-186 -873q-11 -52 -16 -90t-5 -77zM633 1567l193 295h313l-328 -295
h-178zM1014 1567l193 295h313l-327 -295h-179z" />
    <glyph glyph-name="uhungarumlaut" unicode="&#x171;" horiz-adv-x="1219" 
d="M344 398q-10 -50 -10 -83q0 -61 31 -92.5t100 -31.5q88 0 166.5 62.5t112.5 219.5l125 588h281l-226 -1061h-262l30 139q-79 -84 -159.5 -123.5t-180.5 -39.5q-154 0 -230 76.5t-76 204.5q0 60 16 136l142 668h281zM440 1196l203 295h303l-338 -295h-168zM821 1196
l203 295h303l-337 -295h-169z" />
    <glyph glyph-name="Uogonek" unicode="&#x172;" horiz-adv-x="1462" 
d="M1288 604q-46 -215 -116 -345.5t-176 -196.5t-263 -82q-85 -105 -85 -185q0 -37 21 -54t65 -17q29 0 69 6t72 18l-29 -137q-41 -19 -90.5 -30t-87.5 -11q-115 0 -164.5 41.5t-49.5 127.5q0 123 114 237q-245 10 -360 119.5t-115 301.5q0 82 30 224l179 845h295l-186 -873
q-11 -52 -16 -90t-5 -77q0 -101 59 -149t182 -48q110 0 182 46t115 134t73 227l176 830h294z" />
    <glyph glyph-name="uogonek" unicode="&#x173;" horiz-adv-x="1219" 
d="M800 -276q29 0 69 6t72 18l-29 -137q-41 -19 -90.5 -30t-87.5 -11q-115 0 -164.5 41.5t-49.5 127.5q0 137 143 264l29 136q-79 -84 -159.5 -123.5t-180.5 -39.5q-154 0 -230 76.5t-76 204.5q0 60 16 136l142 668h281l-141 -663q-10 -50 -10 -83q0 -61 31 -92.5t100 -31.5
q88 0 166.5 62.5t112.5 219.5l125 588h281l-226 -1061h-108q-102 -118 -102 -205q0 -37 21 -54t65 -17z" />
    <glyph glyph-name="Ydieresis" unicode="&#x178;" horiz-adv-x="1340" 
d="M684 862h4q65 97 150 208l301 396h362l-709 -852l-131 -614h-295l131 616l-346 850h324l143 -395q46 -127 66 -209zM516 1596l53 251h252l-53 -251h-252zM946 1596l53 251h252l-53 -251h-252z" />
    <glyph glyph-name="Zacute" unicode="&#x179;" horiz-adv-x="1251" 
d="M287 248h823l-53 -248h-1189l57 266l962 952h-674l53 248h1073l-49 -231zM682 1567l185 295h331l-319 -295h-197z" />
    <glyph glyph-name="zacute" unicode="&#x17a;" horiz-adv-x="1030" 
d="M326 248h557l-53 -248h-948l47 219l654 608h-486l50 234h876l-43 -199zM494 1196l200 295h316l-334 -295h-182z" />
    <glyph glyph-name="Zdotaccent" unicode="&#x17b;" horiz-adv-x="1251" 
d="M287 248h823l-53 -248h-1189l57 266l962 952h-674l53 248h1073l-49 -231zM668 1596l58 271h291l-58 -271h-291z" />
    <glyph glyph-name="zdotaccent" unicode="&#x17c;" horiz-adv-x="1030" 
d="M326 248h557l-53 -248h-948l47 219l654 608h-486l50 234h876l-43 -199zM477 1225l55 261h281l-55 -261h-281z" />
    <glyph glyph-name="Zcaron" unicode="&#x17d;" horiz-adv-x="1251" 
d="M287 248h823l-53 -248h-1189l57 266l962 952h-674l53 248h1073l-49 -231zM753 1862l84 -140l144 140h247l-283 -295h-258l-157 295h223z" />
    <glyph glyph-name="zcaron" unicode="&#x17e;" horiz-adv-x="1030" 
d="M326 248h557l-53 -248h-948l47 219l654 608h-486l50 234h876l-43 -199zM550 1491l82 -150l146 150h237l-273 -295h-258l-147 295h213z" />
    <glyph glyph-name="uni0181" unicode="&#x181;" horiz-adv-x="1661" 
d="M1137 1466q229 0 339 -92t110 -257q0 -127 -68.5 -209t-214.5 -128q99 -31 155.5 -112t56.5 -200q0 -224 -156.5 -346t-445.5 -122h-664l259 1217h-58q-96 0 -146 -46.5t-50 -158.5q0 -14 1 -35.5t3 -35.5h-207q-2 15 -2 37l-1 34q0 229 108.5 341.5t338.5 112.5h642z
M893 248q173 0 244 58.5t71 173.5q0 81 -61 118t-175 37h-293l-82 -387h296zM1029 883q125 0 190 52.5t65 152.5q0 64 -44.5 97t-143.5 33h-293l-71 -335h297z" />
    <glyph glyph-name="uni0186" unicode="&#x186;" horiz-adv-x="1485" 
d="M142 1061q108 213 272.5 321.5t404.5 108.5q281 0 442.5 -170.5t161.5 -449.5q0 -249 -97.5 -459t-274.5 -323.5t-407 -113.5q-275 0 -428 124t-183 360l308 69q11 -143 86.5 -221t218.5 -78q214 0 340 186t126 462q0 179 -80 269.5t-235 90.5q-129 0 -214 -63.5
t-145 -182.5z" />
    <glyph glyph-name="uni0189" unicode="&#x189;" horiz-adv-x="1471" 
d="M1411 865q0 -237 -85 -432.5t-268 -314t-461 -118.5h-599l134 629h-152l44 205h151l135 632h499q309 0 455.5 -145.5t146.5 -455.5zM1103 903q0 168 -77 241.5t-241 73.5h-233l-82 -384h314l-44 -205h-313l-81 -381h237q250 0 385 161t135 494z" />
    <glyph glyph-name="uni018A" unicode="&#x18a;" horiz-adv-x="1720" 
d="M1058 1466q311 0 456.5 -146.5t145.5 -454.5q0 -392 -213 -628.5t-601 -236.5h-599l259 1217h-56q-96 0 -146 -46.5t-50 -158.5q0 -14 1 -35.5t3 -35.5h-207q-2 20 -2 39l-1 32q0 229 108.5 341.5t338.5 112.5h563zM832 248q259 0 389.5 167t130.5 488q0 163 -74 239
t-244 76h-233l-206 -970h237z" />
    <glyph glyph-name="uni018E" unicode="&#x18e;" horiz-adv-x="1253" 
d="M1255 1466l-312 -1466h-1001l53 248h706l82 387h-616l53 248h616l71 335h-671l53 248h966z" />
    <glyph glyph-name="uni018F" unicode="&#x18f;" horiz-adv-x="1591" 
d="M114 863h1097q3 23 4 44.5t1 40.5q0 141 -82 215t-234 74q-143 0 -254.5 -60t-175.5 -168l-293 49q119 222 300.5 329t422.5 107q298 0 462 -149t164 -422q0 -254 -112.5 -476.5t-305.5 -347t-426 -124.5q-284 0 -450 152t-166 405q0 50 5.5 110t17.5 117zM1158 614h-778
q-2 -20 -3 -39.5t-1 -36.5q0 -154 81 -231.5t230 -77.5q157 0 285 103t186 282z" />
    <glyph glyph-name="uni0190" unicode="&#x190;" horiz-adv-x="1376" 
d="M387 798q-70 36 -110.5 109t-40.5 156q0 205 156 316.5t442 111.5q182 0 317.5 -60t252.5 -205l-227 -156q-50 79 -136 128t-213 49q-128 0 -210.5 -52.5t-82.5 -132.5q0 -73 56 -114t171 -41h177l-50 -235h-146q-194 0 -299 -69.5t-105 -193.5q0 -89 71.5 -139.5
t199.5 -50.5q123 0 231.5 42.5t220.5 115.5l125 -207q-161 -108 -310.5 -151.5t-312.5 -43.5q-254 0 -397.5 108t-143.5 297q0 160 98.5 270t264.5 144z" />
    <glyph glyph-name="uni0191" unicode="&#x191;" horiz-adv-x="1221" 
d="M1293 1466l-53 -248h-691l-34 -157h1l-44 -206h615l-53 -247h-615l-134 -634q-46 -221 -134.5 -312.5t-262.5 -91.5q-54 0 -114.5 10t-96.5 21l93 225q15 -3 33 -5.5t39 -2.5q63 0 97 33.5t52 120.5l317 1494h985z" />
    <glyph glyph-name="florin" unicode="&#x192;" horiz-adv-x="1163" 
d="M996 1229q-50 0 -80.5 -23t-48.5 -56.5t-42 -99.5l-7 -19h197l-69 -204h-204l-340 -866q-66 -168 -126 -250t-135.5 -111.5t-201.5 -29.5q-46 0 -118 11.5t-120 27.5l105 221q27 -9 66.5 -16t60.5 -7q48 0 81.5 14.5t59.5 50t51 99.5l332 856h-201l68 204h212l27 69
q58 149 116.5 227.5t137.5 110.5t205 32q37 0 107 -13t121 -30l-103 -225q-48 15 -83 21t-68 6z" />
    <glyph glyph-name="uni0194" unicode="&#x194;" horiz-adv-x="1352" 
d="M214.5 -9.5q41.5 89.5 117.5 200.5l100 147l-272 1128h304l146 -661l12 -63q6 -31 11 -62t9 -64q30 65 63.5 122.5t73.5 120.5l387 607h338l-773 -1159q27 -96 45.5 -183.5t18.5 -163.5q0 -192 -86.5 -292t-249.5 -100q-136 0 -211 68t-75 194q0 71 41.5 160.5zM554 9.5
q-8 50.5 -21 85.5q-62 -79 -95 -146t-33 -112q0 -47 21.5 -66t51.5 -19q32 0 58 40.5t26 120.5q0 46 -8 96.5z" />
    <glyph glyph-name="uni0198" unicode="&#x198;" horiz-adv-x="1452" 
d="M944 1254q177 159 262.5 198t177.5 39q53 0 91.5 -12t63.5 -25l-79 -242q-24 11 -49.5 16.5t-45.5 5.5q-38 0 -75.5 -20t-95.5 -73l-292 -262l389 -879h-338l-283 689l-283 -247l-94 -442h-295l312 1466h295l-134 -635z" />
    <glyph glyph-name="uni0199" unicode="&#x199;" horiz-adv-x="1142" 
d="M230 1160q38 184 120 257.5t248 73.5q64 0 125 -11.5t106 -27.5l-66 -201q-33 13 -67.5 19t-59.5 6q-58 0 -87.5 -38.5t-46.5 -119.5l-90 -417l400 360h354l-446 -387l244 -674h-300l-161 493l-165 -143l-74 -350h-281z" />
    <glyph glyph-name="Ohorn" unicode="&#x1a0;" horiz-adv-x="1608" 
d="M64 596q0 252 110.5 456.5t304 321.5t430.5 117q130 0 241 -40t195 -115q84 5 137 66t79 182h239q-27 -124 -67.5 -204t-105.5 -127t-164 -64q80 -144 80 -320q0 -260 -112.5 -463.5t-305.5 -317t-424 -113.5q-203 0 -346.5 77t-217 217t-73.5 327zM885 1237
q-152 0 -267.5 -80t-178.5 -224t-63 -328q0 -111 37.5 -196t111 -132.5t178.5 -47.5q154 0 274.5 81.5t187.5 225.5t67 325q0 111 -42 196.5t-120.5 132.5t-184.5 47z" />
    <glyph glyph-name="ohorn" unicode="&#x1a1;" horiz-adv-x="1313" 
d="M11 422q0 184 79 335.5t221 239.5t323 88q127 0 221 -39.5t155 -110.5q72 14 112.5 72.5t64.5 171.5h239q-26 -122 -66.5 -203.5t-104.5 -130.5t-160 -69q20 -71 20 -144q0 -194 -82 -343.5t-225.5 -231.5t-322.5 -82q-154 0 -260.5 55.5t-160 156t-53.5 235.5zM624 856
q-85 0 -159 -52.5t-118.5 -147t-44.5 -215.5q0 -109 52 -172.5t142 -63.5q92 0 167 53.5t117.5 147.5t42.5 213q0 108 -52.5 172.5t-146.5 64.5z" />
    <glyph glyph-name="Uhorn" unicode="&#x1af;" horiz-adv-x="1647" 
d="M390 426q0 -101 59 -149t182 -48q110 0 182 46t115 134t73 227l176 830h294l-28 -129q77 8 120.5 67.5t69.5 179.5h239q-31 -148 -84.5 -237t-145 -133t-235.5 -47l-119 -563q-51 -240 -133 -376t-210.5 -194.5t-328.5 -58.5q-270 0 -396.5 110.5t-126.5 311.5
q0 82 30 224l179 845h295l-186 -873q-11 -52 -16 -90t-5 -77z" />
    <glyph glyph-name="uhorn" unicode="&#x1b0;" horiz-adv-x="1413" 
d="M344 398q-10 -50 -10 -83q0 -61 31 -92.5t100 -31.5q88 0 166.5 62.5t112.5 219.5l125 588h281l-28 -129q75 10 119 70t69 177h239q-31 -146 -85 -235.5t-144.5 -133.5t-233.5 -48l-162 -762h-262l30 139q-79 -84 -159.5 -123.5t-180.5 -39.5q-154 0 -230 76.5t-76 204.5
q0 60 16 136l142 668h281z" />
    <glyph glyph-name="uni01B2" unicode="&#x1b2;" horiz-adv-x="1462" 
d="M1088 1049q6 30 9.5 54t3.5 44q0 52 -23.5 71t-72.5 19q-27 0 -61.5 -6t-76.5 -20l-17 244q46 14 103 25t133 11q153 0 232.5 -76.5t79.5 -212.5q0 -49 -6 -94.5t-16 -90.5l-88 -413q-73 -344 -219 -486.5t-453 -142.5q-259 0 -391 107t-132 315q0 40 8 98t22 126
l179 845h295l-186 -873q-9 -45 -15 -84.5t-6 -82.5q0 -101 58.5 -149t182.5 -48q151 0 236.5 90t133.5 317z" />
    <glyph glyph-name="uni01B3" unicode="&#x1b3;" horiz-adv-x="1340" 
d="M928 1205q114 164 201 225t206 61q56 0 96 -12.5t59 -25.5l-77 -234q-19 9 -37 12t-35 3q-40 0 -71 -26.5t-69 -74.5l-409 -519l-131 -614h-295l131 616l-346 850h324l143 -395q18 -51 35.5 -104.5t30.5 -104.5h4q35 52 76.5 110t66.5 94z" />
    <glyph glyph-name="uni01B4" unicode="&#x1b4;" horiz-adv-x="1139" 
d="M539 -31q-91 -161 -159.5 -244t-137.5 -119t-194 -36q-52 0 -103 6.5t-109 20.5l93 215q25 -8 49 -13.5t46 -5.5q80 0 128 42.5t115 162.5l-180 1063h289l79 -604q7 -49 9 -85t4 -65h4l41 82q17 35 31 61l204 399q61 122 134.5 179t181.5 57q45 0 86 -9t63 -20l-68 -208
q-20 8 -44 8q-42 0 -73 -38t-90 -142z" />
    <glyph glyph-name="uni01B7" unicode="&#x1b7;" horiz-adv-x="1376" 
d="M867 880q157 -24 263 -135t106 -254q0 -238 -170.5 -377t-481.5 -139q-190 0 -338 51.5t-269 164.5l190 186q100 -90 198.5 -124t225.5 -34q145 0 237 67.5t92 183.5q0 107 -78.5 154.5t-229.5 47.5h-146l49 234l380 312h-579l52 248h983l-49 -231z" />
    <glyph glyph-name="uni01DD" unicode="&#x1dd;" horiz-adv-x="1171" 
d="M46 624h746q2 15 3 29t1 27q0 93 -45.5 141.5t-130.5 48.5q-94 0 -158.5 -42t-99.5 -106l-270 44q83 156 214.5 237.5t313.5 81.5q221 0 339.5 -110t118.5 -307q0 -182 -81.5 -345t-222.5 -255.5t-313 -92.5q-207 0 -328.5 110t-121.5 297q0 36 4 80t13 86zM748 419h-465
q-3 -24 -3 -45q0 -91 47.5 -137.5t135.5 -46.5q97 0 174 62.5t111 166.5z" />
    <glyph glyph-name="uni0218" unicode="&#x218;" horiz-adv-x="1323" 
d="M712 1247q-64 0 -114.5 -21.5t-79 -59.5t-28.5 -87q0 -38 26.5 -68t87.5 -55t170 -54q151 -40 240 -96t130 -141.5t41 -214.5q0 -135 -72.5 -243t-207 -170t-311.5 -62q-263 0 -414.5 124t-166.5 368l303 36q8 -135 79 -207.5t204 -72.5q130 0 201.5 56t71.5 152
q0 55 -25 90t-88 62.5t-184 58.5q-145 37 -230 91t-123 130.5t-38 185.5q0 120 68 221t191 161t281 60q174 0 293 -53t180 -148.5t68 -222.5l-302 -33q-11 112 -70 162.5t-181 50.5zM518 -253h-139l38 178h288l-28 -132q-19 -89 -59 -139.5t-103.5 -72.5t-161.5 -26l9 111
q79 1 114 23t42 58z" />
    <glyph glyph-name="uni0219" unicode="&#x219;" horiz-adv-x="1049" 
d="M531 885q-73 0 -115.5 -28.5t-42.5 -74.5q0 -29 16.5 -50t59 -38t122.5 -31q126 -22 199.5 -64t104.5 -105t31 -153q0 -103 -59.5 -186.5t-169.5 -131.5t-256 -48q-232 0 -336 86.5t-111 241.5l272 42q0 -85 42 -127t148 -42q88 0 135.5 36t47.5 93q0 40 -37 66t-139 42
q-189 30 -271 111t-82 206q0 99 52 180t153.5 128t244.5 47q190 0 297 -72.5t131 -211.5l-276 -39q-6 56 -46 89.5t-115 33.5zM367 -253h-139l38 178h288l-28 -132q-19 -89 -59 -139.5t-103.5 -72.5t-161.5 -26l9 111q79 1 114 23t42 58z" />
    <glyph glyph-name="uni021A" unicode="&#x21a;" horiz-adv-x="1243" 
d="M872 1218l-259 -1218h-295l259 1218h-424l53 248h1143l-53 -248h-424zM406 -253h-139l38 178h288l-28 -132q-19 -89 -59 -139.5t-103.5 -72.5t-161.5 -26l9 111q79 1 114 23t42 58z" />
    <glyph glyph-name="uni021B" unicode="&#x21b;" horiz-adv-x="713" 
d="M719 1061l-47 -223h-198l-110 -517q-9 -39 -9 -62q0 -28 14.5 -39t49.5 -11q53 0 114 16l-11 -217q-49 -15 -102.5 -24t-101.5 -9q-136 0 -194.5 52.5t-58.5 155.5q0 56 25 174l103 481h-150l47 223h150l41 194l324 199l-84 -393h198zM203 -253h-139l38 178h288l-28 -132
q-19 -89 -59 -139.5t-103.5 -72.5t-161.5 -26l9 111q79 1 114 23t42 58z" />
    <glyph glyph-name="uni0253" unicode="&#x253;" horiz-adv-x="1253" 
d="M230 1160q38 184 120 257.5t248 73.5q64 0 125 -11.5t106 -27.5l-66 -201q-33 13 -67.5 19t-59.5 6q-58 0 -87.5 -38.5t-46.5 -119.5l-38 -176h4q73 81 150.5 112t152.5 31q190 0 289.5 -113t99.5 -333q0 -272 -155.5 -468t-375.5 -196q-136 0 -219.5 43t-124.5 131h-4
l-36 -149h-262zM455 744.5q-91 -116.5 -91 -302.5q0 -121 49.5 -182t139.5 -61q134 0 223.5 121.5t89.5 312.5q0 110 -46 169t-137 59q-137 0 -228 -116.5z" />
    <glyph glyph-name="uni0254" unicode="&#x254;" horiz-adv-x="1127" 
d="M39 743q74 166 207 254t330 88q220 0 338.5 -121.5t118.5 -335.5q0 -289 -168 -471t-426 -182q-208 0 -328.5 103t-139.5 282l286 48q6 -88 58.5 -145.5t131.5 -57.5q118 0 206 120.5t88 291.5q0 108 -51.5 173.5t-137.5 65.5q-76 0 -130.5 -35t-94.5 -129z" />
    <glyph glyph-name="uni0256" unicode="&#x256;" horiz-adv-x="1253" 
d="M724 129h-4q-78 -81 -161.5 -117.5t-162.5 -36.5q-184 0 -285 117t-101 332q0 174 74.5 327.5t204.5 243.5t276 90q102 0 178.5 -41t124.5 -120h3l118 542h281l-318 -1495q-5 -21 -6.5 -38.5t-1.5 -32.5q0 -41 20 -61.5t72 -20.5q20 0 38.5 2.5t35.5 5.5v-225l-79 -19
q-47 -12 -109 -12q-116 0 -180 67.5t-64 193.5q0 37 5 79t16 93zM391.5 738q-91.5 -123 -91.5 -309q0 -110 46.5 -170t130.5 -60q151 0 239 119t88 303q0 111 -49 175.5t-130 64.5q-142 0 -233.5 -123z" />
    <glyph glyph-name="uni0257" unicode="&#x257;" horiz-adv-x="1253" 
d="M916 1131q44 202 122 281t229 79q49 0 93.5 -9.5t74.5 -22.5l-65 -196q-10 5 -29.5 9t-35.5 4q-47 0 -69.5 -38t-38.5 -115l-239 -1123h-262l28 129h-4q-78 -81 -161.5 -117.5t-162.5 -36.5q-184 0 -285 117t-101 332q0 174 74.5 327.5t204.5 243.5t276 90
q102 0 178.5 -41t124.5 -120h3zM391.5 738q-91.5 -123 -91.5 -309q0 -110 46.5 -170t130.5 -60q151 0 239 119t88 303q0 111 -49 175.5t-130 64.5q-142 0 -233.5 -123z" />
    <glyph glyph-name="uni0259" unicode="&#x259;" horiz-adv-x="1171" 
d="M46 624h746q2 15 3 29t1 27q0 93 -45.5 141.5t-130.5 48.5q-94 0 -158.5 -42t-99.5 -106l-270 44q83 156 214.5 237.5t313.5 81.5q221 0 339.5 -110t118.5 -307q0 -182 -81.5 -345t-222.5 -255.5t-313 -92.5q-207 0 -328.5 110t-121.5 297q0 36 4 80t13 86zM748 419h-465
q-3 -24 -3 -45q0 -91 47.5 -137.5t135.5 -46.5q97 0 174 62.5t111 166.5z" />
    <glyph glyph-name="uni025B" unicode="&#x25b;" horiz-adv-x="1009" 
d="M567 871q-95 0 -137.5 -36.5t-42.5 -88.5q0 -41 32 -64t99 -23h129l-46 -215h-126q-107 0 -154 -45.5t-47 -106.5q0 -45 34 -73t105 -28q164 0 303 114l112 -187q-188 -142 -423 -142q-222 0 -325.5 74.5t-103.5 221.5q0 52 30 111.5t93.5 107.5t158.5 64
q-71 24 -109.5 76.5t-38.5 125.5q0 90 53.5 165t155.5 119.5t242 44.5q149 0 248 -47.5t177 -147.5l-213 -147q-74 127 -206 127z" />
    <glyph glyph-name="uni0263" unicode="&#x263;" horiz-adv-x="1124" 
d="M145 24q60 115 167 262l-222 775h285l97 -409q15 -65 19.5 -105.5t4.5 -82.5h5q13 37 27.5 66.5t34.5 60.5l30 48l275 422h306l-578 -836q26 -81 47 -162t21 -168q0 -149 -80 -238t-224 -89q-129 0 -202 66.5t-73 181.5q0 93 60 208zM433 -31.5q-7 47.5 -22 89.5
q-56 -69 -87 -133.5t-31 -108.5q0 -69 59 -69q41 0 64.5 37.5t23.5 102.5q0 34 -7 81.5z" />
    <glyph glyph-name="uni0283" unicode="&#x283;" 
d="M-250 -191q33 -13 67.5 -19t59.5 -6q58 0 87.5 37.5t47.5 120.5l257 1218q41 194 122 262.5t257 68.5q58 0 117 -11t106 -28l-66 -201q-33 13 -67.5 19t-59.5 6q-58 0 -87.5 -37.5t-47.5 -120.5l-257 -1218q-41 -194 -122 -262.5t-257 -68.5q-58 0 -117 11t-106 28z" />
    <glyph glyph-name="uni028B" unicode="&#x28b;" horiz-adv-x="1211" 
d="M1086 773q-4 -32 -12 -70l-47 -226q-51 -249 -183.5 -375.5t-367.5 -126.5q-203 0 -307 91t-104 270q0 40 5.5 84t15.5 90l115 551h283l-122 -576q-18 -86 -18 -143q0 -76 40 -115t113 -39q87 0 151 71.5t96 221.5l55 256q3 14 5 26t2 23q0 70 -64 70q-23 0 -41.5 -4
t-40.5 -12l-10 215q31 10 83.5 19t96.5 9q128 0 194 -63t66 -188q0 -27 -4 -59z" />
    <glyph glyph-name="uni0292" unicode="&#x292;" horiz-adv-x="1113" 
d="M613 456q127 -30 200 -130t73 -242q0 -225 -157.5 -370t-396.5 -145q-150 0 -266 43t-210 137l185 179q54 -68 126 -99t157 -31q125 0 197 71.5t72 204.5q0 89 -50 138t-160 49h-149l47 219l318 347h-452l50 234h836l-42 -199z" />
    <glyph glyph-name="uni02BB" unicode="&#x2bb;" horiz-adv-x="568" 
d="M552 1481l31 -122q-91 -27 -138 -76t-67 -130h139l-61 -288h-288l47 219q24 112 61 184t102 123t174 90z" />
    <glyph glyph-name="uni02BC" unicode="&#x2bc;" horiz-adv-x="568" 
d="M200 850l-31 122q91 27 138 75t67 131h-139l61 288h288l-47 -219q-24 -115 -61 -186t-102 -121.5t-174 -89.5z" />
    <glyph glyph-name="circumflex" unicode="&#x2c6;" 
d="M563 1196l-82 150l-146 -150h-235l273 295h258l147 -295h-215z" />
    <glyph glyph-name="caron" unicode="&#x2c7;" 
d="M376 1491l82 -150l146 150h237l-273 -295h-258l-147 295h213z" />
    <glyph glyph-name="uni02C9" unicode="&#x2c9;" 
d="M147 1249l40 187h606l-40 -187h-606z" />
    <glyph glyph-name="breve" unicode="&#x2d8;" 
d="M472 1350q71 0 113 35.5t67 105.5h166q-42 -159 -131.5 -231t-231.5 -72q-140 0 -206 72.5t-66 230.5h166q0 -73 30.5 -107t92.5 -34z" />
    <glyph glyph-name="dotaccent" unicode="&#x2d9;" 
d="M304 1225l55 261h281l-55 -261h-281z" />
    <glyph glyph-name="ogonek" unicode="&#x2db;" 
d="M132 -205q0 -37 21 -54t65 -17q29 0 69 6t72 18l-29 -137q-41 -19 -90.5 -30t-87.5 -11q-115 0 -164.5 41.5t-49.5 127.5q0 143 156 276h153q-56 -61 -85.5 -117t-29.5 -103z" />
    <glyph glyph-name="tilde" unicode="&#x2dc;" 
d="M605 1217q-46 0 -86 11.5t-87 34.5q-38 17 -60.5 24t-43.5 7q-33 0 -54.5 -22t-25.5 -64v-2h-144q10 138 69.5 206.5t160.5 68.5q36 0 70.5 -10.5t78.5 -30.5q44 -19 72.5 -27.5t56.5 -8.5t51 22t32 65h144q-36 -274 -234 -274z" />
    <glyph glyph-name="hungarumlaut" unicode="&#x2dd;" 
d="M154 1196l203 295h303l-338 -295h-168zM535 1196l203 295h303l-337 -295h-169z" />
    <glyph glyph-name="gravecomb" unicode="&#x300;" horiz-adv-x="0" 
d="M-529 1196l-211 295h305l77 -295h-171z" />
    <glyph glyph-name="acutecomb" unicode="&#x301;" horiz-adv-x="0" 
d="M-668 1196l203 295h321l-337 -295h-187z" />
    <glyph glyph-name="tildecomb" unicode="&#x303;" horiz-adv-x="0" 
d="M-342 1217q-42 0 -79 10.5t-83 33.5q-39 18 -63 25.5t-49 7.5q-33 0 -54.5 -21t-25.5 -65v-2h-144l1 5q29 143 84.5 206.5t146.5 63.5q41 0 74.5 -9.5t75.5 -31.5q38 -19 65.5 -27.5t60.5 -8.5q28 0 51 22t32 65h144q-25 -144 -84 -209t-153 -65z" />
    <glyph glyph-name="hookabovecomb" unicode="&#x309;" horiz-adv-x="0" 
d="M-613 1534q36 5 65 7.5t72 2.5q122 0 184 -40.5t62 -119.5q0 -80 -59 -120t-179 -50l-10 -48h-140l27 128q61 0 88.5 16t27.5 49q0 22 -16.5 34.5t-49.5 12.5q-54 0 -113 -8l14 132q18 2 27 4z" />
    <glyph glyph-name="dotbelowcomb" unicode="&#x323;" horiz-adv-x="0" 
d="M-988 -415l55 261h281l-55 -261h-281z" />
    <glyph glyph-name="uni0374" unicode="&#x374;" 
d="M744 1466l-299 -495h-179l165 495h313z" />
    <glyph glyph-name="uni0375" unicode="&#x375;" 
d="M-130 -314l299 495h179l-165 -495h-313z" />
    <glyph glyph-name="tonos" unicode="&#x384;" 
d="M309 1171l123 295h313l-257 -295h-179z" />
    <glyph glyph-name="dieresistonos" unicode="&#x385;" 
d="M318 1191l92 295h263l-196 -295h-159zM33 1225l47 221h212l-47 -221h-212zM645 1225l47 221h212l-47 -221h-212z" />
    <glyph glyph-name="Alphatonos" unicode="&#x386;" horiz-adv-x="1460" 
d="M992 0l-56 332h-566l-192 -332h-330l883 1466h293l276 -1466h-308zM704 911l-191 -331h381l-53 331q-16 102 -16 240h-8q-44 -122 -113 -240zM93 1171l123 295h313l-257 -295h-179z" />
    <glyph glyph-name="Epsilontonos" unicode="&#x388;" horiz-adv-x="1539" 
d="M93 1171l123 295h313l-257 -295h-179zM838 1218l-71 -335h616l-53 -248h-616l-82 -387h706l-53 -248h-1001l312 1466h966l-53 -248h-671z" />
    <glyph glyph-name="Etatonos" unicode="&#x389;" horiz-adv-x="1763" 
d="M93 1171l123 295h313l-257 -295h-179zM1350 901l120 565h295l-312 -1466h-295l139 653h-579l-139 -653h-295l312 1466h295l-120 -565h579z" />
    <glyph glyph-name="Iotatonos" unicode="&#x38a;" horiz-adv-x="889" 
d="M93 1171l123 295h313l-257 -295h-179zM284 0l312 1466h295l-312 -1466h-295z" />
    <glyph glyph-name="Omicrontonos" unicode="&#x38c;" horiz-adv-x="1844" 
d="M93 1171l123 295h313l-257 -295h-179zM300 596q0 252 110.5 456.5t304 321.5t430.5 117q184 0 328.5 -79t225 -220.5t80.5 -322.5q0 -260 -112.5 -463.5t-305.5 -317t-424 -113.5q-203 0 -346.5 77t-217 217t-73.5 327zM1121 1237q-152 0 -267.5 -80t-178.5 -224
t-63 -328q0 -111 37.5 -196.5t111 -132.5t178.5 -47q154 0 274.5 81.5t187.5 225.5t67 325q0 111 -42 196.5t-120.5 132.5t-184.5 47z" />
    <glyph glyph-name="Upsilontonos" unicode="&#x38e;" horiz-adv-x="1746" 
d="M93 1171l123 295h313l-257 -295h-179zM1090 862h4q65 97 150 208l301 396h362l-709 -852l-131 -614h-295l131 616l-346 850h324l143 -395q46 -127 66 -209z" />
    <glyph glyph-name="Omegatonos" unicode="&#x38f;" horiz-adv-x="1861" 
d="M968 0l50 236q229 113 340 272.5t111 358.5q0 177 -85 273.5t-250 96.5q-144 0 -254 -69.5t-172 -201.5t-62 -314q0 -118 24.5 -196t74.5 -129t131 -91l-50 -236h-651l53 248h294q-90 87 -134.5 191t-44.5 258q0 221 109 403t289 286.5t383 104.5q215 0 362.5 -76
t221.5 -213.5t74 -321.5q0 -125 -43.5 -243.5t-133.5 -219.5t-226 -169h294l-53 -248h-652zM93 1171l123 295h313l-257 -295h-179z" />
    <glyph glyph-name="iotadieresistonos" unicode="&#x390;" horiz-adv-x="620" 
d="M326 280q0 -25 16 -41t49 -16q44 0 110 12l-48 -234q-86 -26 -171 -26q-123 0 -184 62.5t-61 180.5q0 60 20 152l147 691h281l-150 -707q-9 -43 -9 -74zM252 1191l92 295h263l-196 -295h-159zM-33 1225l47 221h212l-47 -221h-212zM579 1225l47 221h212l-47 -221h-212z
" />
    <glyph glyph-name="Alpha" unicode="&#x391;" horiz-adv-x="1460" 
d="M992 0l-56 332h-566l-192 -332h-330l883 1466h293l276 -1466h-308zM704 911l-191 -331h381l-53 331q-16 102 -16 240h-8q-44 -122 -113 -240z" />
    <glyph glyph-name="Beta" unicode="&#x392;" horiz-adv-x="1410" 
d="M1335 1117q0 -132 -71 -212t-212 -125q96 -29 154 -109t58 -203q0 -154 -73 -258.5t-208 -157t-321 -52.5h-664l312 1466h576q225 0 337 -90.5t112 -258.5zM1033 1088q0 76 -52.5 103t-135.5 27h-293l-71 -335h297q124 0 189.5 52.5t65.5 152.5zM957 480q0 74 -55 114.5
t-181 40.5h-293l-82 -387h296q86 0 153.5 15.5t114.5 67t47 149.5z" />
    <glyph glyph-name="Gamma" unicode="&#x393;" horiz-adv-x="1104" 
d="M1210 1466l-53 -248h-605l-259 -1218h-295l312 1466h900z" />
    <glyph glyph-name="uni0394" unicode="&#x394;" horiz-adv-x="1458" 
d="M1217 0h-1290l44 205l758 1261h296l235 -1263zM839 934q-7 49 -11.5 109t-4.5 111h-4q-51 -120 -109 -221l-392 -685h631z" />
    <glyph glyph-name="Epsilon" unicode="&#x395;" horiz-adv-x="1253" 
d="M552 1218l-71 -335h616l-53 -248h-616l-82 -387h706l-53 -248h-1001l312 1466h966l-53 -248h-671z" />
    <glyph glyph-name="Zeta" unicode="&#x396;" horiz-adv-x="1251" 
d="M287 248h823l-53 -248h-1189l57 266l962 952h-674l53 248h1073l-49 -231z" />
    <glyph glyph-name="Eta" unicode="&#x397;" horiz-adv-x="1477" 
d="M1064 901l120 565h295l-312 -1466h-295l139 653h-579l-139 -653h-295l312 1466h295l-120 -565h579z" />
    <glyph glyph-name="Theta" unicode="&#x398;" horiz-adv-x="1608" 
d="M64 596q0 252 110.5 456.5t304 321.5t430.5 117q184 0 328.5 -79t225 -220.5t80.5 -322.5q0 -260 -112.5 -463.5t-305.5 -317t-424 -113.5q-203 0 -346.5 77t-217 217t-73.5 327zM885 1237q-152 0 -267.5 -80t-178.5 -224t-63 -328q0 -111 37.5 -196t111 -132.5
t178.5 -47.5q154 0 274.5 81.5t187.5 225.5t67 325q0 111 -42 196.5t-120.5 132.5t-184.5 47zM1059 615h-560l52 248h560z" />
    <glyph glyph-name="Iota" unicode="&#x399;" horiz-adv-x="603" 
d="M-2 0l312 1466h295l-312 -1466h-295z" />
    <glyph glyph-name="Kappa" unicode="&#x39a;" horiz-adv-x="1452" 
d="M1179 1466h383l-660 -587l389 -879h-338l-283 689l-283 -247l-94 -442h-295l312 1466h295l-134 -635z" />
    <glyph glyph-name="Lambda" unicode="&#x39b;" horiz-adv-x="1352" 
d="M756 1095l-580 -1095h-328l831 1466h308l205 -1466h-307l-125 1095h-4z" />
    <glyph glyph-name="Mu" unicode="&#x39c;" horiz-adv-x="1784" 
d="M1332 1466h454l-312 -1466h-275l246 1155l-565 -1155h-284l-77 1155l-246 -1155h-275l312 1466h434l77 -1038z" />
    <glyph glyph-name="Nu" unicode="&#x39d;" horiz-adv-x="1469" 
d="M1196 1466h275l-312 -1466h-277l-400 996l-209 -996h-275l312 1466h267l405 -1019z" />
    <glyph glyph-name="Xi" unicode="&#x39e;" horiz-adv-x="1285" 
d="M1261 1218h-1031l53 248h1031zM1052 635h-861l53 248h861zM1037 0h-1101l53 248h1101z" />
    <glyph glyph-name="Omicron" unicode="&#x39f;" horiz-adv-x="1608" 
d="M64 596q0 252 110.5 456.5t304 321.5t430.5 117q184 0 328.5 -79t225 -220.5t80.5 -322.5q0 -260 -112.5 -463.5t-305.5 -317t-424 -113.5q-203 0 -346.5 77t-217 217t-73.5 327zM885 1237q-152 0 -267.5 -80t-178.5 -224t-63 -328q0 -111 37.5 -196.5t111 -132.5
t178.5 -47q154 0 274.5 81.5t187.5 225.5t67 325q0 111 -42 196.5t-120.5 132.5t-184.5 47z" />
    <glyph glyph-name="Pi" unicode="&#x3a0;" horiz-adv-x="1477" 
d="M872 0l259 1218h-579l-259 -1218h-295l312 1466h1169l-312 -1466h-295z" />
    <glyph glyph-name="Rho" unicode="&#x3a1;" horiz-adv-x="1287" 
d="M1294 1076q0 -161 -68 -278.5t-207 -181.5t-347 -64h-262l-117 -552h-295l312 1466h467q271 0 394 -99.5t123 -290.5zM978 1057q0 76 -52.5 118.5t-155.5 42.5h-218l-89 -418h218q164 0 230.5 67.5t66.5 189.5z" />
    <glyph glyph-name="Sigma" unicode="&#x3a3;" horiz-adv-x="1199" 
d="M1249 1466l-53 -248h-669l297 -461l-501 -509h713l-53 -248h-1089l57 266l519 513l-303 456l49 231h1033z" />
    <glyph glyph-name="Tau" unicode="&#x3a4;" horiz-adv-x="1243" 
d="M872 1218l-259 -1218h-295l259 1218h-424l53 248h1143l-53 -248h-424z" />
    <glyph glyph-name="Upsilon" unicode="&#x3a5;" horiz-adv-x="1340" 
d="M684 862h4q65 97 150 208l301 396h362l-709 -852l-131 -614h-295l131 616l-346 850h324l143 -395q46 -127 66 -209z" />
    <glyph glyph-name="Phi" unicode="&#x3a6;" horiz-adv-x="1647" 
d="M68 651q0 304 188.5 474t549.5 190l32 151h281l-32 -151q150 -9 262 -72t172.5 -169t60.5 -239q0 -304 -188.5 -474t-549.5 -190l-36 -171h-281l36 171q-150 9 -262 72t-172.5 169t-60.5 239zM611 398l147 690q-133 -12 -221 -72.5t-129.5 -155t-41.5 -209.5
q0 -119 61 -181t184 -72zM1039 1088l-147 -690q133 12 221 72.5t129.5 155t41.5 209.5q0 119 -61 181t-184 72z" />
    <glyph glyph-name="Chi" unicode="&#x3a7;" horiz-adv-x="1374" 
d="M726 965h4q33 53 104 143l284 358h362l-607 -722l340 -744h-341l-168 386q-28 65 -48 148h-4q-43 -63 -113 -149l-319 -385h-371l661 774l-302 692h328l143 -351q29 -69 47 -150z" />
    <glyph glyph-name="Psi" unicode="&#x3a8;" horiz-adv-x="1627" 
d="M476 889q0 -99 42 -152.5t143 -62.5l168 792h281l-169 -796q95 9 156.5 49.5t98 113.5t61.5 188l94 445h296l-104 -488q-42 -198 -121 -315t-207.5 -173t-326.5 -66l-90 -424h-281l91 426q-224 23 -325.5 132.5t-101.5 292.5q0 88 25 208l86 407h295l-95 -448
q-16 -77 -16 -129z" />
    <glyph glyph-name="uni03A9" unicode="&#x3a9;" horiz-adv-x="1625" 
d="M732 0l50 236q229 113 340 272.5t111 358.5q0 177 -85 273.5t-250 96.5q-144 0 -254 -69.5t-172 -201.5t-62 -314q0 -118 24.5 -196t74.5 -129t131 -91l-50 -236h-651l53 248h294q-90 87 -134.5 191t-44.5 258q0 221 109 403t289 286.5t383 104.5q215 0 362.5 -76
t221.5 -213.5t74 -321.5q0 -125 -43.5 -243.5t-133.5 -219.5t-226 -169h294l-53 -248h-652z" />
    <glyph glyph-name="Iotadieresis" unicode="&#x3aa;" horiz-adv-x="603" 
d="M-2 0l312 1466h295l-312 -1466h-295zM144 1596l53 251h252l-53 -251h-252zM574 1596l53 251h252l-53 -251h-252z" />
    <glyph glyph-name="Upsilondieresis" unicode="&#x3ab;" horiz-adv-x="1340" 
d="M684 862h4q65 97 150 208l301 396h362l-709 -852l-131 -614h-295l131 616l-346 850h324l143 -395q46 -127 66 -209zM516 1596l53 251h252l-53 -251h-252zM946 1596l53 251h252l-53 -251h-252z" />
    <glyph glyph-name="alphatonos" unicode="&#x3ac;" horiz-adv-x="1276" 
d="M1058 521q-23 -164 -23 -359q0 -54 6 -162h-292q-6 33 -7.5 68.5t-1.5 87.5h-5q-82 -99 -173.5 -140t-193.5 -41q-110 0 -192 52.5t-126.5 150t-44.5 230.5q0 187 75 342t205 245t287 90q95 0 181.5 -48.5t136.5 -137.5h4q35 87 77 162h292q-62 -129 -116.5 -270
t-88.5 -270zM587 862q-72 0 -138.5 -56t-108 -157t-41.5 -228q0 -109 40.5 -170t114.5 -61q87 0 164.5 55t125 155.5t47.5 230.5q0 68 -25 120.5t-71 81.5t-108 29zM564 1171l123 295h313l-257 -295h-179z" />
    <glyph glyph-name="epsilontonos" unicode="&#x3ad;" horiz-adv-x="1009" 
d="M567 871q-95 0 -137.5 -36.5t-42.5 -88.5q0 -41 32 -64t99 -23h129l-46 -215h-126q-107 0 -154 -45.5t-47 -106.5q0 -45 34 -73t105 -28q164 0 303 114l112 -187q-188 -142 -423 -142q-222 0 -325.5 74.5t-103.5 221.5q0 52 30 111.5t93.5 107.5t158.5 64
q-71 24 -109.5 76.5t-38.5 125.5q0 90 53.5 165t155.5 119.5t242 44.5q149 0 248 -47.5t177 -147.5l-213 -147q-74 127 -206 127zM468 1171l123 295h313l-257 -295h-179z" />
    <glyph glyph-name="etatonos" unicode="&#x3ae;" horiz-adv-x="1219" 
d="M789 663q10 50 10 83q0 61 -31 92.5t-100 31.5q-88 0 -166.5 -64t-112.5 -218l-125 -588h-281l226 1061h262l-30 -139q79 83 159.5 123t180.5 40q154 0 230 -76.5t76 -204.5q0 -60 -16 -136l-228 -1074h-281zM586 1171l123 295h313l-257 -295h-179z" />
    <glyph glyph-name="iotatonos" unicode="&#x3af;" horiz-adv-x="620" 
d="M326 280q0 -25 16 -41t49 -16q44 0 110 12l-48 -234q-86 -26 -171 -26q-123 0 -184 62.5t-61 180.5q0 60 20 152l147 691h281l-150 -707q-9 -43 -9 -74zM231 1171l123 295h313l-257 -295h-179z" />
    <glyph glyph-name="upsilondieresistonos" unicode="&#x3b0;" horiz-adv-x="1140" 
d="M336 326q0 -63 32 -92.5t100 -29.5q147 0 228.5 170.5t81.5 516.5q0 129 -4 170h278q4 -108 4 -180q0 -448 -153.5 -677t-460.5 -229q-389 0 -389 317q0 32 7 83t16 94l127 592h281l-133 -622q-6 -26 -10.5 -60.5t-4.5 -52.5zM544 1191l92 295h263l-196 -295h-159z
M259 1225l47 221h212l-47 -221h-212zM871 1225l47 221h212l-47 -221h-212z" />
    <glyph glyph-name="alpha" unicode="&#x3b1;" horiz-adv-x="1276" 
d="M1058 521q-23 -164 -23 -359q0 -54 6 -162h-292q-6 33 -7.5 68.5t-1.5 87.5h-5q-82 -99 -173.5 -140t-193.5 -41q-110 0 -192 52.5t-126.5 150t-44.5 230.5q0 187 75 342t205 245t287 90q95 0 181.5 -48.5t136.5 -137.5h4q35 87 77 162h292q-62 -129 -116.5 -270
t-88.5 -270zM587 862q-72 0 -138.5 -56t-108 -157t-41.5 -228q0 -109 40.5 -170t114.5 -61q87 0 164.5 55t125 155.5t47.5 230.5q0 68 -25 120.5t-71 81.5t-108 29z" />
    <glyph glyph-name="beta" unicode="&#x3b2;" horiz-adv-x="1240" 
d="M1185 1141q0 -116 -77.5 -209.5t-215.5 -137.5q101 -21 157 -100t56 -197q0 -156 -65 -274.5t-184 -183t-277 -64.5q-114 0 -180.5 34t-108.5 95h-4l-108 -510h-281l299 1406q53 249 190 370t370 121q139 0 235.5 -43.5t145 -122.5t48.5 -184zM894 1124q0 65 -46 101.5
t-118 36.5q-94 0 -159 -62t-91 -188l-120 -564q-10 -44 -10 -84q0 -84 47.5 -124.5t135.5 -40.5q84 0 149.5 39t102 107.5t36.5 154.5q0 79 -49.5 127.5t-140.5 48.5h-63l49 229h52q67 0 118.5 30.5t79 81t27.5 107.5z" />
    <glyph glyph-name="gamma" unicode="&#x3b3;" horiz-adv-x="1124" 
d="M473 346l402 715h299l-618 -1028l-93 -439h-281l94 441l-186 1026h285l94 -714z" />
    <glyph glyph-name="delta" unicode="&#x3b4;" horiz-adv-x="1212" 
d="M7 430q0 139 59.5 267t178.5 214.5t287 101.5q-129 115 -230 259l41 194h851l-48 -229h-458q37 -50 97.5 -108.5t149.5 -138.5q86 -78 130.5 -173t44.5 -221q0 -163 -72.5 -305t-215 -229t-340.5 -87q-162 0 -268 57.5t-156.5 159.5t-50.5 238zM621 822q-85 0 -158.5 -47
t-118 -134t-44.5 -201q0 -112 52 -173.5t151 -61.5q86 0 158.5 51t115 141t42.5 202q0 105 -51 164t-147 59z" />
    <glyph glyph-name="epsilon" unicode="&#x3b5;" horiz-adv-x="1009" 
d="M567 871q-95 0 -137.5 -36.5t-42.5 -88.5q0 -41 32 -64t99 -23h129l-46 -215h-126q-107 0 -154 -45.5t-47 -106.5q0 -45 34 -73t105 -28q164 0 303 114l112 -187q-188 -142 -423 -142q-222 0 -325.5 74.5t-103.5 221.5q0 52 30 111.5t93.5 107.5t158.5 64
q-71 24 -109.5 76.5t-38.5 125.5q0 90 53.5 165t155.5 119.5t242 44.5q149 0 248 -47.5t177 -147.5l-213 -147q-74 127 -206 127z" />
    <glyph glyph-name="zeta" unicode="&#x3b6;" horiz-adv-x="953" 
d="M306 451q0 -72 33.5 -116.5t117.5 -75.5q131 -48 196 -123t65 -207q0 -168 -117.5 -263.5t-375.5 -95.5q-63 0 -109 4l87 227q127 0 175.5 28t48.5 84q0 26 -14.5 45.5t-48.5 38t-97 41.5q-137 51 -198.5 139.5t-61.5 227.5q0 159 81.5 314t217.5 289t302 235h-327
l47 223h739l-41 -192q-263 -121 -423.5 -269t-228.5 -290.5t-68 -263.5z" />
    <glyph glyph-name="eta" unicode="&#x3b7;" horiz-adv-x="1219" 
d="M789 663q10 50 10 83q0 61 -31 92.5t-100 31.5q-88 0 -166.5 -64t-112.5 -218l-125 -588h-281l226 1061h262l-30 -139q79 83 159.5 123t180.5 40q154 0 230 -76.5t76 -204.5q0 -60 -16 -136l-228 -1074h-281z" />
    <glyph glyph-name="theta" unicode="&#x3b8;" horiz-adv-x="1153" 
d="M40 463q0 268 69 501.5t217 380t366 146.5q202 0 311.5 -126t109.5 -361q0 -307 -73 -539t-216 -361t-347 -129q-222 0 -329.5 121.5t-107.5 366.5zM386 852h428q15 90 15 181q0 88 -16.5 139.5t-50.5 73.5t-89 22q-90 0 -161 -95t-126 -321zM771 629h-430
q-17 -97 -17 -215q0 -114 37.5 -165t118.5 -51q60 0 116.5 50t102.5 147t72 234z" />
    <glyph glyph-name="iota" unicode="&#x3b9;" horiz-adv-x="620" 
d="M326 280q0 -25 16 -41t49 -16q44 0 110 12l-48 -234q-86 -26 -171 -26q-123 0 -184 62.5t-61 180.5q0 60 20 152l147 691h281l-150 -707q-9 -43 -9 -74z" />
    <glyph glyph-name="kappa" unicode="&#x3ba;" horiz-adv-x="1142" 
d="M825 1061h341l-472 -417l270 -644h-318l-185 449l-123 -99l-74 -350h-281l226 1061h281l-80 -373z" />
    <glyph glyph-name="lambda" unicode="&#x3bb;" horiz-adv-x="1132" 
d="M437 1466h294l225 -1466h-291l-77 573q-5 34 -12 143h-4q-49 -103 -77 -150l-332 -566h-299l636 1040z" />
    <glyph glyph-name="uni03BC" unicode="&#x3bc;" horiz-adv-x="1247" 
d="M350 364q0 -81 39.5 -123t115.5 -42q95 0 165.5 65t96.5 187l130 610h280l-225 -1061h-262l27 129q-119 -154 -248 -154q-71 0 -113.5 34t-64.5 120l-113 -532h-281l311 1464h281l-128 -601q-11 -55 -11 -96z" />
    <glyph glyph-name="nu" unicode="&#x3bd;" horiz-adv-x="1124" 
d="M460 316q271 329 402 745h279q-104 -298 -275 -563t-420 -498h-194l-162 1061h295l71 -744z" />
    <glyph glyph-name="xi" unicode="&#x3be;" horiz-adv-x="939" 
d="M374 895q-69 32 -100.5 87t-31.5 148q0 99 48.5 180.5t150.5 130.5t255 49h251l-46 -215h-184q-96 0 -147.5 -44t-51.5 -132q0 -50 30.5 -78.5t95.5 -28.5h168l-49 -229h-113q-104 0 -183.5 -44t-122.5 -121t-43 -173q0 -61 34.5 -101.5t118.5 -69.5q87 -31 143 -72
t85.5 -104.5t29.5 -157.5q0 -163 -127 -256.5t-403 -93.5q-26 0 -66 2l82 227q223 0 223 110q0 35 -27 57.5t-90 45.5q-106 38 -170.5 86.5t-96.5 124t-32 190.5q0 94 41 189t124 173t204 120z" />
    <glyph glyph-name="omicron" unicode="&#x3bf;" horiz-adv-x="1212" 
d="M11 422q0 184 79 335.5t222 239.5t322 88q160 0 268 -62t160.5 -164.5t52.5 -226.5q0 -194 -82 -343.5t-225.5 -231.5t-322.5 -82q-154 0 -260.5 55.5t-160 156t-53.5 235.5zM624 856q-85 0 -159 -52.5t-118.5 -147t-44.5 -215.5q0 -109 52 -172.5t142 -63.5
q92 0 167 53.5t117.5 147.5t42.5 213q0 108 -52.5 172.5t-146.5 64.5z" />
    <glyph glyph-name="pi" unicode="&#x3c0;" horiz-adv-x="1344" 
d="M74 0l178 838q-41 0 -100 -8t-116 -22l47 220q51 15 125 24t141 9h1040l-48 -223h-234l-104 -484q-9 -43 -9 -74q0 -25 16 -41t49 -16q61 0 110 11l-48 -233q-49 -13 -88 -19.5t-83 -6.5q-123 0 -184 62.5t-61 180.5q0 60 20 152l101 468h-293l-178 -838h-281z" />
    <glyph glyph-name="rho" unicode="&#x3c1;" horiz-adv-x="1248" 
d="M698 1085q141 0 243.5 -58t156.5 -163t54 -243q0 -181 -78.5 -329t-212.5 -232.5t-294 -84.5q-101 0 -168.5 35t-110.5 108h-4l-111 -524h-281l192 905q60 282 209.5 434t404.5 152zM663 861q-109 0 -178 -63t-99.5 -159t-30.5 -200q0 -117 51 -178.5t151 -61.5
q95 0 164 54t105 149t36 216q0 112 -50 177.5t-149 65.5z" />
    <glyph glyph-name="sigma1" unicode="&#x3c2;" horiz-adv-x="1014" 
d="M227 -201q120 0 169.5 29t49.5 82q0 38 -30 63t-96 49q-106 39 -173.5 94t-102 140t-34.5 209q0 158 66 299.5t204.5 231t345.5 89.5q117 0 206 -19t173 -52l-90 -229q-152 71 -286 71q-91 0 -164.5 -49t-116 -136.5t-42.5 -197.5q0 -74 36.5 -126t120.5 -83
q273 -99 273 -334q0 -100 -59.5 -181.5t-180 -130t-295.5 -48.5q-85 0 -169 14l65 227q64 -12 130 -12z" />
    <glyph glyph-name="sigma" unicode="&#x3c3;" horiz-adv-x="1289" 
d="M1115 617q0 -190 -82 -336t-225.5 -226t-322.5 -80q-154 0 -260.5 54.5t-160 152.5t-53.5 230q0 181 80 329t226 234t336 86h680l-47 -223h-237q66 -94 66 -221zM625 838q-85 0 -159.5 -51t-119 -143t-44.5 -210q0 -117 48.5 -173t152.5 -56q90 0 163 52t115.5 144
t42.5 207q0 105 -52.5 167.5t-146.5 62.5z" />
    <glyph glyph-name="tau" unicode="&#x3c4;" horiz-adv-x="879" 
d="M41 808l47 220q51 15 125 24t141 9h570l-48 -223h-284l-104 -484q-9 -43 -9 -74q0 -25 16 -41t49 -16q30 0 61 3.5t51 8.5l-54 -234q-50 -14 -86.5 -20t-80.5 -6q-123 0 -184 62.5t-61 180.5q0 60 20 152l101 468h-10q-60 0 -131.5 -8t-128.5 -22z" />
    <glyph glyph-name="upsilon" unicode="&#x3c5;" horiz-adv-x="1140" 
d="M336 326q0 -63 32 -92.5t100 -29.5q147 0 228.5 170.5t81.5 516.5q0 129 -4 170h278q4 -108 4 -180q0 -448 -153.5 -677t-460.5 -229q-389 0 -389 317q0 32 7 83t16 94l127 592h281l-133 -622q-6 -26 -10.5 -60.5t-4.5 -52.5z" />
    <glyph glyph-name="phi" unicode="&#x3c6;" horiz-adv-x="1517" 
d="M16 469q0 153 65.5 293.5t206 230.5t352.5 93l-71 -223q-88 -9 -148.5 -67t-90 -144t-29.5 -180q0 -121 57 -186.5t153 -77.5l109 511q29 137 74.5 216.5t116 114.5t179.5 35q127 0 225.5 -49.5t155 -149t56.5 -243.5q0 -173 -78.5 -316.5t-234.5 -235.5t-378 -108
l-83 -389h-272l83 389q-152 13 -252 78.5t-148 170t-48 237.5zM1140 639q0 71 -21 121t-55 75t-74 25q-42 0 -61 -27.5t-33 -92.5l-111 -528q114 19 194 80.5t120.5 151.5t40.5 195z" />
    <glyph glyph-name="chi" unicode="&#x3c7;" horiz-adv-x="1088" 
d="M509 599l305 462h307l-504 -711l219 -756h-287l-129 517l-348 -517h-304l541 761l-195 706h284z" />
    <glyph glyph-name="psi" unicode="&#x3c8;" horiz-adv-x="1552" 
d="M1082 475l125 586h281l-124 -583q-35 -165 -104 -271.5t-192 -163.5t-316 -63l-82 -386h-272l82 386q-215 15 -314 109t-99 257q0 72 20 167l117 548h281l-125 -586q-11 -53 -11 -91q0 -58 15.5 -95.5t55 -59t108.5 -24.5l182 856h272l-182 -857q120 12 187.5 77.5
t94.5 193.5z" />
    <glyph glyph-name="omega" unicode="&#x3c9;" horiz-adv-x="1549" 
d="M305 359q0 -83 23.5 -119t69.5 -36q124 0 178 257l71 332h281l-71 -332q-17 -83 -17 -134q0 -123 85 -123q99 0 161.5 119.5t62.5 387.5q0 81 -10 178t-29 172h289q18 -72 28.5 -169.5t10.5 -179.5q0 -242 -62.5 -407t-178 -247.5t-276.5 -82.5q-199 0 -276 152
q-67 -73 -147 -112.5t-154 -39.5q-167 0 -248.5 93t-81.5 286q0 161 69.5 343t202.5 364h291q-152 -231 -212 -402.5t-60 -299.5z" />
    <glyph glyph-name="iotadieresis" unicode="&#x3ca;" horiz-adv-x="620" 
d="M326 280q0 -25 16 -41t49 -16q44 0 110 12l-48 -234q-86 -26 -171 -26q-123 0 -184 62.5t-61 180.5q0 60 20 152l147 691h281l-150 -707q-9 -43 -9 -74zM42 1225l51 241h242l-51 -241h-242zM474 1225l51 241h242l-51 -241h-242z" />
    <glyph glyph-name="upsilondieresis" unicode="&#x3cb;" horiz-adv-x="1140" 
d="M336 326q0 -63 32 -92.5t100 -29.5q147 0 228.5 170.5t81.5 516.5q0 129 -4 170h278q4 -108 4 -180q0 -448 -153.5 -677t-460.5 -229q-389 0 -389 317q0 32 7 83t16 94l127 592h281l-133 -622q-6 -26 -10.5 -60.5t-4.5 -52.5zM334 1225l51 241h242l-51 -241h-242z
M766 1225l51 241h242l-51 -241h-242z" />
    <glyph glyph-name="omicrontonos" unicode="&#x3cc;" horiz-adv-x="1212" 
d="M11 422q0 184 79 335.5t222 239.5t322 88q160 0 268 -62t160.5 -164.5t52.5 -226.5q0 -194 -82 -343.5t-225.5 -231.5t-322.5 -82q-154 0 -260.5 55.5t-160 156t-53.5 235.5zM624 856q-85 0 -159 -52.5t-118.5 -147t-44.5 -215.5q0 -109 52 -172.5t142 -63.5
q92 0 167 53.5t117.5 147.5t42.5 213q0 108 -52.5 172.5t-146.5 64.5zM572 1171l123 295h313l-257 -295h-179z" />
    <glyph glyph-name="upsilontonos" unicode="&#x3cd;" horiz-adv-x="1140" 
d="M336 326q0 -63 32 -92.5t100 -29.5q147 0 228.5 170.5t81.5 516.5q0 129 -4 170h278q4 -108 4 -180q0 -448 -153.5 -677t-460.5 -229q-389 0 -389 317q0 32 7 83t16 94l127 592h281l-133 -622q-6 -26 -10.5 -60.5t-4.5 -52.5zM547 1171l123 295h313l-257 -295h-179z" />
    <glyph glyph-name="omegatonos" unicode="&#x3ce;" horiz-adv-x="1549" 
d="M305 359q0 -83 23.5 -119t69.5 -36q124 0 178 257l71 332h281l-71 -332q-17 -83 -17 -134q0 -123 85 -123q99 0 161.5 119.5t62.5 387.5q0 81 -10 178t-29 172h289q18 -72 28.5 -169.5t10.5 -179.5q0 -242 -62.5 -407t-178 -247.5t-276.5 -82.5q-199 0 -276 152
q-67 -73 -147 -112.5t-154 -39.5q-167 0 -248.5 93t-81.5 286q0 161 69.5 343t202.5 364h291q-152 -231 -212 -402.5t-60 -299.5zM741 1171l123 295h313l-257 -295h-179z" />
    <glyph glyph-name="uni03F0" unicode="&#x3f0;" horiz-adv-x="1323" 
d="M-45 -1q110 174 198.5 397.5t88.5 359.5q0 47 -20.5 64.5t-63.5 17.5q-24 0 -42.5 -2.5t-28.5 -5.5l14 230q31 11 79 18.5t103 7.5q127 0 187.5 -63t60.5 -184q0 -72 -20 -155t-40 -136l-34 -96l603 609h260q-134 -219 -208 -420t-74 -336q0 -43 17 -62.5t62 -19.5
q19 0 38 2.5t33 5.5l-14 -230q-37 -11 -83 -18.5t-99 -7.5q-120 0 -182 63t-62 199q0 65 16 144t69 224l-598 -606h-260z" />
    <glyph glyph-name="uni03F1" unicode="&#x3f1;" horiz-adv-x="1212" 
d="M232 79q-2 -13 -2 -28l-1 -24q0 -88 51 -135t148 -47h216q115 0 167.5 -46t52.5 -135q0 -44 -12 -96h-229q0 26 -8.5 40t-41.5 14h-213q-186 0 -292 137t-106 381q0 433 175 689.5t497 256.5q226 0 354.5 -125t128.5 -329q0 -270 -175.5 -451t-428.5 -181
q-93 0 -161.5 22t-108.5 62zM397.5 745.5q-91.5 -110.5 -91.5 -286.5q0 -112 53 -171t140 -59q137 0 231.5 116t94.5 274q0 113 -53.5 175t-141.5 62q-141 0 -232.5 -110.5z" />
    <glyph glyph-name="uni0400" unicode="&#x400;" horiz-adv-x="1253" 
d="M552 1218l-71 -335h616l-53 -248h-616l-82 -387h706l-53 -248h-1001l312 1466h966l-53 -248h-671zM777 1567l-196 295h320l62 -295h-186z" />
    <glyph glyph-name="uni0401" unicode="&#x401;" horiz-adv-x="1253" 
d="M552 1218l-71 -335h616l-53 -248h-616l-82 -387h706l-53 -248h-1001l312 1466h966l-53 -248h-671zM493 1596l53 251h252l-53 -251h-252zM923 1596l53 251h252l-53 -251h-252z" />
    <glyph glyph-name="uni0402" unicode="&#x402;" horiz-adv-x="1713" 
d="M984 227q93 0 162.5 37.5t107.5 106.5t38 160q0 94 -63 145t-191 51q-67 0 -148.5 -11t-155.5 -33l-145 -683h-295l259 1218h-400l53 248h1109l-53 -248h-414l-62 -294q174 57 340 57q225 0 352 -112t127 -338q0 -168 -76.5 -294t-219 -194t-335.5 -68q-143 0 -260 42
l96 250q33 -19 78 -29.5t96 -10.5z" />
    <glyph glyph-name="uni0403" unicode="&#x403;" horiz-adv-x="1104" 
d="M1210 1466l-53 -248h-605l-259 -1218h-295l312 1466h900zM609 1567l185 295h331l-319 -295h-197z" />
    <glyph glyph-name="uni0404" unicode="&#x404;" horiz-adv-x="1485" 
d="M857 1237q-150 0 -264 -98.5t-172 -260.5h493l-52 -248h-488q-1 -13 -1 -38q0 -179 71 -271t214 -92t242 70.5t165 226.5l289 -69q-92 -236 -265.5 -359t-437.5 -123q-289 0 -438.5 159.5t-149.5 462.5q0 251 108 455.5t289.5 321.5t392.5 117q252 0 403.5 -110
t188.5 -320l-297 -70q-18 116 -86.5 181t-204.5 65z" />
    <glyph glyph-name="uni0405" unicode="&#x405;" horiz-adv-x="1323" 
d="M712 1247q-64 0 -114.5 -21.5t-79 -59.5t-28.5 -87q0 -38 26.5 -68t87.5 -55t170 -54q151 -40 240 -96t130 -141.5t41 -214.5q0 -135 -72.5 -243t-207 -170t-311.5 -62q-263 0 -414.5 124t-166.5 368l303 36q8 -135 79 -207.5t204 -72.5q130 0 201.5 56t71.5 152
q0 55 -25 90t-88 62.5t-184 58.5q-145 37 -230 91t-123 130.5t-38 185.5q0 120 68 221t191 161t281 60q174 0 293 -53t180 -148.5t68 -222.5l-302 -33q-11 112 -70 162.5t-181 50.5z" />
    <glyph glyph-name="uni0406" unicode="&#x406;" horiz-adv-x="603" 
d="M-2 0l312 1466h295l-312 -1466h-295z" />
    <glyph glyph-name="uni0407" unicode="&#x407;" horiz-adv-x="603" 
d="M-2 0l312 1466h295l-312 -1466h-295zM144 1596l53 251h252l-53 -251h-252zM574 1596l53 251h252l-53 -251h-252z" />
    <glyph glyph-name="uni0408" unicode="&#x408;" horiz-adv-x="1117" 
d="M384 -25q-145 0 -240.5 46t-141 125t-45.5 182q0 46 16 127l287 37q-12 -64 -12 -111q0 -80 35 -116t106 -36q179 0 238 277l204 960h296l-204 -959q-42 -198 -109 -313.5t-170 -167t-260 -51.5z" />
    <glyph glyph-name="uni0409" unicode="&#x409;" horiz-adv-x="1982" 
d="M1856 508q0 -248 -164.5 -378t-492.5 -130h-457l260 1218h-370l-176 -829q-33 -156 -91.5 -247t-137 -129t-180.5 -38q-60 0 -100.5 7.5t-91.5 23.5l73 225q40 -8 67 -8q69 0 108 37t58 127l229 1079h959l-120 -565h126q267 0 384 -101t117 -292zM1247 248
q153 0 224.5 67t71.5 186q0 75 -49.5 113.5t-160.5 38.5h-157l-86 -405h157z" />
    <glyph glyph-name="uni040A" unicode="&#x40a;" horiz-adv-x="2058" 
d="M293 0h-295l312 1466h295l-120 -565h485l120 565h295l-119 -565h167q267 0 384 -101t117 -292q0 -248 -164.5 -378t-492.5 -130h-498l138 653h-485zM1325 248q153 0 224.5 67t71.5 186q0 75 -49.5 113.5t-160.5 38.5h-198l-86 -405h198z" />
    <glyph glyph-name="uni040B" unicode="&#x40b;" horiz-adv-x="1707" 
d="M1315 1466l-53 -248h-414l-62 -294q81 26 169 41.5t169 15.5q222 0 324.5 -94t102.5 -261q0 -33 -7.5 -85t-17.5 -101l-95 -440h-295l104 487q12 54 12 95q0 76 -45 110.5t-147 34.5q-177 0 -326 -44l-145 -683h-295l259 1218h-400l53 248h1109z" />
    <glyph glyph-name="uni040C" unicode="&#x40c;" horiz-adv-x="1343" 
d="M1027 505l148 -505h-334l-106 413q-4 12 -7 29q-19 74 -37 117t-58 73t-110 30h-89l-141 -662h-295l312 1466h295l-119 -556h59q71 0 117 13.5t83.5 48.5t80.5 103l105 166q68 108 155.5 166.5t210.5 58.5h147l-53 -248h-71q-47 0 -76.5 -19t-56.5 -62l-108 -173
q-56 -90 -112 -137t-126 -63v-4q47 -16 76.5 -39t56 -73t53.5 -143zM749 1567l185 295h331l-319 -295h-197z" />
    <glyph glyph-name="uni040D" unicode="&#x40d;" horiz-adv-x="1469" 
d="M884 0l206 971h-4l-791 -971h-297l312 1466h275l-211 -994h4l806 994h287l-312 -1466h-275zM859 1567l-196 295h320l62 -295h-186z" />
    <glyph glyph-name="uni040E" unicode="&#x40e;" horiz-adv-x="1330" 
d="M498 1466l248 -666l413 666h342l-779 -1149q-84 -124 -156.5 -196.5t-162.5 -109t-215 -36.5q-51 0 -103 10t-81 25l50 237q70 -24 119 -24q62 0 108.5 23.5t95 76.5t124.5 160l53 75l-379 908h323zM859 1695q70 0 120.5 45.5t74.5 120.5h194q-42 -148 -149.5 -225.5
t-255.5 -77.5q-147 0 -225.5 80.5t-81.5 222.5h184q0 -166 139 -166z" />
    <glyph glyph-name="uni040F" unicode="&#x40f;" horiz-adv-x="1477" 
d="M354 -406l86 406h-442l312 1466h295l-259 -1218h579l259 1218h295l-312 -1466h-442l-86 -406h-285z" />
    <glyph glyph-name="uni0410" unicode="&#x410;" horiz-adv-x="1460" 
d="M992 0l-56 332h-566l-192 -332h-330l883 1466h293l276 -1466h-308zM704 911l-191 -331h381l-53 331q-16 102 -16 240h-8q-44 -122 -113 -240z" />
    <glyph glyph-name="uni0411" unicode="&#x411;" horiz-adv-x="1267" 
d="M552 1218l-67 -317h167q267 0 384 -101t117 -292q0 -248 -164.5 -378t-492.5 -130h-498l312 1466h902l-53 -248h-607zM544 248q153 0 224.5 67t71.5 186q0 75 -49.5 113.5t-160.5 38.5h-198l-86 -405h198z" />
    <glyph glyph-name="uni0412" unicode="&#x412;" horiz-adv-x="1410" 
d="M1335 1117q0 -132 -71 -212t-212 -125q96 -29 154 -109t58 -203q0 -154 -73 -258.5t-208 -157t-321 -52.5h-664l312 1466h576q225 0 337 -90.5t112 -258.5zM1033 1088q0 76 -52.5 103t-135.5 27h-293l-71 -335h297q124 0 189.5 52.5t65.5 152.5zM957 480q0 74 -55 114.5
t-181 40.5h-293l-82 -387h296q86 0 153.5 15.5t114.5 67t47 149.5z" />
    <glyph glyph-name="uni0413" unicode="&#x413;" horiz-adv-x="1104" 
d="M1210 1466l-53 -248h-605l-259 -1218h-295l312 1466h900z" />
    <glyph glyph-name="uni0414" unicode="&#x414;" horiz-adv-x="1535" 
d="M-91 248h171q133 195 231 448.5t147 485.5l60 284h930l-259 -1218h211l-139 -654h-285l86 406h-921l-86 -406h-285zM750 1218l-4 -20q-54 -268 -140.5 -503t-220.5 -447h509l206 970h-350z" />
    <glyph glyph-name="uni0415" unicode="&#x415;" horiz-adv-x="1253" 
d="M552 1218l-71 -335h616l-53 -248h-616l-82 -387h706l-53 -248h-1001l312 1466h966l-53 -248h-671z" />
    <glyph glyph-name="uni0416" unicode="&#x416;" horiz-adv-x="2033" 
d="M500 440l-18 -27l-282 -413h-344l362 505q67 93 115 143t87.5 73t93.5 39v4q-62 15 -101.5 71.5t-56.5 147.5l-29 154q-8 42 -29.5 61.5t-68.5 19.5h-71l53 248h125q123 0 185.5 -58.5t84.5 -166.5l33 -166q14 -68 36.5 -103t63 -48.5t111.5 -13.5h61l119 556h285
l-119 -556h31q71 0 117 13.5t83.5 48.5t80.5 103l105 166q51 81 99.5 129t112 72t154.5 24h155l-53 -248h-71q-47 0 -76.5 -19t-56.5 -62l-108 -173q-56 -90 -112 -137t-126 -63v-4q47 -16 76.5 -39t56 -73t53.5 -143l148 -505h-327l-106 413q-23 89 -40.5 134.5t-59.5 80
t-118 34.5h-70l-141 -662h-285l141 662h-59q-70 0 -123 -30t-90 -73.5t-87 -118.5z" />
    <glyph glyph-name="uni0417" unicode="&#x417;" horiz-adv-x="1245" 
d="M1097 483q0 -145 -74.5 -260.5t-212 -181.5t-319.5 -66q-177 0 -283.5 50t-154 141t-52.5 223l311 52q0 -110 44.5 -166t142.5 -56q92 0 158.5 38t100 101t33.5 135q0 80 -53.5 129.5t-155.5 49.5h-104l50 235h71q86 0 147 27.5t91.5 75t30.5 106.5q0 65 -38.5 98
t-109.5 33q-83 0 -141.5 -45.5t-87.5 -133.5l-282 46q70 196 206.5 286.5t335.5 90.5q135 0 229.5 -42t143.5 -121.5t49 -190.5q0 -108 -63.5 -193.5t-218.5 -145.5l-1 -4q101 -23 154 -105.5t53 -205.5z" />
    <glyph glyph-name="uni0418" unicode="&#x418;" horiz-adv-x="1469" 
d="M884 0l206 971h-4l-791 -971h-297l312 1466h275l-211 -994h4l806 994h287l-312 -1466h-275z" />
    <glyph glyph-name="uni0419" unicode="&#x419;" horiz-adv-x="1469" 
d="M884 0l206 971h-4l-791 -971h-297l312 1466h275l-211 -994h4l806 994h287l-312 -1466h-275zM938 1695q70 0 120.5 45.5t74.5 120.5h194q-42 -148 -149.5 -225.5t-255.5 -77.5q-147 0 -225.5 80.5t-81.5 222.5h184q0 -166 139 -166z" />
    <glyph glyph-name="uni041A" unicode="&#x41a;" horiz-adv-x="1343" 
d="M1027 505l148 -505h-334l-106 413q-4 12 -7 29q-19 74 -37 117t-58 73t-110 30h-89l-141 -662h-295l312 1466h295l-119 -556h59q71 0 117 13.5t83.5 48.5t80.5 103l105 166q68 108 155.5 166.5t210.5 58.5h147l-53 -248h-71q-47 0 -76.5 -19t-56.5 -62l-108 -173
q-56 -90 -112 -137t-126 -63v-4q47 -16 76.5 -39t56 -73t53.5 -143z" />
    <glyph glyph-name="uni041B" unicode="&#x41b;" horiz-adv-x="1388" 
d="M-5 223q70 0 108.5 38t57.5 126l229 1079h999l-311 -1466h-295l259 1218h-410l-184 -867q-42 -198 -137.5 -287t-257.5 -89q-65 0 -112.5 8t-95.5 23l83 225q40 -8 67 -8z" />
    <glyph glyph-name="uni041C" unicode="&#x41c;" horiz-adv-x="1784" 
d="M1332 1466h454l-312 -1466h-275l246 1155l-565 -1155h-284l-77 1155l-246 -1155h-275l312 1466h434l77 -1038z" />
    <glyph glyph-name="uni041D" unicode="&#x41d;" horiz-adv-x="1477" 
d="M1064 901l120 565h295l-312 -1466h-295l139 653h-579l-139 -653h-295l312 1466h295l-120 -565h579z" />
    <glyph glyph-name="uni041E" unicode="&#x41e;" horiz-adv-x="1608" 
d="M64 596q0 252 110.5 456.5t304 321.5t430.5 117q184 0 328.5 -79t225 -220.5t80.5 -322.5q0 -260 -112.5 -463.5t-305.5 -317t-424 -113.5q-203 0 -346.5 77t-217 217t-73.5 327zM885 1237q-152 0 -267.5 -80t-178.5 -224t-63 -328q0 -111 37.5 -196.5t111 -132.5
t178.5 -47q154 0 274.5 81.5t187.5 225.5t67 325q0 111 -42 196.5t-120.5 132.5t-184.5 47z" />
    <glyph glyph-name="uni041F" unicode="&#x41f;" horiz-adv-x="1477" 
d="M872 0l259 1218h-579l-259 -1218h-295l312 1466h1169l-312 -1466h-295z" />
    <glyph glyph-name="uni0420" unicode="&#x420;" horiz-adv-x="1287" 
d="M1294 1076q0 -161 -68 -278.5t-207 -181.5t-347 -64h-262l-117 -552h-295l312 1466h467q271 0 394 -99.5t123 -290.5zM978 1057q0 76 -52.5 118.5t-155.5 42.5h-218l-89 -418h218q164 0 230.5 67.5t66.5 189.5z" />
    <glyph glyph-name="uni0421" unicode="&#x421;" horiz-adv-x="1485" 
d="M857 1237q-142 0 -252.5 -89.5t-171 -237.5t-60.5 -318q0 -179 71 -271t214 -92t242 70.5t165 226.5l289 -69q-92 -236 -265.5 -359t-437.5 -123q-289 0 -438.5 159.5t-149.5 462.5q0 251 108 455.5t290.5 321.5t391.5 117q252 0 403.5 -110t188.5 -320l-297 -70
q-18 116 -86.5 181t-204.5 65z" />
    <glyph glyph-name="uni0422" unicode="&#x422;" horiz-adv-x="1243" 
d="M872 1218l-259 -1218h-295l259 1218h-424l53 248h1143l-53 -248h-424z" />
    <glyph glyph-name="uni0423" unicode="&#x423;" horiz-adv-x="1330" 
d="M498 1466l248 -666l413 666h342l-779 -1149q-84 -124 -156.5 -196.5t-162.5 -109t-215 -36.5q-51 0 -103 10t-81 25l50 237q70 -24 119 -24q62 0 108.5 23.5t95 76.5t124.5 160l53 75l-379 908h323z" />
    <glyph glyph-name="uni0424" unicode="&#x424;" horiz-adv-x="1563" 
d="M67 657q0 294 181.5 461t515.5 197l32 151h281l-32 -151q210 -19 332 -140t122 -346q0 -294 -181.5 -461t-515.5 -197l-36 -171h-281l36 171q-210 19 -332 140t-122 346zM569 398l147 690q-121 -16 -199.5 -78.5t-115.5 -157.5t-37 -210q0 -113 51 -172t154 -72z
M997 1088l-147 -690q121 16 199.5 78.5t115.5 157.5t37 210q0 113 -51 172t-154 72z" />
    <glyph glyph-name="uni0425" unicode="&#x425;" horiz-adv-x="1374" 
d="M726 965h4q33 53 104 143l284 358h362l-607 -722l340 -744h-341l-168 386q-28 65 -48 148h-4q-43 -63 -113 -149l-319 -385h-371l661 774l-302 692h328l143 -351q29 -69 47 -150z" />
    <glyph glyph-name="uni0426" unicode="&#x426;" horiz-adv-x="1556" 
d="M310 1466h295l-259 -1218h569l259 1218h295l-259 -1218h211l-139 -654h-285l86 406h-1085z" />
    <glyph glyph-name="uni0427" unicode="&#x427;" horiz-adv-x="1411" 
d="M550 505q-131 0 -218 44.5t-128.5 119.5t-41.5 170q0 54 4.5 96.5t14.5 89.5l94 441h295l-99 -467q-12 -54 -12 -95q0 -76 45 -110.5t147 -34.5q177 0 325 44l141 663h295l-311 -1466h-295l119 562q-81 -27 -177.5 -42t-197.5 -15z" />
    <glyph glyph-name="uni0428" unicode="&#x428;" horiz-adv-x="1993" 
d="M310 1466h295l-259 -1218h400l259 1218h295l-259 -1218h400l259 1218h295l-312 -1466h-1685z" />
    <glyph glyph-name="uni0429" unicode="&#x429;" horiz-adv-x="2082" 
d="M310 1466h295l-259 -1218h400l259 1218h295l-259 -1218h400l259 1218h295l-259 -1218h211l-139 -654h-285l86 406h-1611z" />
    <glyph glyph-name="uni042A" unicode="&#x42a;" horiz-adv-x="1497" 
d="M1373 508q0 -248 -164.5 -378t-492.5 -130h-498l259 1218h-374l53 248h669l-120 -565h167q267 0 384 -101t117 -292zM764 248q153 0 224.5 67t71.5 186q0 75 -49.5 113.5t-160.5 38.5h-198l-86 -405h198z" />
    <glyph glyph-name="uni042B" unicode="&#x42b;" horiz-adv-x="1793" 
d="M605 1466l-120 -565h127q267 0 384 -101t117 -292q0 -248 -164.5 -378t-492.5 -130h-458l312 1466h295zM1188 0l312 1466h295l-312 -1466h-295zM504 248q153 0 224.5 67t71.5 186q0 75 -49.5 113.5t-160.5 38.5h-158l-86 -405h158z" />
    <glyph glyph-name="uni042C" unicode="&#x42c;" horiz-adv-x="1277" 
d="M605 1466l-120 -565h167q267 0 384 -101t117 -292q0 -248 -164.5 -378t-492.5 -130h-498l312 1466h295zM544 248q153 0 224.5 67t71.5 186q0 75 -49.5 113.5t-160.5 38.5h-198l-86 -405h198z" />
    <glyph glyph-name="uni042D" unicode="&#x42d;" horiz-adv-x="1485" 
d="M834 1491q289 0 438.5 -159.5t149.5 -462.5q0 -251 -108 -455.5t-289.5 -321.5t-392.5 -117q-186 0 -315.5 59t-199.5 166.5t-83 255.5l297 70q11 -150 84 -223.5t213 -73.5q107 0 197 51.5t154 142.5t98 207h-498l52 248h481q-1 175 -76.5 267t-218.5 92
q-131 0 -225 -59t-159 -187l-280 70q195 430 681 430z" />
    <glyph glyph-name="uni042E" unicode="&#x42e;" horiz-adv-x="2046" 
d="M606 596v17h-183l-130 -613h-295l312 1466h295l-129 -605h162q46 186 154 329t261.5 222t334.5 79q172 0 307.5 -79t211.5 -220.5t76 -322.5q0 -260 -105 -463.5t-284.5 -317t-394.5 -113.5q-189 0 -322.5 77t-202 217t-68.5 327zM1361 1237q-137 0 -240.5 -80
t-160 -223.5t-56.5 -328.5q0 -111 33.5 -196t99.5 -132.5t160 -47.5q138 0 246.5 81.5t168.5 225.5t60 325q0 111 -37.5 196.5t-108 132.5t-165.5 47z" />
    <glyph glyph-name="uni042F" unicode="&#x42f;" horiz-adv-x="1380" 
d="M775 0l130 612h-41q-84 0 -132 -9t-80.5 -29.5t-76.5 -63.5q-66 -66 -170 -217l-202 -293h-339l277 394q88 125 149 179t126 76l1 4q-128 39 -192.5 125.5t-64.5 229.5q0 129 67 233t195.5 164.5t306.5 60.5h653l-312 -1466h-295zM748 1219q-147 0 -214 -55t-67 -169
q0 -80 60.5 -114.5t176.5 -34.5h251l79 373h-286z" />
    <glyph glyph-name="uni0430" unicode="&#x430;" horiz-adv-x="1126" 
d="M881 141q0 -58 22 -141h-271q-2 9 -9 35.5t-7 53.5l1 28q-85 -70 -170.5 -106t-155.5 -36q-160 0 -241.5 73t-81.5 205q0 149 112 245.5t344 131.5q198 30 282 58q10 47 10 74q0 61 -38 84.5t-113 23.5q-71 0 -125 -31.5t-91 -101.5l-248 39q51 107 112.5 174t149 101
t211.5 34q223 0 323 -75t100 -220q0 -56 -15 -127l-85 -401q-16 -75 -16 -121zM442 455q-186 -34 -186 -177q0 -50 30.5 -77t88.5 -27q69 0 134 35q45 24 70.5 50.5t43 71.5t34.5 126l11 51q-70 -23 -226 -53z" />
    <glyph glyph-name="uni0431" unicode="&#x431;" horiz-adv-x="1212" 
d="M1115 622q0 -194 -81.5 -341t-225 -226.5t-323.5 -79.5q-240 0 -357 130t-117 353q0 229 83.5 463.5t241.5 389.5t370 155h259q33 0 50 14t24 40h229q-16 -105 -56 -165.5t-105.5 -86t-164.5 -25.5h-173q-129 0 -211 -55t-128 -190l12 -4q52 31 107.5 51t124.5 20
q142 0 241.5 -59.5t149.5 -160.5t50 -223zM624 836q-86 0 -159.5 -47.5t-118 -137t-44.5 -210.5q0 -109 52 -172.5t142 -63.5q93 0 167.5 51t117 143t42.5 210q0 107 -52 167t-147 60z" />
    <glyph glyph-name="uni0432" unicode="&#x432;" horiz-adv-x="1103" 
d="M985 802q0 -83 -43.5 -140.5t-141.5 -106.5q70 -33 104.5 -91t34.5 -147q0 -92 -49.5 -163.5t-150 -112.5t-247.5 -41h-509l226 1061h392q194 0 289 -63.5t95 -195.5zM692 745q0 52 -26.5 76.5t-73.5 24.5h-148l-44 -206h150q65 0 103.5 30.5t38.5 74.5zM485 215
q79 0 124.5 33t45.5 84q0 59 -36.5 86t-100.5 27h-159l-49 -230h175z" />
    <glyph glyph-name="uni0433" unicode="&#x433;" horiz-adv-x="859" 
d="M904 1061l-48 -223h-414l-178 -838h-281l226 1061h695z" />
    <glyph glyph-name="uni0434" unicode="&#x434;" horiz-adv-x="1276" 
d="M375 1061h765l-178 -838h182l-122 -573h-272l74 350h-700l-74 -350h-272l122 573h152q120 200 198 408t125 430zM589 838q-68 -293 -245 -615h337l131 615h-223z" />
    <glyph glyph-name="uni0435" unicode="&#x435;" horiz-adv-x="1171" 
d="M289 380q0 -92 46 -141t130 -49q89 0 155.5 40.5t102.5 107.5l270 -44q-172 -319 -528 -319q-152 0 -254.5 51.5t-153 145t-50.5 220.5q0 180 77.5 339.5t218.5 256.5t321 97q140 0 241.5 -51t155 -143t53.5 -213q0 -87 -17 -166l-18 -76h-746q-4 -27 -4 -56zM337 641
h465q3 24 3 45q0 90 -47.5 137t-135.5 47q-94 0 -172 -60.5t-113 -168.5z" />
    <glyph glyph-name="uni0436" unicode="&#x436;" horiz-adv-x="1548" 
d="M415 337l-236 -337h-313l293 395q49 66 99 102.5t116 49.5q-33 14 -57 46t-40 84l-30 96q-11 43 -28.5 58t-59.5 15h-63l46 215h99q86 0 132 -16t70.5 -53.5t44.5 -112.5l30 -111q14 -53 37 -84.5t66 -31.5l87 409h272l-87 -409q77 0 151 116l71 111q48 74 91 112.5
t98 54t143 15.5h99l-46 -215h-48q-42 0 -66 -15t-53 -58l-64 -96q-34 -51 -76.5 -80.5t-98.5 -49.5q58 -13 87.5 -48t53.5 -104l135 -395h-303l-102 337q-13 43 -29 64.5t-36 28.5t-53 7l-93 -437h-272l93 437q-33 0 -56.5 -6.5t-48 -28t-55.5 -65.5z" />
    <glyph glyph-name="uni0437" unicode="&#x437;" horiz-adv-x="1050" 
d="M563 1086q202 0 302 -75t100 -202q0 -92 -58 -155.5t-191 -98.5q85 -26 126.5 -87.5t41.5 -148.5q0 -104 -56.5 -181.5t-164.5 -119.5t-258 -42q-218 0 -331 69t-135 205l285 77q9 -73 48.5 -104.5t125.5 -31.5q103 0 151.5 43t48.5 106q0 46 -34.5 75t-112.5 29h-71
l46 215h74q90 0 133 35t43 90q0 37 -30 62t-99 25q-78 0 -127 -34t-94 -112l-234 101q51 93 114.5 150t150 83.5t206.5 26.5z" />
    <glyph glyph-name="uni0438" unicode="&#x438;" horiz-adv-x="1208" 
d="M368 490l485 571h286l-226 -1061h-281l121 571l-484 -571h-286l226 1061h281z" />
    <glyph glyph-name="uni0439" unicode="&#x439;" horiz-adv-x="1208" 
d="M368 490l485 571h286l-226 -1061h-281l121 571l-484 -571h-286l226 1061h281zM727 1325q68 0 112 44t68 122h194q-42 -148 -141 -225.5t-239 -77.5q-148 0 -224 81t-78 222h184q0 -77 32 -121.5t92 -44.5z" />
    <glyph glyph-name="uni043A" unicode="&#x43a;" horiz-adv-x="1083" 
d="M403 652q36 0 63 15t46 37.5t47 63.5l78 111q53 75 93.5 112.5t93 53.5t138.5 16h109l-46 -215h-48q-42 0 -66 -15t-53 -58l-64 -96q-35 -53 -73.5 -82t-91.5 -48q50 -11 84 -47.5t57 -104.5l135 -395h-300l-102 337q-12 39 -28 60t-43.5 30.5t-74.5 9.5l-93 -437h-281
l226 1061h281z" />
    <glyph glyph-name="uni043B" unicode="&#x43b;" horiz-adv-x="1208" 
d="M913 0h-281l178 838h-308l-112 -524q-26 -123 -71.5 -196.5t-119 -107.5t-184.5 -34q-40 0 -86.5 7t-85.5 18l79 223q30 -10 50 -10q68 0 99.5 34.5t46.5 104.5l150 708h870z" />
    <glyph glyph-name="uni043C" unicode="&#x43c;" horiz-adv-x="1472" 
d="M978 1061h425l-226 -1061h-262l159 750l-365 -750h-258l-47 750l-159 -750h-262l226 1061h411l43 -643z" />
    <glyph glyph-name="uni043D" unicode="&#x43d;" horiz-adv-x="1208" 
d="M724 432h-368l-92 -432h-281l226 1061h281l-87 -406h368l87 406h281l-226 -1061h-281z" />
    <glyph glyph-name="uni043E" unicode="&#x43e;" horiz-adv-x="1212" 
d="M11 422q0 184 79 335.5t222 239.5t322 88q160 0 268 -62t160.5 -164.5t52.5 -226.5q0 -194 -82 -343.5t-225.5 -231.5t-322.5 -82q-154 0 -260.5 55.5t-160 156t-53.5 235.5zM624 856q-85 0 -159 -52.5t-118.5 -147t-44.5 -215.5q0 -109 52 -172.5t142 -63.5
q92 0 167 53.5t117.5 147.5t42.5 213q0 108 -52.5 172.5t-146.5 64.5z" />
    <glyph glyph-name="uni043F" unicode="&#x43f;" horiz-adv-x="1208" 
d="M913 0h-281l178 838h-368l-178 -838h-281l226 1061h930z" />
    <glyph glyph-name="uni0440" unicode="&#x440;" horiz-adv-x="1253" 
d="M294 114h-5l-111 -520h-281l312 1467h262l-30 -138h5q62 81 138 121.5t185 40.5q114 0 202 -54t137 -154.5t49 -233.5q0 -194 -71 -346t-198.5 -237t-290.5 -85q-108 0 -180.5 31t-122.5 108zM695 861q-88 0 -165 -48.5t-124.5 -147.5t-47.5 -242q0 -105 49 -164.5
t138 -59.5q103 0 175.5 57.5t109.5 156t37 220.5q0 108 -45 168t-127 60z" />
    <glyph glyph-name="uni0441" unicode="&#x441;" horiz-adv-x="1127" 
d="M583 861q-83 0 -147.5 -59.5t-99.5 -158t-35 -211.5q0 -103 43.5 -165t131.5 -62q79 0 142 52.5t99 150.5l276 -48q-70 -200 -202.5 -292.5t-327.5 -92.5q-216 0 -335 111t-119 346q0 181 73.5 330t207.5 236t309 87q381 0 450 -342l-276 -50q-8 80 -56 124t-134 44z" />
    <glyph glyph-name="uni0442" unicode="&#x442;" horiz-adv-x="859" 
d="M596 838l-178 -838h-281l178 838h-264l47 223h809l-47 -223h-264z" />
    <glyph glyph-name="uni0443" unicode="&#x443;" horiz-adv-x="1139" 
d="M468 307h4q54 110 72 143l334 611h301l-640 -1092q-101 -173 -174 -257.5t-143 -113t-174 -28.5q-54 0 -101 6t-111 21l93 215q57 -19 95 -19q51 0 87 16t72 59.5t84 129.5l-180 1063h289l79 -604q8 -57 10.5 -100t2.5 -50z" />
    <glyph glyph-name="uni0444" unicode="&#x444;" horiz-adv-x="1879" 
d="M667 118q-66 -77 -137 -110t-148 -33q-181 0 -276.5 114t-95.5 332q0 177 67.5 329.5t186 243.5t259.5 91q129 0 204 -40.5t115 -119.5l114 541h281l-112 -524h4q66 77 137 110t148 33q181 0 276.5 -114t95.5 -332q0 -177 -67.5 -329.5t-185 -243.5t-260.5 -91
q-129 0 -204.5 40t-115.5 118l-113 -539h-281l112 524h-4zM476 199q83 0 150 50.5t106 145.5t39 223q0 120 -44.5 181.5t-128.5 61.5q-83 0 -150 -54.5t-105.5 -153.5t-38.5 -226q0 -109 43 -168.5t129 -59.5zM1320 861q-83 0 -150 -50.5t-106 -145.5t-39 -223
q0 -120 44.5 -181.5t128.5 -61.5q83 0 150 54.5t105.5 153.5t38.5 226q0 109 -43 168.5t-129 59.5z" />
    <glyph glyph-name="uni0445" unicode="&#x445;" horiz-adv-x="1126" 
d="M548 753h4q54 70 79 103.5t46 57.5l124 147h338l-452 -502l259 -559h-319l-85 210q-33 78 -47 139h-4q-40 -62 -110 -144l-170 -205h-343l484 547l-241 514h327l57 -146q26 -66 53 -162z" />
    <glyph glyph-name="uni0446" unicode="&#x446;" horiz-adv-x="1275" 
d="M490 1061l-179 -838h368l179 838h281l-179 -838h182l-121 -573h-272l74 350h-840l226 1061h281z" />
    <glyph glyph-name="uni0447" unicode="&#x447;" horiz-adv-x="1181" 
d="M385 326q-100 0 -167.5 39t-100 100.5t-32.5 128.5q0 72 21 175l60 292h281l-67 -313q-10 -50 -10 -83q0 -61 31 -92.5t100 -31.5q50 0 88.5 8t64 18.5t80.5 35.5l97 458h281l-228 -1061h-281l87 401q-58 -34 -139 -54.5t-166 -20.5z" />
    <glyph glyph-name="uni0448" unicode="&#x448;" horiz-adv-x="1805" 
d="M1455 1061h281l-226 -1061h-1527l226 1061h281l-179 -838h342l179 838h281l-179 -838h342z" />
    <glyph glyph-name="uni0449" unicode="&#x449;" horiz-adv-x="1872" 
d="M1455 1061h281l-179 -838h182l-121 -573h-272l74 350h-1437l226 1061h281l-179 -838h342l179 838h281l-179 -838h342z" />
    <glyph glyph-name="uni044A" unicode="&#x44a;" horiz-adv-x="1179" 
d="M671 667q194 0 286.5 -74t92.5 -233q0 -167 -121 -263.5t-377 -96.5h-419l178 838h-264l47 223h546l-84 -394h115zM584 223q83 0 127 35t44 100q0 86 -124 86h-123l-47 -221h123z" />
    <glyph glyph-name="uni044B" unicode="&#x44b;" horiz-adv-x="1519" 
d="M870 360q0 -167 -121 -263.5t-377 -96.5h-389l226 1061h281l-84 -394h85q194 0 286.5 -74t92.5 -233zM943 0l226 1061h281l-226 -1061h-281zM404 223q83 0 127 35t44 100q0 86 -124 86h-93l-47 -221h93z" />
    <glyph glyph-name="uni044C" unicode="&#x44c;" horiz-adv-x="1029" 
d="M900 360q0 -167 -121 -263.5t-377 -96.5h-419l226 1061h281l-84 -394h115q194 0 286.5 -74t92.5 -233zM434 223q83 0 127 35t44 100q0 86 -124 86h-123l-47 -221h123z" />
    <glyph glyph-name="uni044D" unicode="&#x44d;" horiz-adv-x="1127" 
d="M580 1085q216 0 335 -111t119 -346q0 -181 -73.5 -330t-207.5 -236t-309 -87q-140 0 -232.5 34t-148.5 118t-77 233l280 47q9 -82 32.5 -125.5t62 -60t99.5 -16.5q87 0 153 61.5t99 165.5h-327l48 223h308q-6 93 -49.5 149.5t-124.5 56.5q-69 0 -127.5 -44t-96.5 -125
l-275 54q73 177 200.5 258t311.5 81z" />
    <glyph glyph-name="uni044E" unicode="&#x44e;" horiz-adv-x="1656" 
d="M516 422v10h-160l-92 -432h-281l226 1061h281l-87 -406h147q39 127 118.5 224t192 151.5t245.5 54.5q151 0 253.5 -62t152 -164.5t49.5 -226.5q0 -194 -77.5 -343.5t-213.5 -231.5t-305 -82q-146 0 -246.5 55.5t-151.5 156t-51 235.5zM1089 856q-76 0 -143 -52.5
t-107 -147t-40 -215.5q0 -109 47 -172.5t128 -63.5q84 0 151 53t105.5 147.5t38.5 213.5q0 108 -47.5 172.5t-132.5 64.5z" />
    <glyph glyph-name="uni044F" unicode="&#x44f;" horiz-adv-x="1091" 
d="M425 294l-236 -294h-323l288 346q32 38 67 64.5t69 37.5q-88 29 -137.5 100.5t-49.5 166.5q0 98 53 176.5t157.5 124t253.5 45.5h455l-226 -1061h-281l84 394h-28q-30 0 -64 -20t-82 -80zM542 838q-71 0 -109 -30.5t-38 -92.5q0 -47 33.5 -76.5t92.5 -29.5h123l49 229
h-151z" />
    <glyph glyph-name="uni0450" unicode="&#x450;" horiz-adv-x="1171" 
d="M289 380q0 -92 46 -141t130 -49q89 0 155.5 40.5t102.5 107.5l270 -44q-172 -319 -528 -319q-152 0 -254.5 51.5t-153 145t-50.5 220.5q0 180 77.5 339.5t218.5 256.5t321 97q140 0 241.5 -51t155 -143t53.5 -213q0 -87 -17 -166l-18 -76h-746q-4 -27 -4 -56zM337 641
h465q3 24 3 45q0 90 -47.5 137t-135.5 47q-94 0 -172 -60.5t-113 -168.5zM638 1196l-211 295h313l77 -295h-179z" />
    <glyph glyph-name="uni0451" unicode="&#x451;" horiz-adv-x="1171" 
d="M289 380q0 -92 46 -141t130 -49q89 0 155.5 40.5t102.5 107.5l270 -44q-172 -319 -528 -319q-152 0 -254.5 51.5t-153 145t-50.5 220.5q0 180 77.5 339.5t218.5 256.5t321 97q140 0 241.5 -51t155 -143t53.5 -213q0 -87 -17 -166l-18 -76h-746q-4 -27 -4 -56zM337 641
h465q3 24 3 45q0 90 -47.5 137t-135.5 47q-94 0 -172 -60.5t-113 -168.5zM333 1225l51 241h242l-51 -241h-242zM765 1225l51 241h242l-51 -241h-242z" />
    <glyph glyph-name="uni0452" unicode="&#x452;" horiz-adv-x="1219" 
d="M524 -430q-50 0 -102.5 9t-95.5 22l93 225q40 -8 72 -8q68 0 99.5 35t49.5 119l149 691q10 50 10 83q0 61 -31 92.5t-100 31.5q-74 0 -131.5 -39t-94.5 -102.5t-53 -140.5l-125 -588h-281l250 1176h-139l40 186h139l22 104h281l-22 -104h294l-40 -186h-294l-49 -232
q69 68 151 104.5t168 36.5q100 0 167.5 -39t100 -100.5t32.5 -128.5q0 -79 -21 -175l-142 -668q-33 -154 -83 -241.5t-125 -125t-189 -37.5z" />
    <glyph glyph-name="uni0453" unicode="&#x453;" horiz-adv-x="859" 
d="M904 1061l-48 -223h-414l-178 -838h-281l226 1061h695zM441 1196l200 295h316l-334 -295h-182z" />
    <glyph glyph-name="uni0454" unicode="&#x454;" horiz-adv-x="1127" 
d="M583 861q-81 0 -143.5 -56t-99.5 -150h331l-47 -223h-323q0 -103 43.5 -165t131.5 -62q79 0 142 52.5t99 150.5l276 -48q-70 -200 -201 -292.5t-329 -92.5q-216 0 -335 111t-119 346q0 181 73.5 330t207.5 236t309 87q381 0 450 -342l-276 -50q-8 80 -56 124t-134 44z
" />
    <glyph glyph-name="uni0455" unicode="&#x455;" horiz-adv-x="1049" 
d="M531 885q-73 0 -115.5 -28.5t-42.5 -74.5q0 -29 16.5 -50t59 -38t122.5 -31q126 -22 199.5 -64t104.5 -105t31 -153q0 -103 -59.5 -186.5t-169.5 -131.5t-256 -48q-232 0 -336 86.5t-111 241.5l272 42q0 -85 42 -127t148 -42q88 0 135.5 36t47.5 93q0 40 -37 66t-139 42
q-189 30 -271 111t-82 206q0 99 52 180t153.5 128t244.5 47q190 0 297 -72.5t131 -211.5l-276 -39q-6 56 -46 89.5t-115 33.5z" />
    <glyph glyph-name="uni0456" unicode="&#x456;" horiz-adv-x="559" 
d="M239 1206l56 260h281l-56 -260h-281zM-17 0l226 1061h281l-226 -1061h-281z" />
    <glyph glyph-name="uni0457" unicode="&#x457;" horiz-adv-x="559" 
d="M-17 0l226 1061h281l-226 -1061h-281zM47 1225l51 241h242l-51 -241h-242zM479 1225l51 241h242l-51 -241h-242z" />
    <glyph glyph-name="uni0458" unicode="&#x458;" horiz-adv-x="562" 
d="M242 1206l55 260h281l-55 -260h-281zM-136 -430q-50 0 -102.5 9t-95.5 22l93 225q40 -8 72 -8q68 0 99.5 34.5t49.5 119.5l231 1089h281l-231 -1087q-33 -158 -83 -244t-125 -123t-189 -37z" />
    <glyph glyph-name="uni0459" unicode="&#x459;" horiz-adv-x="1619" 
d="M1490 360q0 -169 -121.5 -264.5t-376.5 -95.5h-390l179 838h-279l-114 -534q-26 -120 -73 -191.5t-121 -104t-184 -32.5q-73 0 -162 25l74 223q30 -10 50 -10q68 0 99.5 34.5t46.5 104.5l150 708h841l-84 -394h86q194 0 286.5 -74t92.5 -233zM1024 223q83 0 127 35
t44 100q0 86 -124 86h-94l-47 -221h94z" />
    <glyph glyph-name="uni045A" unicode="&#x45a;" horiz-adv-x="1579" 
d="M264 0h-281l226 1061h281l-84 -394h299l84 394h281l-84 -394h85q194 0 286.5 -74t92.5 -233q0 -167 -121 -263.5t-377 -96.5h-389l94 444h-299zM984 223q83 0 127 35t44 100q0 86 -124 86h-93l-47 -221h93z" />
    <glyph glyph-name="uni045B" unicode="&#x45b;" horiz-adv-x="1219" 
d="M799 746q0 61 -31.5 92.5t-99.5 31.5q-72 0 -130.5 -39t-95.5 -104t-53 -139l-125 -588h-281l250 1176h-139l40 186h139l22 104h281l-22 -104h294l-40 -186h-294l-49 -232q69 68 151 104.5t168 36.5q100 0 167.5 -39t100 -100.5t32.5 -128.5q0 -79 -21 -175l-136 -642
h-281l143 663q10 50 10 83z" />
    <glyph glyph-name="uni045C" unicode="&#x45c;" horiz-adv-x="1083" 
d="M403 652q36 0 63 15t46 37.5t47 63.5l78 111q53 75 93.5 112.5t93 53.5t138.5 16h109l-46 -215h-48q-42 0 -66 -15t-53 -58l-64 -96q-35 -53 -73.5 -82t-91.5 -48q50 -11 84 -47.5t57 -104.5l135 -395h-300l-102 337q-12 39 -28 60t-43.5 30.5t-74.5 9.5l-93 -437h-281
l226 1061h281zM543 1196l200 295h316l-334 -295h-182z" />
    <glyph glyph-name="uni045D" unicode="&#x45d;" horiz-adv-x="1208" 
d="M368 490l485 571h286l-226 -1061h-281l121 571l-484 -571h-286l226 1061h281zM620 1196l-211 295h313l77 -295h-179z" />
    <glyph glyph-name="uni045E" unicode="&#x45e;" horiz-adv-x="1139" 
d="M468 307h4q54 110 72 143l334 611h301l-640 -1092q-101 -173 -174 -257.5t-143 -113t-174 -28.5q-54 0 -101 6t-111 21l93 215q57 -19 95 -19q51 0 87 16t72 59.5t84 129.5l-180 1063h289l79 -604q8 -57 10.5 -100t2.5 -50zM692 1325q68 0 112 44t68 122h194
q-42 -148 -141 -225.5t-239 -77.5q-148 0 -224 81t-78 222h184q0 -77 32 -121.5t92 -44.5z" />
    <glyph glyph-name="uni045F" unicode="&#x45f;" horiz-adv-x="1208" 
d="M490 1061l-179 -838h368l179 838h281l-226 -1061h-329l-74 -350h-272l74 350h-329l226 1061h281z" />
    <glyph glyph-name="uni0490" unicode="&#x490;" horiz-adv-x="1104" 
d="M-2 0l312 1466h615l86 406h285l-139 -654h-605l-259 -1218h-295z" />
    <glyph glyph-name="uni0491" unicode="&#x491;" horiz-adv-x="859" 
d="M980 1466l-134 -628h-404l-178 -838h-281l226 1061h413l86 405h272z" />
    <glyph glyph-name="uni0492" unicode="&#x492;" horiz-adv-x="1104" 
d="M173 820l137 646h900l-53 -248h-605l-84 -398h304l-53 -248h-304l-122 -572h-295l122 572h-157l53 248h157z" />
    <glyph glyph-name="uni0493" unicode="&#x493;" horiz-adv-x="859" 
d="M109 594l100 467h695l-48 -223h-414l-52 -244h224l-47 -223h-224l-79 -371h-281l79 371h-137l47 223h137z" />
    <glyph glyph-name="uni0496" unicode="&#x496;" horiz-adv-x="2088" 
d="M500 440l-18 -27l-282 -413h-344l362 505q67 93 115 143t87.5 73t93.5 39v4q-62 15 -101.5 71.5t-56.5 147.5l-29 154q-8 42 -29.5 61.5t-68.5 19.5h-71l53 248h125q123 0 185.5 -58.5t84.5 -166.5l33 -166q14 -68 36.5 -103t63 -48.5t111.5 -13.5h61l119 556h285
l-119 -556h31q71 0 117 13.5t83.5 48.5t80.5 103l105 166q51 81 99.5 129t112 72t154.5 24h155l-53 -248h-71q-47 0 -76.5 -19t-56.5 -62l-108 -173q-56 -90 -112 -137t-126 -63v-4q47 -16 76.5 -39t56 -73t53.5 -143l75 -257h169l-139 -654h-285l86 406h-85l-106 413
q-23 89 -40.5 134.5t-59.5 80t-118 34.5h-70l-141 -662h-285l141 662h-59q-70 0 -123 -30t-90 -73.5t-87 -118.5z" />
    <glyph glyph-name="uni0497" unicode="&#x497;" horiz-adv-x="1583" 
d="M415 337l-236 -337h-313l293 395q49 66 99 102.5t116 49.5q-33 14 -57 46t-40 84l-30 96q-11 43 -28.5 58t-59.5 15h-63l46 215h99q86 0 132 -16t70.5 -53.5t44.5 -112.5l30 -111q14 -53 37 -84.5t66 -31.5l87 409h272l-87 -409q77 0 151 116l71 111q48 74 91 112.5
t98 54t143 15.5h99l-46 -215h-48q-42 0 -66 -15t-53 -58l-64 -96q-34 -51 -76.5 -80.5t-98.5 -49.5q58 -13 87.5 -48t53.5 -104l59 -172h158l-121 -573h-272l74 350h-66l-102 337q-13 43 -29 64.5t-36 28.5t-53 7l-93 -437h-272l93 437q-33 0 -56.5 -6.5t-48 -28
t-55.5 -65.5z" />
    <glyph glyph-name="uni049A" unicode="&#x49a;" horiz-adv-x="1398" 
d="M1027 505l75 -257h169l-139 -654h-285l86 406h-92l-113 439q-19 77 -37 120t-58 73t-110 30h-89l-141 -662h-295l312 1466h295l-119 -556h59q71 0 117 13.5t83.5 48.5t80.5 103l105 166q68 108 155.5 166.5t210.5 58.5h147l-53 -248h-71q-47 0 -76.5 -19t-56.5 -62
l-108 -173q-56 -90 -112 -137t-126 -63v-4q47 -16 76.5 -39t56 -73t53.5 -143z" />
    <glyph glyph-name="uni049B" unicode="&#x49b;" horiz-adv-x="1112" 
d="M403 652q36 0 63 15t46 37.5t47 63.5l78 111q53 75 93.5 112.5t93 53.5t138.5 16h109l-46 -215h-48q-42 0 -66 -15t-53 -58l-64 -96q-35 -53 -73.5 -82t-91.5 -48q50 -11 84 -47.5t57 -104.5l59 -172h152l-121 -573h-272l74 350h-57l-102 337q-12 39 -28 60t-43.5 30.5
t-74.5 9.5l-93 -437h-281l226 1061h281z" />
    <glyph glyph-name="uni04B0" unicode="&#x4b0;" horiz-adv-x="1340" 
d="M685 862h4q51 76 152 208l304 396h356l-595 -715h299l-44 -205h-384l-116 -546h-295l116 546h-384l44 205h300l-291 715h331l140 -395q40 -112 63 -209z" />
    <glyph glyph-name="uni04B1" unicode="&#x4b1;" horiz-adv-x="1124" 
d="M473 346l402 715h299l-526 -875h255l-40 -186h-314l-86 -406h-281l86 406h-314l40 186h254l-158 875h285l94 -714z" />
    <glyph glyph-name="uni04B2" unicode="&#x4b2;" horiz-adv-x="1408" 
d="M726 965h4q33 53 104 143l284 358h362l-607 -722l228 -496h180l-139 -654h-285l86 406h-71l-168 386q-28 65 -48 148h-4q-43 -63 -113 -149l-319 -385h-371l661 774l-302 692h328l143 -351q29 -69 47 -150z" />
    <glyph glyph-name="uni04B3" unicode="&#x4b3;" horiz-adv-x="1138" 
d="M548 753h4q54 70 79 103.5t46 57.5l124 147h338l-452 -502l155 -336h165l-121 -573h-272l74 350h-61l-85 210q-33 78 -47 139h-4q-40 -62 -110 -144l-170 -205h-343l484 547l-241 514h327l57 -146q26 -66 53 -162z" />
    <glyph glyph-name="uni04B6" unicode="&#x4b6;" horiz-adv-x="1500" 
d="M550 505q-131 0 -218 44.5t-128.5 119.5t-41.5 170q0 54 4.5 96.5t14.5 89.5l94 441h295l-99 -467q-12 -54 -12 -95q0 -76 45 -110.5t147 -34.5q177 0 325 44l141 663h295l-259 -1218h211l-139 -654h-285l87 406h-221l119 562q-81 -27 -177.5 -42t-197.5 -15z" />
    <glyph glyph-name="uni04B7" unicode="&#x4b7;" horiz-adv-x="1248" 
d="M690 401q-58 -35 -139 -55t-166 -20q-100 0 -167.5 39t-100 100.5t-32.5 128.5q0 72 21 175l60 292h281l-67 -313q-10 -50 -10 -83q0 -61 31 -92.5t100 -31.5q50 0 88.5 8t64 18.5t80.5 35.5l97 458h281l-180 -838h184l-122 -573h-272l74 350h-193z" />
    <glyph glyph-name="uni051A" unicode="&#x51a;" horiz-adv-x="1608" 
d="M64 596q0 252 110.5 456.5t304 321.5t430.5 117q184 0 328.5 -79t225 -220.5t80.5 -322.5q0 -218 -81 -395.5t-227 -308.5q46 -38 93.5 -66.5t104.5 -47.5l-137 -198q-72 23 -146 72.5t-135 109.5q-153 -60 -314 -60q-203 0 -346.5 77t-217 217t-73.5 327zM885 1237
q-152 0 -267.5 -80t-178.5 -224t-63 -328q0 -111 37.5 -196t111 -132.5t178.5 -47.5q64 0 119 15q-30 23 -74.5 47.5t-85.5 42.5l124 185q72 -27 137.5 -68.5t119.5 -87.5q90 86 139.5 214.5t49.5 283.5q0 111 -42 196.5t-120.5 132.5t-184.5 47z" />
    <glyph glyph-name="uni051B" unicode="&#x51b;" horiz-adv-x="1253" 
d="M1184 1061l-312 -1467h-281l109 509h-4q-137 -128 -314 -128q-181 0 -278.5 113.5t-97.5 330.5q0 181 70 333.5t197 242.5t290 90q113 0 196 -46.5t125 -133.5h5l33 156h262zM610 862q-86 0 -157 -55.5t-112 -155.5t-41 -227q0 -111 45.5 -172.5t133.5 -61.5
q91 0 165 53.5t116.5 150.5t42.5 223q0 124 -52.5 184.5t-140.5 60.5z" />
    <glyph glyph-name="uni051C" unicode="&#x51c;" horiz-adv-x="1921" 
d="M450 425h4q35 98 86 205l395 836h352l30 -841q1 -23 1 -84.5t-3 -132.5h4q45 123 84 218l351 840h315l-663 -1466h-315l-46 951q-2 48 -2 92.5t4 93.5h-4q-39 -106 -74 -180l-450 -957h-322l-33 1466h296l-2 -835q0 -100 -8 -206z" />
    <glyph glyph-name="uni051D" unicode="&#x51d;" horiz-adv-x="1611" 
d="M1657 1061l-556 -1061h-270l-27 539q-3 57 -3 175h-4q-46 -119 -73 -175l-255 -539h-273l-102 1061h272l27 -518q3 -57 5 -196h4q54 130 86 198l243 516h272l20 -524q2 -63 2 -190h4q52 123 83 189l255 525h290z" />
    <glyph glyph-name="uni058F" unicode="&#x58f;" horiz-adv-x="1163" 
d="M326 736q-80 49 -127 130.5t-47 180.5q0 185 124.5 307t339.5 122q193 0 297.5 -84.5t104.5 -235.5q0 -38 -7.5 -83t-16.5 -87l-60 -280h155l-47 -223h-155l-103 -483h-281l103 483h-205l47 223h205l58 275q10 48 14 76.5t4 50.5q0 60 -35.5 95.5t-95.5 35.5
q-69 0 -117 -46t-48 -122q0 -32 10 -60t29 -42z" />
    <glyph glyph-name="uni060B" unicode="&#x60b;" horiz-adv-x="1278" 
d="M254 439q336 4 501 57t165 178q0 38 -13 66q-36 -59 -89.5 -88t-121.5 -29q-119 0 -185.5 82t-66.5 195q0 121 96 218t265 97q174 0 286.5 -128.5t112.5 -313.5q0 -296 -235.5 -428.5t-714.5 -137.5v232zM778 -313q-14 108 -41 221.5t-61 223.5l250 73q48 -118 76.5 -246
t33.5 -225zM711.5 862q15.5 -22 50.5 -22q31 0 61 21t45 67q-14 28 -37.5 44t-52.5 16q-35 0 -58.5 -20t-23.5 -52t15.5 -54zM334 1289q47 -47 47 -115q0 -67 -46.5 -114.5t-115.5 -47.5q-68 0 -114 48t-46 114q0 68 46.5 115t113.5 47q68 0 115 -47z" />
    <glyph glyph-name="uni09F2" unicode="&#x9f2;" horiz-adv-x="1058" 
d="M745 234q-146 245 -306 448t-318 345l317 252q166 -183 291.5 -416t213.5 -510z" />
    <glyph glyph-name="uni09F3" unicode="&#x9f3;" horiz-adv-x="1663" 
d="M452 1071h129l10 47q2 13 3.5 24t1.5 26q0 37 -22 62.5t-69 25.5q-56 0 -92.5 -43t-55.5 -135h-257q27 183 133 277.5t285 94.5q184 0 266.5 -63t82.5 -190q0 -42 -11 -95l-7 -31h649l-46 -212h-647l-106 -497q-5 -26 -8 -51.5t-3 -54.5q0 -93 53 -136t160 -43
q156 0 239 74.5t83 211.5q0 58 -23.5 89.5t-73.5 31.5q-44 0 -64 -21.5t-20 -47.5q0 -21 17.5 -35.5t49.5 -14.5l-38 -182q-126 0 -191.5 56.5t-65.5 153.5q0 133 89.5 213.5t250.5 80.5q157 0 254.5 -85t97.5 -229q0 -222 -176.5 -363.5t-466.5 -141.5q-221 0 -332 98.5
t-111 284.5q0 35 4.5 73.5t12.5 73.5l98 461h-129z" />
    <glyph glyph-name="uni0AF1" unicode="&#xaf1;" horiz-adv-x="1809" 
d="M313 1410q100 38 172 48t140 10q164 0 261 -79.5t97 -213.5q0 -124 -62.5 -206t-205.5 -140q68 -34 110.5 -111.5t42.5 -176.5q0 -198 -118.5 -326.5t-315.5 -155.5q33 -54 78.5 -103t108.5 -102l-203 -195q-120 91 -205.5 189.5t-121.5 191.5q-39 21 -92 96.5t-62 142.5
l166 132q48 -20 93 -59.5t90 -100.5q134 0 210 77.5t76 210.5q0 91 -55 135t-152 44l49 232q127 0 199.5 49t72.5 135q0 52 -37 77t-111 25q-61 0 -141.5 -16.5t-131.5 -38.5zM1011.5 83.5q-93.5 90.5 -93.5 228.5q0 194 114.5 311.5t298.5 117.5q159 0 255.5 -91.5
t96.5 -234.5q0 -192 -115 -307t-302 -115q-161 0 -254.5 90.5zM1393.5 497.5q-22.5 28.5 -69.5 28.5q-57 0 -97 -56t-40 -149q0 -63 24.5 -89t68.5 -26q57 0 96.5 57t39.5 156q0 50 -22.5 78.5z" />
    <glyph glyph-name="uni0BF9" unicode="&#xbf9;" horiz-adv-x="3258" 
d="M2069.5 360.5q-90.5 96.5 -90.5 253.5q0 142 79 246t208 129q-133 150 -355.5 220.5t-564.5 70.5q-531 0 -788.5 -200t-257.5 -613q0 -309 178 -491.5t500 -182.5t484.5 113.5t162.5 339.5q0 98 -22.5 146t-71.5 48q-42 0 -76 -20.5t-55 -52.5v-367h-281v811h-188v-811
h-279v1042h1090v-231h-342v-229q50 50 102 67t113 17q140 0 216 -104.5t76 -303.5q0 -324 -241.5 -500t-687.5 -176q-428 0 -686.5 241t-258.5 634q0 313 155.5 548t452.5 362.5t703 127.5q445 0 755.5 -121.5t481.5 -361.5q226 -32 347.5 -143t121.5 -275q0 -33 -2.5 -50.5
t-5.5 -29.5h162v-223h-492q36 41 58 108t22 127q0 101 -35.5 159.5t-103.5 76.5q0 -14 5 -50.5t5 -80.5q0 -182 -86 -274.5t-260 -92.5q-157 0 -247.5 96.5zM2374 780q-68 -6 -105.5 -49.5t-37.5 -112.5q0 -71 23.5 -106t60.5 -35q44 0 67 39t23 111q0 49 -8.5 89t-22.5 64z
" />
    <glyph glyph-name="uni0E3F" unicode="&#xe3f;" horiz-adv-x="1163" 
d="M-40 0l307 1446h395l33 152h136l-34 -159q176 -19 254.5 -99t78.5 -223q0 -252 -298 -346q97 -30 154.5 -105.5t57.5 -197.5q0 -220 -146.5 -338.5t-406.5 -128.5l-44 -208h-136l44 207h-395zM497 1217l-74 -353h116l75 353h-117zM747 1206l-71 -334q83 18 127.5 71.5
t44.5 134.5q0 99 -101 128zM373 634l-85 -404h116l86 404h-117zM623 624l-82 -387q212 35 212 233q0 56 -31.5 97t-98.5 57z" />
    <glyph glyph-name="uni17DB" unicode="&#x17db;" horiz-adv-x="1185" 
d="M461 791h135l19 91q-125 7 -193 79t-68 181q0 148 105.5 237t294.5 89q177 0 305 -61.5t228 -61.5l-46 -217q-162 0 -277 63.5t-198 63.5q-59 0 -89.5 -26.5t-30.5 -66.5q0 -61 61.5 -78.5t225.5 -19.5l-58 -273h188l-46 -213h-188l-123 -578h-291q-227 0 -342 76.5
t-115 230.5q0 144 107.5 222.5t301.5 78.5l-46 -215q-45 0 -64.5 -23.5t-19.5 -55.5q0 -57 56.5 -74t181.5 -17l75 355h-135z" />
    <glyph glyph-name="uni1E62" unicode="&#x1e62;" horiz-adv-x="1323" 
d="M712 1247q-64 0 -114.5 -21.5t-79 -59.5t-28.5 -87q0 -38 26.5 -68t87.5 -55t170 -54q151 -40 240 -96t130 -141.5t41 -214.5q0 -135 -72.5 -243t-207 -170t-311.5 -62q-263 0 -414.5 124t-166.5 368l303 36q8 -135 79 -207.5t204 -72.5q130 0 201.5 56t71.5 152
q0 55 -25 90t-88 62.5t-184 58.5q-145 37 -230 91t-123 130.5t-38 185.5q0 120 68 221t191 161t281 60q174 0 293 -53t180 -148.5t68 -222.5l-302 -33q-11 112 -70 162.5t-181 50.5zM342 -415l55 261h281l-55 -261h-281z" />
    <glyph glyph-name="uni1E63" unicode="&#x1e63;" horiz-adv-x="1049" 
d="M531 885q-73 0 -115.5 -28.5t-42.5 -74.5q0 -29 16.5 -50t59 -38t122.5 -31q126 -22 199.5 -64t104.5 -105t31 -153q0 -103 -59.5 -186.5t-169.5 -131.5t-256 -48q-232 0 -336 86.5t-111 241.5l272 42q0 -85 42 -127t148 -42q88 0 135.5 36t47.5 93q0 40 -37 66t-139 42
q-189 30 -271 111t-82 206q0 99 52 180t153.5 128t244.5 47q190 0 297 -72.5t131 -211.5l-276 -39q-6 56 -46 89.5t-115 33.5zM187 -415l55 261h281l-55 -261h-281z" />
    <glyph glyph-name="uni1EA0" unicode="&#x1ea0;" horiz-adv-x="1460" 
d="M992 0l-56 332h-566l-192 -332h-330l883 1466h293l276 -1466h-308zM704 911l-191 -331h381l-53 331q-16 102 -16 240h-8q-44 -122 -113 -240zM397 -415l55 261h281l-55 -261h-281z" />
    <glyph glyph-name="uni1EA1" unicode="&#x1ea1;" horiz-adv-x="1126" 
d="M881 141q0 -58 22 -141h-271q-2 9 -9 35.5t-7 53.5l1 28q-85 -70 -170.5 -106t-155.5 -36q-160 0 -241.5 73t-81.5 205q0 149 112 245.5t344 131.5q198 30 282 58q10 47 10 74q0 61 -38 84.5t-113 23.5q-71 0 -125 -31.5t-91 -101.5l-248 39q51 107 112.5 174t149 101
t211.5 34q223 0 323 -75t100 -220q0 -56 -15 -127l-85 -401q-16 -75 -16 -121zM442 455q-186 -34 -186 -177q0 -50 30.5 -77t88.5 -27q69 0 134 35q45 24 70.5 50.5t43 71.5t34.5 126l11 51q-70 -23 -226 -53zM189 -415l55 261h281l-55 -261h-281z" />
    <glyph glyph-name="uni1EB8" unicode="&#x1eb8;" horiz-adv-x="1253" 
d="M552 1218l-71 -335h616l-53 -248h-616l-82 -387h706l-53 -248h-1001l312 1466h966l-53 -248h-671zM329 -415l55 261h281l-55 -261h-281z" />
    <glyph glyph-name="uni1EB9" unicode="&#x1eb9;" horiz-adv-x="1171" 
d="M289 380q0 -92 46 -141t130 -49q89 0 155.5 40.5t102.5 107.5l270 -44q-172 -319 -528 -319q-152 0 -254.5 51.5t-153 145t-50.5 220.5q0 180 77.5 339.5t218.5 256.5t321 97q140 0 241.5 -51t155 -143t53.5 -213q0 -87 -17 -166l-18 -76h-746q-4 -27 -4 -56zM337 641
h465q3 24 3 45q0 90 -47.5 137t-135.5 47q-94 0 -172 -60.5t-113 -168.5zM232 -415l55 261h281l-55 -261h-281z" />
    <glyph glyph-name="uni1ECA" unicode="&#x1eca;" horiz-adv-x="603" 
d="M-2 0l312 1466h295l-312 -1466h-295zM-84 -415l55 261h281l-55 -261h-281z" />
    <glyph glyph-name="uni1ECB" unicode="&#x1ecb;" horiz-adv-x="559" 
d="M239 1206l56 260h281l-56 -260h-281zM-17 0l226 1061h281l-226 -1061h-281zM-100 -415l55 261h281l-55 -261h-281z" />
    <glyph glyph-name="uni1ECC" unicode="&#x1ecc;" horiz-adv-x="1608" 
d="M64 596q0 252 110.5 456.5t304 321.5t430.5 117q184 0 328.5 -79t225 -220.5t80.5 -322.5q0 -260 -112.5 -463.5t-305.5 -317t-424 -113.5q-203 0 -346.5 77t-217 217t-73.5 327zM885 1237q-152 0 -267.5 -80t-178.5 -224t-63 -328q0 -111 37.5 -196.5t111 -132.5
t178.5 -47q154 0 274.5 81.5t187.5 225.5t67 325q0 111 -42 196.5t-120.5 132.5t-184.5 47zM463 -415l55 261h281l-55 -261h-281z" />
    <glyph glyph-name="uni1ECD" unicode="&#x1ecd;" horiz-adv-x="1212" 
d="M11 422q0 184 79 335.5t222 239.5t322 88q160 0 268 -62t160.5 -164.5t52.5 -226.5q0 -194 -82 -343.5t-225.5 -231.5t-322.5 -82q-154 0 -260.5 55.5t-160 156t-53.5 235.5zM624 856q-85 0 -159 -52.5t-118.5 -147t-44.5 -215.5q0 -109 52 -172.5t142 -63.5
q92 0 167 53.5t117.5 147.5t42.5 213q0 108 -52.5 172.5t-146.5 64.5zM256 -415l55 261h281l-55 -261h-281z" />
    <glyph glyph-name="uni1EE4" unicode="&#x1ee4;" horiz-adv-x="1462" 
d="M390 426q0 -101 59 -149t182 -48q110 0 182 46t115 134t73 227l176 830h294l-183 -862q-51 -240 -133 -376t-210.5 -194.5t-328.5 -58.5q-270 0 -396.5 110.5t-126.5 311.5q0 82 30 224l179 845h295l-186 -873q-11 -52 -16 -90t-5 -77zM367 -415l55 261h281l-55 -261
h-281z" />
    <glyph glyph-name="uni1EE5" unicode="&#x1ee5;" horiz-adv-x="1219" 
d="M344 398q-10 -50 -10 -83q0 -61 31 -92.5t100 -31.5q88 0 166.5 62.5t112.5 219.5l125 588h281l-226 -1061h-262l30 139q-79 -84 -159.5 -123.5t-180.5 -39.5q-154 0 -230 76.5t-76 204.5q0 60 16 136l142 668h281zM256 -415l55 261h281l-55 -261h-281z" />
    <glyph glyph-name="endash" unicode="&#x2013;" horiz-adv-x="1024" 
d="M-75 426l44 209h1044l-44 -209h-1044z" />
    <glyph glyph-name="emdash" unicode="&#x2014;" horiz-adv-x="2048" 
d="M-75 426l44 209h2068l-44 -209h-2068z" />
    <glyph glyph-name="uni2015" unicode="&#x2015;" horiz-adv-x="2048" 
d="M235 426l44 209h1448l-44 -209h-1448z" />
    <glyph glyph-name="quoteleft" unicode="&#x2018;" horiz-adv-x="568" 
d="M552 1481l31 -122q-91 -27 -138 -76t-67 -130h139l-61 -288h-288l47 219q24 112 61 184t102 123t174 90z" />
    <glyph glyph-name="quoteright" unicode="&#x2019;" horiz-adv-x="568" 
d="M200 850l-31 122q91 27 138 75t67 131h-139l61 288h288l-47 -219q-24 -115 -61 -186t-102 -121.5t-174 -89.5z" />
    <glyph glyph-name="quotesinglbase" unicode="&#x201a;" horiz-adv-x="568" 
d="M-51 -328l-31 122q91 27 138 76t67 130h-139l61 288h288l-47 -219q-24 -112 -61 -184t-102 -123t-174 -90z" />
    <glyph glyph-name="quotedblleft" unicode="&#x201c;" horiz-adv-x="1018" 
d="M552 1481l31 -122q-91 -28 -138 -76.5t-67 -129.5h139l-61 -288h-288l47 219q24 112 61 184t102 123t174 90zM1002 1481l31 -122q-91 -28 -138 -76.5t-67 -129.5h139l-61 -288h-288l47 219q24 112 61 184t102 123t174 90z" />
    <glyph glyph-name="quotedblright" unicode="&#x201d;" horiz-adv-x="1018" 
d="M200 850l-31 122q91 27 138 75t67 131h-139l61 288h288l-47 -219q-24 -115 -61 -186t-102 -121.5t-174 -89.5zM650 850l-31 122q91 27 138 75.5t67 130.5h-139l61 288h288l-47 -219q-24 -113 -61 -185t-102 -122.5t-174 -89.5z" />
    <glyph glyph-name="quotedblbase" unicode="&#x201e;" horiz-adv-x="1018" 
d="M-51 -328l-31 122q91 27 138 76t67 130h-139l61 288h288l-47 -219q-24 -112 -61 -184t-102 -123t-174 -90zM399 -328l-31 122q91 27 138 76t67 130h-139l61 288h288l-47 -219q-24 -112 -61 -184t-102 -123t-174 -90z" />
    <glyph glyph-name="dagger" unicode="&#x2020;" horiz-adv-x="1139" 
d="M1134 1059l-50 -234h-361l-250 -1177h-264l250 1177h-366l50 234h366l86 407h264l-86 -407h361z" />
    <glyph glyph-name="daggerdbl" unicode="&#x2021;" horiz-adv-x="1139" 
d="M1148 1124l-50 -234h-361l-139 -656h361l-50 -234h-361l-75 -352h-264l75 352h-366l50 234h366l139 656h-366l50 234h366l73 342h264l-73 -342h361z" />
    <glyph glyph-name="bullet" unicode="&#x2022;" horiz-adv-x="717" 
d="M63 723q0 80 40.5 148.5t108.5 108.5t145 40q80 0 148 -40.5t108.5 -108.5t40.5 -148q0 -79 -40.5 -147t-109 -108t-147.5 -40q-78 0 -145.5 40.5t-108 108.5t-40.5 146z" />
    <glyph glyph-name="ellipsis" unicode="&#x2026;" horiz-adv-x="2048" 
d="M41 0l61 288h288l-61 -288h-288zM724 0l61 288h288l-61 -288h-288zM1407 0l61 288h288l-61 -288h-288z" />
    <glyph glyph-name="perthousand" unicode="&#x2030;" horiz-adv-x="2592" 
d="M106 990q0 152 50 265.5t144.5 174.5t223.5 61q95 0 163.5 -37.5t105 -107.5t36.5 -165q0 -147 -48 -259.5t-142 -176t-230 -63.5q-96 0 -164.5 38.5t-103.5 108t-35 161.5zM241 -25l1114 1516h191l-1106 -1516h-199zM501 1309q-38 0 -74.5 -32t-60 -100.5t-23.5 -170.5
q0 -75 20.5 -108t71.5 -33q38 0 74 29.5t60 98t24 178.5q0 72 -21 105t-71 33zM955 282q0 152 50 265.5t144.5 174.5t223.5 61q95 0 163.5 -37.5t105 -107.5t36.5 -165q0 -147 -48 -259.5t-142 -176t-230 -63.5q-96 0 -164.5 38.5t-103.5 108t-35 161.5zM1765 282
q0 152 50 265.5t144.5 174.5t223.5 61q95 0 163.5 -37.5t105 -107.5t36.5 -165q0 -147 -48 -259.5t-142 -176t-230 -63.5q-96 0 -164.5 38.5t-103.5 108t-35 161.5zM1350 601q-38 0 -74.5 -32t-60 -100.5t-23.5 -170.5q0 -75 20.5 -108t71.5 -33q38 0 74 29.5t60 98
t24 178.5q0 72 -21 105t-71 33zM2160 601q-38 0 -74.5 -32t-60 -100.5t-23.5 -170.5q0 -75 20.5 -108t71.5 -33q38 0 74 29.5t60 98t24 178.5q0 72 -21 105t-71 33z" />
    <glyph glyph-name="guilsinglleft" unicode="&#x2039;" 
d="M481 70h-201l-237 465l401 448h231l-359 -451z" />
    <glyph glyph-name="guilsinglright" unicode="&#x203a;" 
d="M116 983h201l237 -465l-401 -448h-231l359 451z" />
    <glyph glyph-name="uni20A0" unicode="&#x20a0;" horiz-adv-x="1496" 
d="M998 818l-37 -173h371l-47 -223h-371l-43 -199h461l-47 -223h-742l82 388q-61 -9 -117 -9q-205 0 -310.5 116t-105.5 334q0 174 75 319.5t214.5 231.5t325.5 86q164 0 268.5 -69.5t149.5 -193.5l-280 -98q-27 136 -165 136q-88 0 -155.5 -56.5t-104 -151.5t-36.5 -208
q0 -107 49.5 -164t147.5 -57q47 0 92 8l91 429h707l-47 -223h-426z" />
    <glyph glyph-name="colonmonetary" unicode="&#x20a1;" horiz-adv-x="1163" 
d="M1210 1134l-275 -80q-10 53 -36 97l-284 -928q56 31 96 85.5t80 131.5l263 -99q-74 -161 -204.5 -254.5t-308.5 -105.5l-74 -242h-112l74 242q-52 3 -103 16l-79 -258h-112l91 297q-111 63 -161.5 189.5t-50.5 309.5q0 233 75.5 439t222.5 339t352 151l55 180h111
l-55 -179q50 -3 105 -13l59 192h111l-69 -224q101 -43 157 -118.5t72 -167.5zM709 1249l-313 -1023q40 -30 99 -31l317 1036q-40 18 -103 18zM319 341l269 877q-98 -50 -163.5 -168t-96 -262t-30.5 -277q0 -103 21 -170z" />
    <glyph glyph-name="uni20A2" unicode="&#x20a2;" horiz-adv-x="1163" 
d="M918 651q-99 0 -166.5 -86t-100.5 -244l-16 -74q49 29 86 78t70 115l263 -99q-79 -174 -215 -268t-364 -94q-245 0 -353 146t-108 410q0 244 82.5 457.5t243.5 344t383 130.5q226 0 339 -94.5t138 -238.5l-275 -80q-33 181 -205 181q-143 0 -235.5 -114t-134.5 -280.5
t-42 -329.5q0 -88 15.5 -152.5t53.5 -102.5l133 625h240l-32 -150h4q68 93 133 133.5t145 40.5q51 0 86 -12t76 -35l-124 -250q-15 14 -53.5 28.5t-66.5 14.5z" />
    <glyph glyph-name="franc" unicode="&#x20a3;" horiz-adv-x="1163" 
d="M340 0h-294l50 236h-160l43 204h160l214 1006h885l-53 -248h-591l-75 -353h495l-52 -247h-495l-34 -158h296l-43 -204h-296z" />
    <glyph glyph-name="lira" unicode="&#x20a4;" horiz-adv-x="1163" 
d="M711 1473q204 0 317.5 -101.5t127.5 -285.5l-275 -39q-10 192 -174 192q-68 0 -116.5 -35t-74 -97t-25.5 -140v-22h330l-33 -155h-291q4 -82 5 -135h257l-33 -155h-242q-46 -145 -211 -242l3 -4q53 29 143 29q25 0 60.5 -7t99.5 -22q52 -12 84.5 -18.5t52.5 -6.5
q80 0 215 56l60 -237q-75 -35 -152 -54t-141 -19q-92 0 -228 43t-216 43q-63 0 -127.5 -20.5t-138.5 -65.5l-56 242l2 1q90 49 161 122t102 160h-239l33 155h226q-2 58 -4 90l-2 45h-191l33 155h153q2 160 62 279t173 184t270 65z" />
    <glyph glyph-name="uni20A5" unicode="&#x20a5;" horiz-adv-x="1800" 
d="M749 671q11 49 11 86q0 113 -107 113q-204 0 -266 -290l-123 -580h-281l226 1061h262l-29 -135h2q79 81 159.5 120t182.5 39q197 0 253 -162l362 518l103 -62l-214 -306q47 12 92 12q138 0 213 -74t75 -200q0 -59 -13 -120l-147 -691h-281l146 686q8 40 8 69
q0 55 -27.5 85t-83.5 30q-60 0 -112.5 -34.5t-91.5 -99.5t-58 -156l-123 -580h-281l28 134l-366 -525l-103 62l534 764z" />
    <glyph glyph-name="uni20A6" unicode="&#x20a6;" horiz-adv-x="1163" 
d="M17 810l33 155h115l102 481h287l103 -481h179l102 481h265l-102 -481h112l-33 -155h-112l-29 -135h112l-33 -155h-112l-111 -520h-297l-112 520h-151l-111 -520h-265l111 520h-115l33 155h115l29 135h-115zM411 876l-43 -201h85zM690 810l57 -264l56 264h-113z" />
    <glyph glyph-name="peseta" unicode="&#x20a7;" horiz-adv-x="2510" 
d="M1656 992l-43 -202h-197l-101 -473q-9 -39 -9 -61q0 -28 14.5 -39t49.5 -11q52 0 113 16l-11 -214q-49 -15 -102 -24t-100 -9q-135 0 -191.5 51.5t-56.5 154.5q0 60 24 172l96 437h-100q-69 -117 -206.5 -179t-343.5 -62h-128l-116 -549h-290l307 1446h331q271 0 392 -97
t121 -286q0 -25 -4 -71h80l41 192l309 170l-75 -362h196zM806 1044q0 76 -52.5 122t-153.5 46h-96l-91 -425h97q162 1 229 68.5t67 188.5zM2048 819q-49 0 -79 -21.5t-30 -60.5q0 -30 35.5 -54t122.5 -52q130 -43 194.5 -113t64.5 -188q0 -100 -52 -181t-148.5 -127.5
t-223.5 -46.5q-212 0 -303 86t-91 238l270 42q0 -84 30.5 -125.5t104.5 -41.5q40 0 69 14.5t44 37t15 46.5q0 32 -12.5 53t-42 37t-83.5 32q-138 41 -206.5 113.5t-68.5 179.5q0 92 47.5 167.5t139.5 119t220 43.5q159 0 247.5 -70.5t104.5 -210.5l-274 -38q0 58 -25 89.5
t-70 31.5z" />
    <glyph glyph-name="uni20A8" unicode="&#x20a8;" horiz-adv-x="1955" 
d="M1129 1074q0 -87 -42.5 -174t-135 -154t-234.5 -92q35 -11 61 -31.5t52 -75t47 -155.5l82 -392h-302l-69 351q-23 118 -43.5 172t-48.5 71t-81 17h-39l-130 -611h-288l307 1446h400q236 0 350 -90.5t114 -281.5zM831 1068q0 78 -56.5 111t-168.5 33h-102l-82 -384h79
q168 0 249 62.5t81 177.5zM1495 819q-49 0 -79 -21.5t-30 -60.5q0 -30 35.5 -54t122.5 -52q130 -43 194.5 -113t64.5 -188q0 -100 -52 -181t-148.5 -127.5t-223.5 -46.5q-212 0 -303 86t-91 238l270 42q0 -84 30.5 -125.5t104.5 -41.5q40 0 69 14.5t44 37t15 46.5
q0 32 -12.5 53t-42 37t-83.5 32q-138 41 -206.5 113.5t-68.5 179.5q0 92 47.5 167.5t139.5 119t220 43.5q159 0 247.5 -70.5t104.5 -210.5l-274 -38q0 58 -25 89.5t-70 31.5z" />
    <glyph glyph-name="uni20A9" unicode="&#x20a9;" horiz-adv-x="1666" 
d="M1491 675h163l-33 -155h-191l-207 -520h-307l-1 520h-261l-225 -520h-309l19 520h-184l33 155h156l5 135h-132l33 155h105l17 481h285l-36 -481h196l204 481h329l-3 -481h197l173 481h281l-191 -481h109l-33 -155h-138zM914 1123l-68 -158h69zM551 810h-142l-10 -135h94z
M915 810h-136l-58 -135h194v135zM1289 810h-143l-1 -135h95zM387 520l-9 -116l49 116h-40zM1144 520v-114l40 114h-40z" />
    <glyph glyph-name="uni20AA" unicode="&#x20aa;" horiz-adv-x="1847" 
d="M-17 0l226 1061h708q112 0 191.5 -36.5t120 -102.5t40.5 -154q0 -53 -4 -92.5t-13 -81.5l-48 -225h-281l54 253q8 38 8 93q0 50 -36.5 83.5t-99.5 33.5h-408l-177 -832h-281zM1366 424l135 637h281l-140 -661q-46 -215 -173.5 -307.5t-325.5 -92.5h-729l147 692h281
l-98 -463h394q96 0 151.5 46.5t76.5 148.5z" />
    <glyph glyph-name="dong" unicode="&#x20ab;" horiz-adv-x="1253" 
d="M668 1342h293l23 104h281l-22 -104h139l-40 -186h-139l-245 -1156h-262l28 129h-4q-75 -78 -158.5 -116t-165.5 -38q-123 0 -209.5 53t-131.5 153.5t-45 242.5q0 177 75.5 329t205 242t274.5 90q205 0 303 -161h3l50 232h-293zM625 861q-96 0 -170 -57.5t-114.5 -156.5
t-40.5 -218q0 -109 47 -169.5t130 -60.5q104 0 178 56.5t111.5 152.5t37.5 213q0 109 -47.5 174.5t-131.5 65.5zM-70 -350l40 187h954l-40 -187h-954z" />
    <glyph glyph-name="Euro" unicode="&#x20ac;" horiz-adv-x="1163" 
d="M917 1229q-150 0 -247 -73.5t-157 -205.5h549l-66 -155h-535q-10 -34 -16 -61q-12 -59 -13 -72v-2h508l-65 -155h-455q0 -139 63 -212.5t189 -73.5q95 0 177 20.5t169 64.5l-54 -255q-67 -32 -159 -53t-170 -21q-263 0 -387.5 142t-124.5 388h-152l66 155h100q6 38 12 68
q11 51 17 67h-133l66 155h116q96 258 270.5 390.5t430.5 132.5q108 0 191.5 -19.5t147.5 -59.5l-106 -234q-44 31 -104.5 50t-127.5 19z" />
    <glyph glyph-name="uni20AD" unicode="&#x20ad;" horiz-adv-x="1163" 
d="M960 1446h343l-497 -566h297l-43 -204h-318l248 -676h-308l-230 676h-22l-144 -676h-288l144 676h-134l43 204h134l121 566h288l-121 -566h8z" />
    <glyph glyph-name="uni20AE" unicode="&#x20ae;" horiz-adv-x="1163" 
d="M281 0l74 352l-298 -143l37 172l298 143l30 143l-298 -142l37 172l298 142l79 373h-390l50 234h1068l-50 -234h-390l-48 -229l298 143l-37 -172l-298 -143l-31 -144l299 143l-37 -172l-298 -143l-105 -495h-288z" />
    <glyph glyph-name="uni20AF" unicode="&#x20af;" horiz-adv-x="2253" 
d="M548 1463q44 77 106 146.5t128 111.5l141 -154q-43 -30 -111 -118q146 -34 253 -121t163 -209t56 -259q0 -277 -115.5 -470.5t-324 -291.5t-484.5 -98h-391l48 195q94 42 155 111.5t107.5 198.5t90.5 352q57 283 88 377q-87 -17 -148.5 -89.5t-97.5 -190.5l-224 60
q55 214 194.5 328t365.5 121zM730 1224q-15 -42 -27 -98.5t-34 -167.5q-14 -76 -27 -138q-46 -222 -95 -353t-120 -238h9q149 0 276.5 67.5t205.5 209.5t78 354q0 99 -34.5 178t-95 127t-136.5 59zM1804 963q115 0 201.5 -46.5t134.5 -134t48 -206.5q0 -169 -65 -305.5
t-181 -214.5t-263 -78q-49 0 -96.5 8.5t-80.5 24.5q-12 -58 -44 -202l-46 -215h-251l183 855q41 190 106 303.5t152 162t202 48.5zM1789 734q-65 0 -111.5 -74.5t-80.5 -238.5l-36 -178q16 -17 50 -26.5t71 -9.5q62 0 116 47t86 130.5t32 188.5q0 161 -127 161z" />
    <glyph glyph-name="uni20B0" unicode="&#x20b0;" horiz-adv-x="1163" 
d="M396 1117q0 86 44.5 167.5t135 134t220.5 52.5q112 0 192.5 -37t122.5 -106t42 -163q0 -69 -26 -131t-83.5 -128t-156.5 -149q77 -93 107.5 -172.5t30.5 -184.5q0 -116 -57.5 -211.5t-169 -152t-264.5 -56.5q-125 0 -219 20t-142 54l151 220q62 -60 192 -60q74 0 128 28
t81.5 73t27.5 97q0 38 -13.5 78.5t-55.5 90.5l-327 -262l-113 183l-141 -132l-134 171l341 317l119 -205l108 91q-78 93 -109.5 175.5t-31.5 197.5zM744 923q154 129 154 233q0 54 -26.5 84.5t-79.5 30.5q-40 0 -70.5 -20t-47 -52.5t-16.5 -68.5q0 -49 19 -98t67 -109z" />
    <glyph glyph-name="uni20B1" unicode="&#x20b1;" horiz-adv-x="1163" 
d="M192 977h-140l32 153h140l68 316h308q406 0 475 -316h172l-32 -153h-127q0 -61 -10 -114h112l-32 -153h-127q-69 -147 -217.5 -230.5t-380.5 -83.5h-76l-84 -396h-288l150 710h-140l32 153h141zM593 1232h-58l-22 -102h247q-47 102 -167 102zM786 977h-306l-24 -114h315
q13 54 15 114zM697 710h-274l-21 -102h62q147 0 233 102z" />
    <glyph glyph-name="uni20B2" unicode="&#x20b2;" horiz-adv-x="1163" 
d="M14 535q0 237 75.5 445t224 340.5t357.5 144.5l28 132h146l-29 -137q168 -22 247.5 -109.5t102.5 -216.5l-275 -80q-9 48 -21 81t-36.5 58.5t-66.5 35.5l-217 -1017q52 3 89 14.5t64 38.5l59 274h-114l53 248h402l-133 -624q-78 -80 -196.5 -129.5t-272.5 -53.5l-39 -185
h-146l41 195q-181 34 -262 175t-81 370zM409 232l210 989q-110 -36 -179.5 -151.5t-100.5 -264.5t-31 -294q0 -105 22 -176.5t79 -102.5z" />
    <glyph glyph-name="uni20B3" unicode="&#x20b3;" horiz-adv-x="1163" 
d="M949 468h147l-32 -155h-105l19 -313h-302l-7 313h-352l-141 -313h-295l155 313h-115l32 155h158l67 135h-196l33 155h240l340 688h295l42 -688h226l-33 -155h-184zM652 1058l-135 -300h141zM662 603h-215l-61 -135h279z" />
    <glyph glyph-name="uni20B4" unicode="&#x20b4;" horiz-adv-x="1163" 
d="M848 733q-65 -33 -130 -58h433l-33 -155h-755q-44 -23 -67.5 -64.5t-23.5 -93.5q0 -148 205 -148q90 0 147.5 32.5t88 80.5t53.5 113l255 -28q-65 -213 -202 -322.5t-358 -109.5q-457 0 -457 369q0 38 7.5 69.5t15 47t26.5 54.5h-98l33 155h186q51 39 145 83
q66 30 126 52h-428l33 155h728q82 55 82 145q0 56 -38 91.5t-126 35.5q-113 0 -164.5 -43.5t-75.5 -108.5l-247 33q63 173 178 261t305 88q223 0 330.5 -93t107.5 -256q0 -30 -11 -75.5t-32 -77.5h126l-33 -155h-215q-61 -48 -117 -77z" />
    <glyph glyph-name="uni20B5" unicode="&#x20b5;" horiz-adv-x="1163" 
d="M42 535q0 238 76 447.5t224 341.5t353 142l28 131h146l-30 -139q158 -25 236 -112.5t100 -211.5l-275 -80q-11 63 -36.5 104.5t-75.5 58.5l-210 -989q65 20 107 73.5t81 138.5l263 -99q-45 -112 -108.5 -189t-160.5 -121.5t-235 -50.5l-39 -185h-146l41 193
q-179 31 -259 172.5t-80 374.5zM434 236l208 980q-106 -32 -174.5 -146.5t-100 -264t-31.5 -294.5q0 -107 21 -177t77 -98z" />
    <glyph glyph-name="uni20B6" unicode="&#x20b6;" horiz-adv-x="1163" 
d="M1086 1454l-84 -393h198l-47 -223h-198l-110 -517q-9 -39 -9 -62q0 -29 14.5 -39.5t49.5 -10.5q28 0 53.5 3.5t60.5 12.5l-11 -217q-48 -15 -101.5 -24t-102.5 -9q-128 0 -190.5 48.5t-62.5 159.5q0 30 5.5 70t19.5 104l103 481h-189l-180 -838h-282l181 838h-150l47 223
h150l41 194l324 199l-84 -393h189l41 194z" />
    <glyph glyph-name="uni20B7" unicode="&#x20b7;" horiz-adv-x="1651" 
d="M1148 10v-190h-226v162l-23 -2l-58 -4q-14 0 -23 -1v-155h-223v145q-29 0 -58.5 1t-48.5 3v-149h-223v160q-157 10 -239.5 76t-82.5 196q0 90 83 166t210 76q64 0 112.5 -17t100.5 -67q32 37 81.5 60.5t103.5 23.5q38 0 79 -23.5t62 -60.5q23 32 82.5 58t112.5 26
q85 0 131.5 -52t46.5 -149v-68q54 32 78 77t24 119q0 89 -60.5 137.5t-230 99t-254.5 139t-85 246.5q0 194 151.5 321t359.5 127q239 0 370 -112t142 -312l-302 -33q-10 111 -61.5 162t-158.5 51q-88 0 -141.5 -44t-53.5 -111q0 -65 56.5 -105.5t190 -83.5t221 -101.5
t128.5 -137t41 -186.5q0 -195 -103 -311.5t-312 -156.5zM265 182v86q0 20 -10.5 37t-40.5 17q-28 0 -39.5 -17.5t-11.5 -36.5q0 -34 23 -54.5t79 -31.5zM488 174q9 0 23 -1l86 -3v74q0 42 -11 60t-32 18q-20 0 -40 -7.5t-26 -13.5v-127zM818 170q15 0 30.5 1t30.5 3l26 2
q12 0 19 2v76q0 32 -8.5 50t-31.5 18q-15 0 -36 -7t-30 -16v-129z" />
    <glyph glyph-name="uni20B8" unicode="&#x20b8;" horiz-adv-x="1163" 
d="M1180 1100l-53 -248h-391l-181 -852h-295l181 852h-395l53 248h1081zM124 1218l53 248h1081l-53 -248h-1081z" />
    <glyph glyph-name="uni20B9" unicode="&#x20b9;" horiz-adv-x="1163" 
d="M411 1291h-187l32 155h953l-32 -155h-318q50 -81 53 -162h230l-33 -155h-219q-40 -126 -134 -206t-260 -109l-1 -5q35 -10 61.5 -31.5t53.5 -76t50 -154.5l92 -392h-307l-79 351q-27 118 -48.5 171.5t-49.5 71t-80 17.5h-109l43 201h164q123 0 200.5 40.5t112.5 121.5
h-443l33 155h438q-1 86 -55 124t-161 38z" />
    <glyph glyph-name="uni20BA" unicode="&#x20ba;" horiz-adv-x="1163" 
d="M819 998l-36 -172l-316 -152l-94 -440h26q108 0 182 49.5t126.5 161.5t93.5 304h295q-60 -281 -156.5 -444.5t-238.5 -234t-350 -70.5h-316l113 529l-184 -88l37 172l183 88l31 143l-180 -87l37 172l179 87l92 430h288l-61 -285l317 153l-37 -172l-317 -153l-30 -143z
" />
    <glyph glyph-name="uni20BB" unicode="&#x20bb;" horiz-adv-x="1648" 
d="M141 311l201 137q0 57 9 126.5t24 138.5l37 176h-31q-135 0 -211.5 72.5t-76.5 197.5q0 148 86.5 236t232.5 88q130 0 210.5 -67t80.5 -179q0 -50 -14 -111h491q201 0 307.5 -94.5t106.5 -267.5q0 -174 -86 -278t-232 -104q-66 0 -112.5 22.5t-78.5 63.5l-36 45
l-167 -128l-96 133l-198 -133q34 -90 105 -125t208 -35q63 0 130.5 9t153.5 32l-53 -248q-75 -20 -148 -27t-168 -7q-180 0 -289.5 65.5t-151.5 188.5l-131 -89zM600 709q-7 -30 -11 -51.5t-7 -47.5l261 180l106 -148l180 148l70 -142q15 -32 42 -55.5t60 -23.5
q51 0 85 40.5t34 105.5q0 79 -64.5 126.5t-181.5 47.5h-536zM474 1186q3 13 4 24t1 21q0 57 -25 82t-66 25q-47 0 -76.5 -33.5t-29.5 -83.5q0 -42 24.5 -68.5t82.5 -26.5h72z" />
    <glyph glyph-name="uni20BC" unicode="&#x20bc;" horiz-adv-x="1163" 
d="M230 281l-60 -281h-281l82 387q65 307 144 485.5t183 258.5t251 88l48 227h271l-48 -228q123 -9 205 -101t82 -293q0 -69 -16 -182.5t-47 -257.5l-82 -384h-281l59 279q87 413 87 574q0 130 -56 135l-146 -688h-271l146 688q-55 -5 -121.5 -162.5t-148.5 -544.5z" />
    <glyph glyph-name="uni20BD" unicode="&#x20bd;" horiz-adv-x="1163" 
d="M-17 561l48 228h161l140 657h338q251 0 375 -100t124 -286q0 -240 -158.5 -369.5t-484.5 -129.5h-94l-27 -125h414l-48 -228h-414l-44 -208h-288l44 208h-161l48 228h161l27 125h-161zM866 1049q0 77 -51 123t-155 46h-88l-92 -429h92q141 0 217.5 60.5t76.5 199.5z" />
    <glyph glyph-name="uni20BE" unicode="&#x20be;" horiz-adv-x="1163" 
d="M990 236l-50 -236h-1002l50 236h320q-91 63 -147.5 194.5t-56.5 284.5q0 274 157.5 475t416.5 256l49 223h135l-45 -209l29 2h28q58 0 76 -2l45 209h136l-48 -227q86 -18 161 -54l-103 -219q-58 23 -109 36l-76 -359h-136l81 380q-12 0 -24 1h-25q-46 0 -86 -9l-79 -372
h-135l66 312q-112 -73 -175.5 -197t-63.5 -288q0 -200 109.5 -318.5t307.5 -118.5h194z" />
    <glyph glyph-name="uni2116" unicode="&#x2116;" horiz-adv-x="2111" 
d="M996 1466h265l-312 -1466h-287l-219 896l-190 -896h-265l312 1466h277l223 -919zM1240 630q0 137 57 250t161.5 179t242.5 66q169 0 260.5 -92.5t91.5 -260.5q0 -133 -57 -243t-163 -175t-246 -65q-172 0 -259.5 88.5t-87.5 252.5zM1680 927q-51 0 -93 -41t-66 -109.5
t-24 -146.5q0 -68 27.5 -105.5t81.5 -37.5t97.5 39.5t68 107t24.5 147.5q0 146 -116 146zM1149 0l40 187h695l-40 -187h-695z" />
    <glyph glyph-name="trademark" unicode="&#x2122;" horiz-adv-x="1765" 
d="M467 1293v-646h-196v646h-231v173h658v-173h-231zM1208 991l147 475h290v-819h-188v593h-4l-174 -593h-149l-172 593h-4v-593h-188v819h290l147 -475h5z" />
    <glyph glyph-name="uni2133" unicode="&#x2133;" horiz-adv-x="2531" 
d="M1118 999h-8q-72 -426 -156.5 -633t-207 -298t-318.5 -91q-183 0 -296.5 108.5t-121.5 287.5l254 49q13 -106 52 -158.5t108 -52.5q122 0 201.5 116t139 336t114.5 564q-20 2 -36 5t-46 3q-107 0 -161 -79.5t-54 -235.5q0 -52 9 -114.5t25 -123.5h-272
q-20 53 -31.5 122.5t-11.5 141.5q0 249 141.5 385.5t405.5 136.5q117 0 244 -27.5t229 -74.5l139 -940l467 985h475q-70 -175 -120 -470t-50 -505q0 -120 26.5 -172.5t92.5 -52.5q43 0 94.5 15.5t75.5 29.5v-233q-59 -26 -116.5 -36t-118.5 -10q-173 0 -253.5 102t-80.5 320
q0 187 21 345.5t48 273.5l-8 6l-487 -1024h-258z" />
    <glyph glyph-name="glyph221" horiz-adv-x="1196" 
d="M86 592v258h1024v-258h-1024z" />
    <glyph glyph-name="glyph225" 
d="M709 986l-31 -146h-105l-29 -135h-184l29 135h-346l30 141l474 485h159l-102 -480h105zM468 1213l-226 -227h178z" />
    <glyph glyph-name="glyph313" 
d="M433 1356q0 54 26.5 99t72 71t98.5 26q52 0 97 -26.5t71.5 -71.5t26.5 -98q0 -51 -26.5 -96t-71.5 -72t-97 -27t-97.5 27t-72.5 71.5t-27 96.5zM629 1446q-36 0 -62.5 -27t-26.5 -63q0 -37 26.5 -62.5t63.5 -25.5q36 0 62 26t26 62q0 37 -26 63.5t-63 26.5z" />
    <glyph glyph-name="glyph497" horiz-adv-x="342" 
d="M-503 -25l1179 1498h165l-1179 -1498h-165z" />
    <glyph glyph-name="glyph525" 
d="M-44 -415l55 261h281l-55 -261h-281z" />
    <glyph glyph-name="glyph526" 
d="M228 1567l193 295h313l-328 -295h-178zM609 1567l193 295h313l-327 -295h-179z" />
    <glyph glyph-name="glyph527" 
d="M683 1588q-47 0 -87 11t-89 35q-32 16 -56.5 23.5t-43.5 7.5q-33 0 -54.5 -21t-25.5 -65v-2h-154l1 5q28 138 91 206.5t154 68.5q44 0 80 -10.5t77 -32.5q36 -18 60.5 -26t55.5 -8q28 0 51 22t32 65h154q-25 -139 -89.5 -209t-156.5 -70z" />
    <glyph glyph-name="glyph528" 
d="M354 1727q0 57 26.5 101.5t71.5 69.5t99 25q53 0 97.5 -25t71 -69.5t26.5 -101.5q0 -54 -26.5 -98.5t-70.5 -70.5t-98 -26q-53 0 -98 25.5t-72 70.5t-27 99zM550 1817q-40 0 -64.5 -25.5t-24.5 -64.5t24.5 -63.5t65.5 -24.5q39 0 63.5 24t24.5 64q0 38 -24.5 64t-64.5 26
z" />
    <glyph glyph-name="glyph529" 
d="M551 1731q72 0 113 31t65 100h176q-78 -303 -373 -303q-141 0 -208.5 73.5t-67.5 229.5h176q0 -69 28.5 -100t90.5 -31z" />
    <glyph glyph-name="glyph530" 
d="M205 1616l42 197h646l-42 -197h-646z" />
    <glyph glyph-name="glyph531" 
d="M644 1567l-84 140l-144 -140h-247l283 295h258l157 -295h-223z" />
    <glyph glyph-name="glyph532" 
d="M363 1567l185 295h331l-319 -295h-197z" />
    <glyph glyph-name="glyph533" 
d="M455 1862l84 -140l144 140h247l-283 -295h-258l-157 295h223z" />
    <glyph glyph-name="glyph534" 
d="M481 1567l-196 295h320l62 -295h-186z" />
    <glyph glyph-name="glyph535" 
d="M378 1596l58 271h291l-58 -271h-291z" />
    <glyph glyph-name="glyph536" 
d="M478 1354h139l-40 -188h-288l31 147q19 88 58.5 137t103 71.5t162.5 29.5l-9 -111q-56 -4 -89.5 -15t-48 -28t-19.5 -43z" />
    <glyph glyph-name="glyph537" horiz-adv-x="268" 
d="M76 934l-29 114q84 21 126 59t58 102h-130l55 257h268l-41 -193q-20 -96 -53.5 -157.5t-93 -104.5t-160.5 -77z" />
    <glyph glyph-name="glyph538" 
d="M126 -253h-139l38 178h288l-28 -132q-19 -89 -59 -139.5t-103.5 -72.5t-161.5 -26l9 111q79 1 114 23t42 58z" />
    <glyph glyph-name="glyph539" 
d="M183 1596l53 251h252l-53 -251h-252zM613 1596l53 251h252l-53 -251h-252z" />
    <glyph glyph-name="glyph540" horiz-adv-x="1412" 
d="M1313 617q0 -179 -77 -316t-219.5 -218.5t-334.5 -98.5l-83 -390h-272l83 390q-115 16 -205.5 76t-142 158t-51.5 224q0 179 77 316t219.5 218.5t334.5 98.5l83 391h272l-83 -391q115 -16 205.5 -76t142 -158t51.5 -224zM1027 602q0 96 -41.5 164.5t-119.5 82.5
l-136 -638q89 16 156 68t104 134.5t37 188.5zM297 457q0 -96 41.5 -164.5t119.5 -82.5l136 638q-89 -16 -156 -68t-104 -134.5t-37 -188.5z" />
    <glyph glyph-name="glyph541" 
d="M464 1325q68 0 112 44t68 122h194q-42 -148 -141 -225.5t-239 -77.5q-148 0 -224 81t-78 222h184q0 -77 32 -121.5t92 -44.5z" />
    <glyph glyph-name="glyph542" 
d="M545 1695q70 0 120.5 45.5t74.5 120.5h194q-42 -148 -149.5 -225.5t-255.5 -77.5q-147 0 -225.5 80.5t-81.5 222.5h184q0 -166 139 -166z" />
    <glyph glyph-name="glyph622" horiz-adv-x="1163" 
d="M482 0h-86l-34 -161h-101l34 161h-337l312 1466h337l31 147h101l-31 -147q23 0 44 -1.5t41 -3.5l32 152h101l-35 -168q133 -32 197.5 -112.5t64.5 -195.5q0 -139 -83.5 -231t-233.5 -126q99 -31 155.5 -112t56.5 -200q0 -196 -120.5 -314.5t-343.5 -145.5l-35 -169h-101z
M426 248q173 0 244 58.5t71 173.5q0 81 -61 118t-175 37h-117l-82 -387h120zM596 883q125 0 190 52.5t65 152.5q0 64 -44.5 97t-143.5 33h-151l-71 -335h155z" />
    </font>
</defs>
</svg>
